<?xml version="1.0" encoding="utf-8"?>
<!-- Generator: Adobe Illustrator 13.0.2, SVG Export Plug-In  -->
<!DOCTYPE svg PUBLIC "-//W3C//DTD SVG 1.1 Tiny//EN" "http://www.w3.org/Graphics/SVG/1.1/DTD/svg11-tiny.dtd" [
	<!ENTITY ns_flows "http://ns.adobe.com/Flows/1.0/">
]>
<svg version="1.1" baseProfile="tiny"
	 xmlns="http://www.w3.org/2000/svg" xmlns:xlink="http://www.w3.org/1999/xlink" xmlns:a="http://ns.adobe.com/AdobeSVGViewerExtensions/3.0/"
	 x="0px" y="0px" width="93px" height="79px" viewBox="-0.2 -0.3 93 79" xml:space="preserve">
<defs>
</defs>
<path fill="#90298D" d="M55.9,28.4c0,0.3-0.1,0.6-0.2,0.9c0,0.2-0.2,0.1-0.3,0.2c-0.1,0.1-0.1,0.4-0.2,0.4l-0.4,0.4
	c-0.1,0.1-0.2,0.2-0.2,0.3c0,0.2-0.1,0.4-0.1,0.5c0.2,0.2,0.2,0.4,0.3,0.5c0.3,0.1,0.4,0.3,0.6,0.5c0,0,0,0.3,0,0.4l0.2,0.5
	c0.1,0.2,0.4,0.3,0.6,0.5l0.5,0.1c0.1-0.1,0.2-0.1,0.4-0.2c0.1,0.1,0.1,0.2,0.2,0.2c0.2,0.1,0.4,0.2,0.5,0.3c0,0,0,0.1,0,0.2
	c0.1,0.1,0.2,0.1,0.3,0.2c0,0.1,0,0.3,0,0.4c-0.2,0.1-0.3,0.3-0.6,0.4c-0.3,0.1-0.6,0.2-0.9,0.3c0,0,0,0.1,0.1,0.2
	c0.1,0.1,0.2,0.2,0.2,0.3c0,0,0.1,0.1,0.1,0.1c0,0,0.2,0,0.2,0c-0.2,0.3-0.3,0.6-0.5,0.8H56c-0.1,0-0.2-0.2-0.3-0.2
	c-0.2,0-0.3,0.1-0.4,0.2c0,0,0,0.2,0,0.2c0,0,0.1,0.1,0.1,0.1c0,0,0.2,0,0.2,0c0.1,0.1,0.3,0.2,0.3,0.4c-0.1,0-0.3,0-0.3,0
	c0,0-0.2,0.1-0.2,0.2c-0.1,0.1-0.1,0.3-0.2,0.4c-0.1,0.1-0.3,0.2-0.4,0.2c-0.1,0-0.2,0.1-0.3,0.2c0,0,0,0.1,0,0.2
	c0.1,0.1,0.2,0.2,0.3,0.2c0.1,0,0.3,0,0.4,0c0.1,0,0.2-0.2,0.2-0.2c0,0,0.2,0,0.2,0c0,0.1,0,0.2-0.1,0.2c-0.1,0-0.2,0.1-0.3,0.1
	c-0.1,0-0.3,0-0.3,0c-0.1,0.2-0.4,0.3-0.6,0.5c0.1,0,0.3,0,0.3,0.1c0.2,0.1,0.4,0.1,0.5,0.3c0,0,0,0.1,0,0.2c0,0.1-0.2,0.2-0.2,0.2
	c0,0.1,0,0.3,0,0.3c0.2,0.2,0.4,0.4,0.7,0.4c0.1,0,0.1,0.1,0.1,0.1c0,0.1-0.2,0.2-0.3,0.2c-0.2,0.1-0.3,0.3-0.3,0.5h-0.4
	c0,0.1,0,0.3,0,0.3c0,0.1,0.1,0.3,0.1,0.3c-0.1,0-0.3,0-0.3,0c-0.1,0.1-0.3,0.2-0.3,0.2v0.5c0.2,0.1,0.3,0.2,0.5,0.2
	c0.2,0,0.3,0,0.5,0.1c0.1,0,0.2-0.1,0.3-0.1c0.1,0,0.2,0.2,0.2,0.2c0,0,0,0.2,0,0.2l-0.5-0.1h-0.6c-0.1,0.1-0.2,0.3-0.3,0.4
	c-0.1,0.1-0.2,0.3-0.2,0.4l0.3,0.7c0,0,0.1,0.1,0.1,0.2c0.1,0.3,0.2,0.6,0.2,1c0.2,0.2,0.4,0.4,0.5,0.7c-0.2-0.1-0.3-0.2-0.4-0.3
	c0,0-0.1,0-0.2,0c-0.1,0-0.1,0.1-0.2,0.2c0,0,0,0.1,0,0.2c0.1,0.1,0.1,0.3,0.2,0.3l0.5,0.5c0.2,0.2,0.2,0.5,0.3,0.7
	c0.2,0.1,0.3,0.2,0.5,0.4c0-0.1,0.1-0.3,0.1-0.3c0-0.1,0-0.2,0-0.2c-0.2-0.3-0.4-0.7-0.6-1c0,0,0-0.1,0-0.2c0.1,0,0.2,0.1,0.3,0.1
	l0.7,0.7c0,0,0.1,0.3,0.1,0.3v0.6l0.1,0.5c0,0.1,0.1,0.3,0.1,0.3l0.3,0.3c0,0,0,0.3,0,0.3c-1-0.7-2-1.4-3-2.3
	c-0.1-0.1-0.3-0.1-0.4-0.2c0,0-0.1-0.2-0.2-0.2l-0.9-0.5l-0.9-0.9c-0.3-0.1-0.7-0.2-1-0.4c-0.1,0-0.2,0-0.3,0
	c-0.1,0-0.2-0.2-0.2-0.3c-0.3,0-0.6,0-0.9-0.1l-0.4,0.4c-0.2,0-0.3,0.1-0.4,0.2c-0.1,0.1,0.2,0.1,0.2,0.2c0.1,0.2,0.4,0.3,0.5,0.4
	c0.1,0.1,0,0.1-0.1,0.1c-0.1,0-0.3-0.1-0.5-0.1c-0.1,0-0.1,0.1-0.2,0.2c0,0.1,0,0.3,0,0.4c-0.1,0.4-0.4,0.5-0.6,0.6
	c-0.1,0-0.1,0.2-0.1,0.3l0,0.5L48,51c-0.2,0.2-0.2,0.4-0.4,0.5c-0.1,0.1-0.3,0.1-0.4,0.2c0,0-0.1,0.2-0.1,0.2l-0.4,0.4
	c0,0.2-0.1,0.3-0.1,0.5c0.3,0.7,0.6,1.3,0.6,2.3c0,0-0.2,0-0.2,0c-0.1-0.1-0.2-0.2-0.3-0.3c-0.1-0.5-0.1-1.1-0.2-1.6
	c-0.2-0.5-0.5-0.8-1.2-0.7c-0.1,0-0.2,0.1-0.2,0.2c0,0.2-0.1,0.3-0.2,0.4c0,0-0.1,0-0.2,0c-0.1,0-0.2-0.2-0.2-0.2
	c-0.1,0-0.3,0-0.3,0c-0.1,0-0.2,0.1-0.2,0.1v0.7l0.2,0.4c0,0,0,0.2,0,0.2c0,0.1,0.1,0.1,0.1,0.2c0,0-0.2,0-0.3,0
	c-0.2-0.3-0.3-0.6-0.5-0.9c-0.1-0.2-0.1-0.3-0.2-0.4c0,0-0.2,0-0.2,0c-0.3,0.2-0.4,0.4-0.6,0.7c0,0.2-0.2,0.4-0.1,0.6
	c0,0.3,0,0.7,0,1c0,0-0.1,0.2-0.2,0.2c-0.1,0-0.3,0.1-0.3,0.1c-0.1,0-0.3,0-0.4,0c-0.1-0.1-0.2-0.1-0.4-0.1c0,0-0.1,0.1-0.1,0.1
	c0,0,0,0.1,0,0.2c0,0.1,0.2,0.2,0.2,0.2L41,57.4c-0.1,0-0.1,0-0.2-0.1c0,0-0.1-0.2-0.1-0.2v-0.7c0-0.1-0.1-0.2-0.2-0.3
	c0,0-0.1,0-0.2,0c-0.1,0-0.2-0.2-0.2-0.2c0,0-0.1,0-0.1,0c-0.1,0.1-0.2,0.1-0.2,0.2l0.2,0.5c0,0,0,0.2,0,0.2c0,0-0.1,0.2-0.1,0.2
	c0,0-0.2,0-0.2,0c-0.1,0-0.1-0.1-0.2-0.1c0-0.1,0-0.3,0-0.4c-0.1,0-0.1,0-0.2,0.1c-0.2,0.2-0.3,0.3-0.5,0.5c0,0.2-0.1,0.4-0.2,0.5
	c0,0-0.1-0.1-0.2-0.2c-0.1,0-0.3,0-0.3,0c-0.2-0.1-0.4-0.3-0.3-0.6c0-0.1,0-0.2,0-0.3c0-0.1-0.1-0.2-0.1-0.2c-0.2,0-0.3,0-0.5,0.1
	c-0.1,0-0.2-0.1-0.4-0.1c-0.1,0.2-0.3,0.4-0.5,0.6c-0.1,0-0.1,0.3-0.1,0.3c0,0,0,0.2,0,0.2c-0.1,0.2-0.1,0.3-0.3,0.5
	c0-0.1,0-0.4,0-0.6c-0.1-0.3-0.4-0.5-0.5-0.9c0-0.1,0-0.3,0-0.4l0.2-0.7v-0.6c-0.1-0.2-0.3-0.3-0.5-0.4l-0.6-0.3
	c-0.2-0.4-0.6-0.7-0.9-1c0-0.6-0.1-1-0.2-1.5c0.1-0.2,0.2-0.4,0.2-0.7c0-0.1-0.1-0.3-0.2-0.4c0,0-0.2-0.2-0.2-0.2c0,0-0.2,0-0.2,0
	l-0.3-0.4c0,0-0.1,0-0.2,0c-0.1,0-0.3,0.2-0.3,0.3c-0.1,0.3-0.3,0.5-0.5,0.8c0,0.2,0.1,0.4,0,0.6c0.1,0.2,0.2,0.4,0.2,0.6
	c0,0-0.1,0.1-0.1,0.1c0,0-0.2,0-0.2,0c-0.2-0.2-0.3-0.4-0.5-0.6c0,0-0.3,0-0.3,0c-0.4,0.1-0.6,0.3-0.9,0.5c-0.1,0-0.2,0-0.2,0
	c0-0.2,0.2-0.4,0.3-0.6c0-0.1,0.2-0.2,0.3-0.3c0.1,0,0.2,0.1,0.3,0.1c0.1,0,0.3-0.1,0.3-0.1c0,0,0.2-0.2,0.2-0.2
	c0-0.2,0-0.4,0.1-0.6l0.7-0.7c0.2-0.1,0.4-0.1,0.6-0.1V49c-0.1-0.2-0.3-0.3-0.5-0.4L31.3,49c-0.3-0.1-0.5,0-0.8,0
	c0-0.2,0.1-0.3,0.1-0.4c0-0.2-0.2-0.2-0.3-0.3l0.2-0.3c0,0,0.1,0,0.2,0c0,0,0.1-0.1,0.2-0.1c-0.2,0-0.3-0.2-0.4-0.3
	c0-0.1-0.2-0.1-0.3-0.1c-0.2,0.1-0.4,0-0.5-0.1c0-0.2,0.1-0.3,0.1-0.5c0-0.1-0.1-0.1-0.2-0.2c0,0-0.2,0-0.2,0l-0.6-0.3
	c0,0-0.2,0-0.2,0c-0.1,0-0.2-0.2-0.2-0.2c-0.2,0-0.3,0-0.5-0.1c-0.1,0-0.2,0.1-0.4,0.1c-0.3-0.1-0.6-0.1-0.8-0.1
	c0,0-0.1-0.1-0.1-0.1c0,0,0-0.2,0-0.2c0,0,0.1-0.1,0.1-0.1c0,0,0.2,0,0.2,0c0.2-0.1,0.4-0.2,0.6-0.3c0,0,0-0.2,0-0.2
	c0,0-0.1-0.1-0.1-0.1c-0.1,0-0.3,0-0.4,0c-0.1,0-0.1-0.2-0.2-0.3c-0.1-0.1-0.3-0.2-0.3-0.2H26c0,0-0.2-0.2-0.2-0.2
	c0.1-0.1,0.1-0.3,0.1-0.6c0,0-0.2,0-0.2,0c-0.2-0.3-0.5-0.4-1-0.5l-0.8,0.2c-0.3,0.1-0.5,0.3-0.8,0.5c-0.4,0-0.7,0.1-1.1,0.1
	c-0.1,0-0.3-0.3-0.3-0.3l-1-0.1c-0.1,0-0.3,0.1-0.4,0.1c-0.1,0-0.3-0.1-0.3-0.1c-0.1,0.1-0.2,0.2-0.3,0.4c0,0.1,0.1,0.2,0.2,0.2
	l0.8,0c0.3,0,0.6-0.1,0.9-0.1c0.1,0,0.2,0.1,0.2,0.2c0,0.2,0.1,0.4,0.2,0.5c0.2,0.1,0.4,0.1,0.6,0.2c0.1,0,0.2,0,0.3,0l0.7-0.2
	c0.5,0,0.9-0.1,1.5-0.1c-0.3,0.2-0.6,0.3-0.7,0.4L24,45.9c0,0.1-0.2,0.2-0.3,0.2c-0.2,0.1-0.5,0.2-0.8,0.2c-0.1,0-0.3,0-0.3,0
	l-0.4-0.4c0,0-0.2,0-0.2,0l-0.6,0.3L21,46.3c-0.3,0-0.6-0.1-0.8-0.2c-0.1,0-0.2-0.2-0.3-0.3c-0.1,0-0.3-0.1-0.3-0.1l-1.4-0.2
	c-0.2,0-0.4-0.1-0.5-0.3c0,0,0-0.2,0-0.2c0.2-0.2,0.4-0.3,0.6-0.4c0.2,0,0.4-0.1,0.5-0.2c0.1-0.2,0.2-0.4,0.4-0.6
	c0-0.1,0.2-0.1,0.3-0.2c0-0.2-0.1-0.3-0.2-0.4l-0.5-0.1c-0.2,0-0.5,0.1-0.8,0.1c0.2-0.3,0.4-0.7,0.6-0.9l0.6-0.2h0.7v-0.5
	c0.2-0.2,0.7-0.3,0.9-0.1c0,0,0.1,0,0.1,0c0.2-0.3,0.4-0.5,0.7-0.7c0,0,0-0.1,0-0.2c0.3-0.2,0.5-0.4,0.8-0.6
	c0.1-0.1,0.1-0.2,0.1-0.4c0.1,0,0.3,0,0.3,0l0.4-0.4c0.2-0.1,0.3-0.2,0.5-0.4c0.2-0.1,0.4-0.2,0.5-0.3c0-0.2-0.1-0.3-0.2-0.4
	c0,0-0.1,0-0.2,0c-0.1,0.1-0.3,0.2-0.5,0.3c0,0-0.2,0-0.3,0c-0.1,0-0.3-0.2-0.3-0.3c0,0,0-0.2,0-0.2c0.1-0.1,0.2-0.2,0.3-0.3
	c0-0.1,0-0.3,0-0.4c0.1-0.1,0.4-0.3,0.6-0.3c0.6-0.1,1.2-0.1,1.9-0.1c0.1-0.1,0.2-0.2,0.3-0.3c0,0,0-0.1,0-0.2
	c0-0.1-0.2-0.2-0.2-0.2v-0.4c0,0,0.1-0.1,0.1-0.1c0.1,0,0.2,0,0.2,0c0,0.1,0.1,0.3,0.1,0.3c0,0,0,0.2,0,0.2c0,0.1,0.1,0.1,0.2,0.2
	c0,0,0.2,0,0.3,0c0.1-0.2,0.3-0.4,0.4-0.6c0-0.1,0.3-0.1,0.4-0.2c0,0,0.2-0.2,0.2-0.2c0,0,0-0.1,0-0.2c0-0.1,0.2-0.3,0.3-0.3
	c0.2-0.1,0.6-0.2,0.8-0.3c0,0,0-0.2,0-0.2l-0.4-0.4c0,0-0.3-0.1-0.3-0.1c0,0-0.2,0-0.2,0c-0.2,0.1-0.4,0.1-0.5,0.3
	c-0.1,0.1-0.3,0.1-0.4,0.1c-0.1,0-0.3-0.1-0.3-0.2c0-0.3,0.1-0.6,0.2-0.9c0,0,0-0.2,0-0.2c-0.2-0.2-0.3-0.4-0.5-0.6v-0.4L26,31.3
	c0,0-0.2-0.1-0.2-0.1c-0.1-0.1-0.2-0.2-0.3-0.3c0,0,0-0.1,0-0.2c0,0,0.1-0.1,0.2-0.1c0,0,0.2,0,0.2,0c0.1,0,0.3,0.1,0.4,0.2
	c0.3,0.2,0.5,0.5,0.6,0.8c0.1,0.2,0.4,0.2,0.5,0.3c0.1,0,0.1,0.2,0.1,0.3c0,0.1,0,0.3,0,0.4c0,0.1,0.1,0.2,0.2,0.2
	c0.4,0,0.7,0.2,1,0.4c0,0,0.1,0.1,0.1,0.1c0,0.1,0,0.2,0,0.3c0,0.1-0.1,0.2-0.1,0.3h0.5l0.5,0.1c0.2,0,0.3-0.1,0.5-0.1
	c0.1,0,0.2,0.1,0.2,0.1v0.8c0.1,0.1,0.2,0.3,0.4,0.3c0-0.1,0-0.3,0-0.3l0.4-0.5c0,0,0,0.1,0,0.2c-0.1,0.3-0.1,0.6-0.1,0.9
	c0.1,0.1,0.2,0.2,0.3,0.3c0.3,0.1,0.6-0.1,0.6-0.4l0-0.6l0.4-0.5c0,0,0-0.1,0-0.1c-0.3-0.4-0.5-0.8-0.6-1.3l0.2-0.5
	c0-0.1,0-0.3,0-0.4c-0.2,0.1-0.3,0.3-0.5,0.5c0,0,0,0.2,0,0.3c0,0.1-0.2,0.2-0.2,0.2c-0.1,0.4,0.2,0.6,0.4,0.7
	c0.1,0.1,0,0.2-0.1,0.2c0,0-0.1,0-0.1,0c-0.1,0-0.2-0.2-0.2-0.2c-0.1,0-0.3,0-0.4,0l0.2-0.5c-0.1,0-0.2-0.2-0.2-0.2h-0.5
	c-0.1,0.1-0.2,0.2-0.5,0.3c-0.2-0.2-0.4-0.4-0.7-0.6l0-0.5c0.1-0.3,0.3-0.5,0.7-0.4c0.3,0.1,0.7,0.1,1,0.2c0.1-0.1,0.3-0.2,0.4-0.2
	c0.1,0,0.2-0.2,0.3-0.2c0.2,0.1,0.4,0.2,0.6,0.2c0.1-0.1,0.3-0.2,0.4-0.4v-0.8c0-0.1-0.1-0.3-0.1-0.5c0.1,0,0.2,0,0.3,0
	c0.1,0,0.3,0.1,0.3,0.1c0,0,0.2,0,0.2,0c0,0-0.1-0.1-0.1-0.1c0-0.2,0.1-0.5,0-0.7c0.2,0.1,0.3,0.3,0.5,0.4c0.2,0.1,0.3,0.1,0.5,0.3
	c0,0,0.1,0,0.2,0c0,0,0.1-0.1,0.1-0.1c0,0,0-0.1,0-0.2c0-0.1,0.1-0.1,0.2-0.2c0.1,0,0.2,0,0.3,0l0.4-0.2l1.5,0l0,0.9
	c0,0.2,0.1,0.3,0.3,0.4l0.3,0.3c0,0,0.2,0,0.3,0c0,0,0.1-0.1,0.1-0.1c-0.2-0.4-0.4-0.8-0.6-1.3v-0.5c0-0.1-0.2-0.2-0.3-0.2
	c0.1-0.1,0.3-0.2,0.4-0.2h0.5l0.4,0.1c0.1,0,0.3-0.1,0.4-0.1c0.1,0,0.2-0.1,0.2-0.1c0-0.4,0-0.6-0.1-0.9c0,0-0.2-0.2-0.2-0.2
	c-0.1-0.1-0.1-0.4,0-0.4c0.2-0.1,0.1-0.3,0-0.5c0,0-0.1-0.1-0.1-0.1c-0.1,0.1-0.2,0.1-0.3,0.2c-0.1,0.1-0.1,0.2-0.1,0.2
	c-0.2,0.1-0.4-0.1-0.5-0.2c-0.1-0.1-0.3-0.2-0.4-0.1c0,0.4,0.1,0.8,0.1,1.2c-0.1,0.1-0.2,0.2-0.3,0.2c-0.1,0-0.3,0-0.3,0
	c-0.2,0.2-0.5,0.3-0.6,0.5c0,0-0.1,0-0.2,0c-0.1,0.1-0.2,0.1-0.3,0.2c0,0,0,0.2,0,0.3c0,0.1-0.1,0.1-0.1,0.2c-0.3,0-0.5,0.1-0.8,0.1
	c0-0.2,0-0.4,0.1-0.5c0-0.1-0.1-0.3-0.1-0.3L34.1,28c0-0.2,0-0.3-0.1-0.5c0.1-0.2,0.1-0.3,0.1-0.6c0-0.5-0.1-0.9-0.1-1.5
	c0.1-0.4,0.2-0.8,0.4-1.2v-0.5c0-0.1,0.1-0.3,0.1-0.3c0-0.1-0.1-0.3-0.1-0.3v-0.6l-0.2-0.6c0,0,0.1-0.2,0.1-0.3
	c-0.1-0.2-0.1-0.3-0.1-0.5L34,20.7c0,0,0-0.2,0-0.3c0-0.1-0.2-0.2-0.2-0.2c0,0,0-0.2,0-0.3c0-0.1,0.2-0.2,0.2-0.2c0-0.1,0-0.3,0-0.3
	c-0.1-0.1-0.2-0.3-0.3-0.5c0,0,0-0.2,0-0.3c0-0.1,0.1-0.1,0.1-0.2c0,0,0.1,0,0.2,0c0.1,0.1,0.2,0.2,0.2,0.3c0.2,0.6,0.4,1.2,0.7,1.7
	c-0.1,0.1-0.2,0.1-0.3,0.2c-0.1,0.1,0.1,0.2,0.1,0.3H35v-0.3c0,0,0.1,0,0.1,0c0.2,0.1,0.4,0.2,0.7,0.3c0.1,0,0.2-0.1,0.2-0.1
	c0,0,0.2,0,0.2,0c0.4,0.4,0.8,0.8,1.2,1.2c0,0,0.1,0,0.2,0l0.4-0.4h0.4c0.1,0.1,0.2,0.2,0.4,0.3c0,0,0,0.3,0,0.3
	c-0.1,0.1-0.2,0.3-0.3,0.4c-0.3,0-0.6-0.1-0.8-0.2c-0.1,0-0.2-0.2-0.3-0.2c0,0-0.2,0-0.2,0c-0.1,0-0.1,0.1-0.2,0.1c0,0,0,0.1,0,0.1
	c0.2,0.2,0.3,0.6,0.4,0.9l0.4,0.4c0.2,0.1,0.5,0.2,0.7,0.4c0,0.1,0.1,0,0.2-0.1c0,0,0-0.2,0-0.2c0-0.1-0.2-0.2-0.2-0.2l-0.1-0.5
	c0,0,0.1-0.1,0.1-0.1c0.1-0.1,0.2,0,0.2,0.1V24l0.4,0.4c0,0,0,0.2,0,0.2c0,0,0.2,0,0.2,0l0.3-0.4c0-0.3,0-0.5-0.1-0.6
	c0.1-0.2,0.1-0.4,0.2-0.5c0,0,0.1-0.1,0.1-0.1c0.1,0,0.2,0.2,0.3,0.3c0,0,0,0.2,0,0.3l-0.2,0.4c0,0,0,0.2,0,0.2
	c0.5,0,0.9-0.1,1.3-0.2c0.1-0.1,0.1-0.4,0.2-0.5c0.1-0.1,0.3-0.1,0.4-0.2c0,0,0.2,0,0.2,0c0.2,0.2,0.4,0.3,0.6,0.5c0,0,0.1,0,0.1,0
	c0.1,0,0.2-0.1,0.2-0.2V23c0.1,0,0.3,0,0.3,0c0.1,0,0.2,0.1,0.2,0.2c-0.1,0.2-0.1,0.3-0.1,0.5h0.4c0.1,0,0.3-0.1,0.3-0.1
	c0,0,0.2,0,0.2,0c0,0,0.2,0.2,0.2,0.2v0.8c0.1,0,0.1-0.1,0.1-0.1c0.1-0.2,0.3-0.3,0.4-0.5c-0.1-0.3-0.3-0.6-0.5-0.8c0,0-0.3,0-0.4,0
	c0,0-0.1-0.1-0.1-0.1c0,0,0-0.2,0-0.2c0,0,0.1-0.1,0.1-0.1c0,0,0.2,0,0.3,0c0.1,0,0.2-0.2,0.2-0.2c0,0,0.1,0,0.2,0l0.5-0.5
	c0.1-0.1,0.3-0.1,0.4,0c0.1,0,0.2,0.1,0.3,0.2c0,0,0.1,0,0.2,0c0.1-0.1,0.2-0.2,0.2-0.3c0.1-0.4,0.4-0.6,0.5-1l0.8-0.8
	c0,0,0-0.1,0-0.2c0-0.1,0.1-0.1,0.2-0.2c0,0,0.1,0,0.2,0c0,0.1,0.2,0.2,0.1,0.3c0,0.1-0.2,0.1-0.3,0.2c-0.1,0.1-0.1,0.3-0.2,0.4
	l-0.4,0.5c-0.2,0.3-0.5,0.6-0.7,0.9c-0.1,0.5-0.3,0.9-0.5,1.3V24c0,0.1,0.1,0.1,0.2,0.2c0,0,0.2,0,0.3,0l0.4-0.4
	c0.1-0.1,0.3-0.1,0.5,0c0,0,0.3-0.1,0.3-0.1c0,0,0.2-0.2,0.2-0.2c0-0.1,0-0.3,0-0.3c0.2-0.2,0.3-0.4,0.4-0.7c0-0.1,0-0.3,0-0.3
	c0-0.1,0.1-0.3,0.2-0.4c0,0,0.2,0,0.2,0c0,0,0.1,0.1,0.1,0.1c0,0.1,0,0.2,0,0.3l0.2,0.5c0,0.2,0.1,0.4,0.2,0.5c0,0,0.2,0,0.2,0
	c0.1,0,0.2-0.2,0.3-0.2c0,0,0.2,0,0.2,0c0,0,0.1,0.1,0.1,0.1c0,0.1,0,0.3,0,0.4c-0.2,0.2-0.4,0.2-0.6,0.4c0,0.2,0.1,0.4,0.3,0.5
	c0.1,0.1,0.2,0.1,0.3,0c0.1,0,0.3-0.1,0.4-0.2c0,0,0.2-0.2,0.2-0.2c0,0,0-0.2,0-0.2l0.2-0.4c0,0,0-0.2,0-0.3c0-0.1,0.2-0.2,0.2-0.3
	s0.1-0.3,0.1-0.3c0-0.1,0-0.3,0-0.3c0.1-0.3,0.2-0.6,0.3-0.9c0-0.1,0.2-0.2,0.2-0.3l0.1-0.5c0,0,0.2-0.2,0.2-0.2
	c0.1-0.4,0.3-0.6,0.4-0.8c0.2-0.5,0.3-1,0.5-1.4c0-0.1,0.1-0.2,0.2-0.2h0.5c0,0.2-0.2,0.4-0.3,0.5L52.9,19c-0.3,0.2-0.5,0.5-0.6,0.9
	c0,0.1,0.2,0.2,0.2,0.3c-0.1,0.3-0.1,0.6-0.2,0.9c-0.2,0.1-0.3,0.2-0.4,0.4c-0.6,0.8-1,1.8-1.4,2.8l0,0.9c0.1,0.2,0.1,0.5,0.2,0.7
	c0.1,0.1,0.1,0.1,0.2,0.1c0.3-0.1,0.5-0.2,0.8-0.2c0.1,0,0.2-0.1,0.3-0.2c0,0,0-0.2,0-0.2c0.1-0.3,0.4-0.6,0.6-0.9
	c0-0.1,0.1-0.1,0.2,0c0,0,0.1,0.1,0.2,0.1c0,0,0.1,0,0.2,0c0.1,0,0.1,0.1,0.2,0.2c0,0,0,0.1,0,0.1c-0.2,0.2-0.3,0.5-0.5,0.7
	c-0.3,0.1-0.5,0.3-0.5,0.6c-0.1,0.2-0.2,0.3-0.2,0.4c0,0,0.1,0.1,0.1,0.1c0.2,0,0.4-0.1,0.7,0c0,0,0.1,0.1,0.1,0.1c0,0,0,0.2,0,0.2
	c0,0-0.1,0.2-0.1,0.2c-0.1,0-0.3,0-0.4,0v0.4c0,0.1,0.1,0.3,0.1,0.3c0.1,0.1,0.3,0.3,0.4,0.4c0.1,0,0.1,0.3,0.2,0.3
	c0.3,0.3,0.6,0.5,0.9,0.8c0.1,0.1,0.1-0.1,0.2-0.1c0,0,0.2,0,0.2,0c0.3-0.1,0.6-0.3,0.8-0.5C55.6,28.6,55.7,28.4,55.9,28.4z
	 M36,30.7c0,0-0.2,0.1-0.2,0.1c0,0.1,0,0.3,0,0.4c0,0.1-0.1,0.2-0.2,0.3c0,0-0.1,0-0.1,0c-0.2-0.2-0.5-0.3-0.6-0.5c0,0-0.2,0-0.2,0
	l-0.5,0.4l-0.5,0c-0.2,0-0.5,0.1-0.6,0.2v1.6c0,0.1,0.1,0.3,0.1,0.3c0.2,0.2,0.4,0.4,0.6,0.5v0.6c0,0.1-0.2,0.2-0.3,0.3
	c-0.1,0.1-0.3,0.1-0.3,0.2c0,0,0,0.1,0,0.2c0,0.1-0.1,0.1-0.2,0.1c0,0-0.2,0-0.2,0c-0.1,0-0.1,0.1-0.1,0.2c0,0.4,0,0.6,0,1
	c0.1,0.2,0.1,0.4,0.3,0.5c0,0,0.3,0,0.3,0c0,0,0,0.2,0,0.2c-0.1,0.1-0.2,0.3-0.3,0.5c0,0,0,0.2,0,0.3l-0.2,0.4c0,0.2,0,0.4,0,0.6
	c0.3,0.1,0.6,0.2,1,0.2c0.3-0.1,0.6,0,1,0c0.1,0,0.2-0.1,0.3-0.2c0,0,0-0.3,0-0.3c-0.2,0-0.4,0-0.6-0.1c-0.2,0-0.3,0.1-0.5,0.1
	c0,0-0.2-0.1-0.2-0.2c0,0,0-0.2,0-0.2l0.3-0.3c0,0,0-0.3,0-0.3c0-0.1-0.2-0.2-0.3-0.2c0,0,0-0.1,0-0.2c0,0,0.1-0.1,0.1-0.1
	c0,0,0.2,0,0.2,0c0,0,0.1,0.1,0.1,0.1c0,0,0,0.2,0,0.2c0.1,0,0.3,0,0.3,0l0.4,0.2c0.1,0,0.3,0,0.3,0c0.3,0.1,0.5,0.2,0.8,0.3h0.5
	c0.1,0,0.2-0.1,0.1-0.2c0,0-0.2-0.2-0.2-0.2c-0.2-0.1-0.4-0.2-0.6-0.2c0,0-0.2-0.2-0.2-0.2c0,0-0.1,0-0.2,0c0,0-0.2-0.1-0.2-0.2
	c0-0.1-0.1-0.3-0.1-0.3c0-0.1,0-0.3,0-0.3c0,0,0.2,0,0.2,0c0.1,0,0.1,0.2,0.2,0.3c0.2,0.1,0.4,0.2,0.7,0.3c0.1,0,0.2-0.1,0.2-0.2
	c0.1-0.2,0.1-0.5,0.1-0.8c0-0.1,0.1-0.2,0.2-0.2l0.6-0.1c0.1,0,0.3,0,0.4,0.1c0,0,0.1-0.1,0.1-0.1c0,0,0-0.1,0-0.2
	c-0.1-0.1-0.2-0.1-0.3-0.2c0,0-0.2,0-0.2,0L37,35.7c-0.2-0.1-0.3-0.1-0.5-0.2c0,0-0.2,0-0.3,0c0,0-0.2-0.1-0.2-0.2
	c0-0.1-0.1-0.3-0.2-0.4c0-0.1-0.2-0.1-0.2-0.1c-0.1-0.1-0.2-0.1-0.1-0.2c0.1-0.2,0.4-0.3,0.5-0.5c0-0.2-0.1-0.4,0-0.6
	c0.2-0.1,0.4-0.1,0.5-0.2c0,0,0-0.3,0-0.4c-0.1,0-0.3,0-0.3,0c-0.1,0-0.3,0.2-0.4,0.2c-0.2,0-0.5,0.2-0.5,0.4l0,0.5
	c-0.2,0.2-0.5,0.4-0.9,0.3c-0.1-0.2-0.1-0.4-0.2-0.5c-0.1,0.1-0.2,0-0.3,0c0.1-0.1,0.3-0.2,0.4-0.3c0-0.1,0-0.3,0-0.4
	c0-0.1-0.3-0.3-0.3-0.3v-0.6c0.1,0,0.2,0.1,0.3,0.1c0.1,0,0.3,0,0.4,0c0-0.1,0-0.2,0.1-0.3c0.1-0.2,0.2-0.4,0.5-0.3
	c0,0,0.1,0.1,0.1,0.1c0,0,0,0.2,0,0.3c-0.1,0.1-0.2,0.2-0.2,0.3c0,0,0,0.1,0.1,0.1c0.3,0,0.4-0.1,0.6-0.1h0.6c0.1,0,0.3-0.1,0.3-0.1
	c-0.1-0.1-0.1-0.1-0.1-0.2h0.2c0.1,0.1,0.1,0.3,0.2,0.3h1.2c0.1,0,0.2-0.1,0.3-0.2c0-0.1,0-0.2-0.1-0.2c-0.3-0.2-0.6-0.2-1.1-0.2
	c-0.2-0.2-0.5-0.5-0.7-0.8C36.5,30.7,36.2,30.7,36,30.7z M43.3,25.6c-0.1,0-0.3,0.1-0.3,0.1h-0.6c-0.1,0.1-0.2,0.3-0.4,0.4
	c-0.1,0-0.3,0-0.3,0c0,0,0,0.2,0,0.2c-0.1,0.1-0.2,0.2-0.3,0.2c-0.3-0.1-0.6,0.1-0.8,0.3c0,0,0,0.2,0,0.2c-0.1,0.1-0.3,0.3-0.4,0.4
	c-0.1,0.1-0.2,0.2-0.1,0.3c0.2,0.1,0.3,0.4,0.4,0.6v1.3c0,0.1-0.1,0.1-0.2,0.2c-0.2,0-0.4,0-0.6,0.1c-0.1,0-0.2-0.1-0.3-0.1
	c0,0,0-0.3,0-0.3h-0.3c0,0.1,0,0.2,0,0.3c0,0,0.1,0.2,0.1,0.3c-0.3,0.1-0.6,0.3-0.7,0.7c0,0,0,0.2,0,0.2c0,0.1-0.2,0.2-0.3,0.3
	c0,0,0,0.1,0,0.2c0,0.1,0.1,0.2,0.2,0.2H39c0.1,0,0.2-0.2,0.2-0.3c0-0.1-0.1-0.2,0-0.4c0-0.1,0.1-0.1,0.1,0c0,0,0.1,0.1,0.1,0.1
	c0,0,0,0.2,0,0.3c0,0.1,0.1,0.2,0.2,0.1c0.4,0,0.6,0.1,0.9,0.1c0.1,0,0.2-0.1,0.2-0.2c-0.1-0.5,0.1-0.7,0.3-1c0.4,0,0.7-0.2,0.9-0.3
	h0.7c0-0.2,0.1-0.4,0.2-0.5c0,0,0.1,0,0.1,0c0,0,0.2,0.1,0.2,0.2l0.2,0.5c0,0,0,0.2,0,0.2c0,0,0.1,0.1,0.1,0.1
	c0.2,0,0.4-0.1,0.5-0.2v-0.7c0-0.1,0.2-0.3,0.2-0.4c0-0.1-0.2-0.2-0.2-0.4c0,0,0.1-0.1,0.1-0.1c0.2,0,0.3,0.1,0.5,0.1
	c0-0.1,0-0.3,0-0.4c0-0.1,0.1-0.3,0.1-0.3c0.2-0.2,0.3-0.5,0.5-0.8c0,0,0-0.3,0-0.4c0-0.1,0.1-0.3,0.1-0.4c0-0.1-0.1-0.2-0.2-0.2
	c-0.1,0-0.2-0.1-0.3-0.2c-0.3,0-0.5,0.1-0.7,0.1c-0.1,0-0.2,0-0.2-0.1c0,0,0-0.1,0-0.2c0,0,0.2-0.1,0.2-0.2c0,0,0-0.2,0-0.2
	c0,0-0.1-0.1-0.1-0.1C43.7,25.5,43.5,25.6,43.3,25.6z M49.8,48.2c0.1-0.1,0.3-0.1,0.5-0.1v0.7c0,0-0.2,0-0.2,0
	c-0.1,0-0.2,0.1-0.2,0.2c0.1,0.3,0.3,0.5,0.4,0.7v0.5c0.1,0.2,0.3,0.3,0.4,0.3c0.1,0.2,0.2,0.4,0.3,0.5c0.1,0.1,0.2-0.1,0.2-0.1
	c0.1-0.1,0.1-0.2,0.2-0.3c0,0,0.2,0,0.2,0c0.3,0.2,0.5,0.4,0.7,0.5c0.2,0.1,0.4,0.1,0.5,0.2c0,0.2-0.1,0.3-0.1,0.5
	c0.1,0.2,0.3,0.3,0.5,0.2c0.1-0.1,0.2-0.2,0.1-0.4c0-0.1-0.1-0.2-0.1-0.4c0.1,0,0.3,0,0.4,0c0.1,0,0.3-0.1,0.4-0.2c0,0,0,0.2,0,0.2
	c0,0.1-0.2,0.2-0.2,0.3c0,0.2,0.1,0.5,0.1,0.7l-0.4,0.4v0.6c0,0.1,0.3,0.2,0.3,0.3l0.1,1.5c0,0.1,0.2,0.2,0.2,0.3
	c0.3,0.5,0.4,1.1,0.6,1.6c0.2,0.3,0.3,0.5,0.3,0.9l0,0.4c0,0.1-0.1,0.3-0.2,0.3c0,0-0.2,0.1-0.2,0.1c-0.3-0.1-0.6-0.3-0.8-0.4
	c-0.3-0.2-0.5-0.4-0.7-0.7c0-0.2-0.1-0.3-0.2-0.5c-0.1-0.1-0.2-0.1-0.2-0.1c0-0.1-0.1-0.3-0.1-0.3c-0.1-0.6-0.4-1.1-0.5-1.7
	c0-0.3,0.2-0.5,0.5-0.5c0.2-0.1,0.3-0.3,0.3-0.6h-0.6c-0.1,0-0.3,0.1-0.3,0.1c-0.2-0.1-0.3-0.2-0.5-0.2c-0.1,0-0.2-0.2-0.2-0.2
	c-0.1-0.4-0.3-0.6-0.3-0.9L50.8,52c0-0.1-0.1-0.2-0.2-0.3c0,0-0.2,0-0.2,0c-0.1,0-0.3-0.1-0.4-0.2c-0.1-0.1-0.1-0.3-0.1-0.3
	l-0.1-0.5c0-0.2,0.1-0.4,0.1-0.6c0,0-0.2-0.2-0.2-0.2v-0.4c0-0.1-0.2-0.2-0.2-0.3c0,0,0-0.2,0-0.2l0.3-0.4
	C49.7,48.5,49.7,48.3,49.8,48.2z M77.7,23.9c0.1,0,0.2,0,0.3,0c0.2,0.1,0.4,0.2,0.7,0.2c0.1,0,0.2,0.2,0.3,0.2
	c0.2,0.1,0.3,0.1,0.5,0.2c0.1,0.1,0.2,0.2,0.2,0.3c0.1,0.2,0.1,0.3,0.1,0.5c0,0.1,0.2,0.2,0.2,0.2c0,0.2,0.1,0.5,0.2,0.7v0.5
	c0,0.1-0.1,0.4-0.1,0.4c-0.2,0.2-0.2,0.4-0.3,0.6c-0.3,0.2-0.4,0.3-0.7,0.4c-0.4,0-0.6,0.1-0.9,0.1c-0.3-0.2-0.6-0.4-0.9-0.5
	c-0.2-0.1-0.4-0.1-0.5-0.2L76.5,27c-0.2-0.1-0.4-0.3-0.6-0.4c-0.1-0.1-0.2-0.3-0.2-0.3v-0.6c-0.1-0.1-0.3-0.3-0.2-0.5
	c0-0.1,0.3-0.1,0.3-0.2c0,0,0-0.1,0-0.2c0.1-0.2,0.4-0.3,0.6-0.5c0,0,0.2-0.1,0.3-0.1c0.1,0,0.3,0,0.3,0L77.7,23.9z M60.2,7.1
	c0,0,0.2,0,0.2,0c0,0,0.1,0.1,0.1,0.1c0,0.1,0,0.3,0,0.4c0.2,0.2,0.4,0.3,0.7,0.3c0.1,0.1,0.2,0.2,0.3,0.3c0,0,0,0.3,0,0.3
	c-0.1,0.4-0.2,0.7-0.4,0.9l0.1,0.5l0.6,0.6c0.2,0,0.3,0.2,0.4,0.3c0,0,0,0.1,0,0.1c-0.1,0.1-0.2,0.3-0.2,0.3l-0.9,0
	c-0.3,0-0.5,0.2-0.6,0.4c0,0.1-0.2,0.1-0.3,0.1c-0.1,0-0.2-0.1-0.2-0.1v-0.5c0-0.1,0.2-0.2,0.3-0.3c0,0,0-0.1,0-0.1
	c-0.1-0.1-0.2-0.1-0.3-0.2c0,0-0.2,0-0.3,0c0-0.1,0-0.2,0-0.3c0-0.2-0.1-0.3-0.3-0.4c-0.1,0-0.2-0.2-0.3-0.2c0,0-0.1,0-0.2,0
	c-0.1,0-0.1,0.1-0.2,0.2c-0.1,0.3-0.2,0.5-0.2,0.8c-0.2,0.2-0.3,0.3-0.4,0.5c0,0,0,0.2,0,0.2L57.7,12c0,0-0.2,0-0.2,0
	c-0.2,0.1-0.4,0.1-0.5,0.3c0,0-0.1,0-0.2,0c-0.1,0-0.1-0.1-0.2-0.2c0-0.1,0-0.2,0-0.3c0.1-0.2,0.1-0.4,0.3-0.5c0,0,0-0.2,0-0.2
	l0.3-0.7c0-0.1,0.3-0.2,0.3-0.3c0.1-0.2,0.2-0.4,0.3-0.5c0.1-0.1,0.2-0.1,0.2-0.2c0.1-0.2,0.2-0.4,0.3-0.5c0,0,0-0.3,0-0.4
	c0-0.1-0.1-0.3-0.2-0.4C58.1,8.1,58,8,57.8,7.8c-0.1-0.1,0.1-0.2,0.1-0.2h0.6c0.2-0.1,0.4-0.2,0.6-0.4c0.2,0,0.4,0.1,0.7,0
	C60,7.4,60.1,7.2,60.2,7.1z M33.7,42.8c-0.1,0.1-0.2,0.1-0.2,0.2c0.2,0.2,0.3,0.5,0.5,0.6c0.2,0,0.4,0.1,0.6,0.2
	c0.2-0.1,0.4-0.1,0.5,0l0.4,0.4c0,0,0.1,0,0.2,0c0.1,0,0.2,0.1,0.2,0.2v0.9c0,0.1-0.1,0.1-0.2,0.2c-0.1,0-0.3,0-0.3,0V45
	c0-0.1-0.1-0.3-0.1-0.3c-0.1-0.1-0.1-0.2-0.2-0.1c-0.1,0-0.2,0.2-0.2,0.2v0.9c-0.2,0-0.4,0-0.6,0c-0.1,0-0.3,0.2-0.3,0.3
	c0.1,0.2,0.2,0.3,0.4,0.3l1.2,0l0.4,0.2c0,0,0.2,0,0.2,0c0.1-0.1,0.3-0.2,0.3-0.4c0.4,0.1,0.7,0.1,1,0.2l0.1-0.2
	c0.1,0.1,0.1,0.3,0.2,0.4c0.2,0,0.3-0.1,0.4-0.2c0.1-0.2,0.1-0.4,0.1-0.7c0-0.1,0.2-0.3,0.1-0.3c0-0.1-0.1-0.3-0.1-0.5
	c0.6,0.1,1.1,0.1,1.4,0.4c0.1-0.1,0.2-0.2,0.2-0.3c0,0,0-0.2,0-0.2c0-0.1-0.2-0.2-0.2-0.3c0,0,0-0.2,0-0.3c0.1-0.1,0.2-0.2,0.3-0.3
	c0,0,0.3,0,0.3,0v0.6c0.1,0,0.2,0,0.2-0.1v-0.6c0,0-0.1-0.2-0.1-0.2c-0.1-0.1-0.2-0.1-0.4-0.2c0,0-0.2,0.1-0.3,0.1
	c-0.1,0-0.3-0.1-0.3-0.1c-0.1,0-0.3,0-0.4,0c-0.1-0.1-0.1-0.3-0.2-0.3c-0.2,0-0.3,0-0.5,0.1c-0.1,0-0.3-0.1-0.4-0.2
	c-0.1-0.1-0.3-0.2-0.5-0.2c0,0-0.2,0.1-0.2,0.1v0.4c0.1,0.1,0.2,0.3,0.3,0.5c0,0,0,0.1,0,0.2c-0.1,0.1-0.3,0.2-0.4,0.3
	c0,0-0.1,0-0.2,0l-0.4-0.3c-0.4-0.3-0.8-0.7-1.5-0.7L34.7,43c0,0-0.2,0-0.3,0c-0.1,0.1-0.2,0.2-0.3,0.2c0,0-0.1,0-0.1-0.1
	c0-0.1,0.1-0.2,0-0.3c0,0-0.1-0.1-0.1-0.1C33.9,42.7,33.7,42.7,33.7,42.8z M72.7,67.4c0,0,0.1-0.1,0.1-0.1c0.6,0,1.1,0.2,1.8,0.2
	l0.5,0.2l0.6,0.6c0,0,0.1,0.3,0.1,0.3c0,0.3,0.1,0.5,0.1,0.7c-0.1,0.2-0.1,0.4-0.1,0.7c0,0.3-0.3,0.4-0.5,0.5
	c-0.2,0-0.4,0.2-0.4,0.4c-0.2,0-0.4,0-0.6,0.1c0,0-0.3-0.1-0.3-0.1l-0.5,0c-0.2,0-0.5-0.1-0.7-0.2c-0.1-0.2-0.3-0.4-0.4-0.6
	c-0.1-0.3-0.2-0.7-0.3-1l0.4-1.1c0-0.1,0-0.2,0-0.3C72.6,67.6,72.7,67.4,72.7,67.4z M64.5,66.8c0.3,0,0.5-0.1,0.7-0.1
	c0,0,0.2,0.2,0.2,0.2c0.2,0,0.3,0.1,0.5,0.1l0.7-0.2h0.6c0.1,0.1,0.3,0.2,0.5,0.2c0,0,0.2,0.2,0.2,0.2l-0.4,0.9
	c0,0.1-0.2,0.2-0.2,0.3c0,0.2,0,0.4-0.1,0.6c0,0.2,0.1,0.3,0.1,0.5c0,0.1-0.1,0.2-0.2,0.3c0,0-0.1,0-0.2,0c0,0-0.1,0.2-0.2,0.1
	c-0.4-0.1-1,0-1.4,0.1c0,0-0.1,0-0.1,0c-0.3-0.1-0.6-0.3-0.8-0.6c-0.1-0.1-0.1-0.3-0.2-0.3c0-0.1,0-0.2,0-0.3L64,67.4
	c0-0.1,0.1-0.3,0.2-0.4C64.3,67,64.4,66.8,64.5,66.8z M38.6,63.3c0-0.1,0.2-0.1,0.2,0c0,0,0.2,0.2,0.2,0.2v0.9
	c0.1,0.2,0.1,0.4,0.2,0.7c0,0,0.1,0.1,0.1,0.1c0.1,0,0.3,0,0.4-0.1c0.3-0.1,0.6-0.2,0.9-0.2c0.2,0,0.4,0.1,0.4,0.3
	c0.2,0.1,0.5,0.1,0.7,0.3c-0.1,0.4-0.1,1-0.2,1.5c-0.2,0.1-0.4,0.2-0.5,0.4c0,0,0,0.1,0,0.2c0,0-0.1,0.1-0.1,0.2c0,0,0,0.2,0,0.2
	c0,0,0.2,0.1,0.1,0.2c0,0.4-0.1,0.7-0.1,1.1c0,0.1-0.1,0.3-0.2,0.3c0,0-0.1,0-0.1,0c-0.2-0.3-0.2-0.6-0.4-0.8c0-0.1-0.2-0.2-0.2-0.2
	c0,0,0-0.2,0-0.3c0.2-0.1,0.5-0.3,0.7-0.4c0,0,0-0.1,0-0.1c0-0.1-0.2-0.3-0.3-0.3c-0.1,0-0.3-0.1-0.3-0.1c0,0-0.2,0-0.2,0
	c-0.1,0.1-0.2,0.2-0.2,0.4c-0.2,0.1-0.3,0.2-0.4,0.3c-0.3,0-0.5-0.3-0.5-0.6c-0.1-0.3-0.2-0.6-0.3-0.8c-0.1-0.3-0.1-0.7-0.1-1
	c-0.2-0.2-0.3-0.4-0.3-0.7c0-0.1-0.1-0.1-0.1-0.2c0,0-0.2,0-0.2,0c-0.1,0-0.1-0.1-0.2-0.2c0,0,0-0.2,0-0.2c0.1-0.1,0.2-0.2,0.4-0.1
	c0,0,0.3,0,0.3,0c0.1,0,0.2-0.1,0.2-0.1v-0.5C38.5,63.5,38.6,63.3,38.6,63.3z M49.4,36c-0.1,0.1-0.2,0.2-0.3,0.3v0.5
	c-0.1,0.2-0.2,0.3-0.3,0.5c0,0-0.2,0-0.2,0.1c-0.2,0.1-0.3,0.2-0.5,0.3c-0.1,0-0.1,0.1-0.1,0.2c0,0.3,0.1,0.4,0.3,0.6
	c0,0,0.1,0,0.2,0c0.1,0.1,0.2,0.3,0.3,0.5c-0.2,0.2-0.4,0.3-0.6,0.6c0,0.2,0.1,0.5,0.1,0.8c0,0,0.1,0.1,0.1,0.2
	c0.1,0.1,0.2,0.2,0.2,0.4c-0.2,0.1-0.3,0.2-0.4,0.3c0,0,0.1,0.2,0.2,0.2c0.2,0,0.4-0.1,0.6-0.1c0.5-0.1,0.9-0.3,1-0.8V40
	c0,0-0.1-0.2-0.1-0.2c-0.1-0.1-0.2-0.1-0.3-0.2c0,0,0-0.2,0-0.2c0-0.1,0.1-0.3,0.2-0.3c0.2-0.1,0.3-0.2,0.4-0.3c0,0,0-0.2,0-0.2
	c0-0.1,0.2-0.2,0.3-0.2c0,0,0.2,0,0.2,0c0,0,0.1-0.1,0.2-0.1c0.1,0,0.1-0.1,0.2,0c0,0.1,0,0.3,0,0.4c0,0-0.1,0.1-0.1,0.1
	c0,0,0.2,0,0.2,0c0.1,0,0.2-0.2,0.3-0.2c-0.1-0.1-0.3-0.1-0.3-0.2c0-0.2,0-0.4,0-0.6c0-0.4-0.1-0.7-0.3-0.9c0,0,0-0.2,0-0.2
	c0-0.1-0.2-0.2-0.3-0.2h-0.7C49.7,35.9,49.4,36,49.4,36z M15.1,45.7c0.4,0,0.7-0.1,1-0.1c0,0,0.1,0.1,0.1,0.1c0,0.1-0.2,0.2-0.1,0.4
	c0,0,0.1,0.1,0.1,0.2c0,0.1,0.1,0.2,0.1,0.3c0,0.3-0.1,0.5-0.2,0.7c0,0.1-0.2,0.2-0.2,0.3V48c0,0,0.2,0.2,0.2,0.2
	c0,0.1,0.1,0.3,0.1,0.4v0.5c0,0.1-0.2,0.3-0.3,0.3c-0.1,0-0.2,0.1-0.3,0.1c-0.1,0-0.3,0-0.4,0l-0.5-0.2c0,0-0.1-0.1-0.1-0.1
	c0-0.3-0.1-0.5-0.1-0.8l0.3-0.4c0-0.2-0.1-0.3-0.2-0.4c0,0-0.1,0-0.1,0c-0.1-0.1-0.2-0.1-0.2-0.2c0-0.4-0.1-0.7-0.1-1l0.5-0.5
	C14.7,45.8,14.9,45.7,15.1,45.7z M75.9,8C76.1,7.8,76,8.1,76,8.2c-0.4,0.5-0.9,1-1.4,1.5l-0.4,0.6c-0.2,0.1-0.4,0.3-0.5,0.4
	c-0.3,0-0.6,0.1-0.9,0.3c-0.1,0.2-0.3,0.4-0.5,0.6c-0.1,0-0.3,0.1-0.3,0.1h-0.4c0,0.1,0,0.3,0,0.3c0,0.1,0.1,0.1,0.2,0.2
	c0.1,0,0.2,0.1,0.4,0.1c0.1,0,0.2-0.1,0.3-0.1c0,0.1,0,0.3,0,0.3c-0.2,0.2-0.4,0.3-0.8,0.2c-0.2-0.1-0.2-0.3-0.4-0.5
	c-0.2-0.1-0.3-0.1-0.4-0.2c0-0.1,0.1-0.3,0.2-0.4l0.3-0.3c0,0,0-0.3,0-0.3c0.2-0.2,0.5-0.3,0.7-0.5h0.5c0.1-0.1,0.2-0.2,0.2-0.4
	c0,0-0.2-0.2-0.2-0.2c-0.2,0-0.4,0.1-0.7,0.1c0-0.1,0-0.2,0.1-0.2c0.1,0,0.3-0.1,0.4-0.2c0.1-0.2,0.4-0.3,0.6-0.4
	c0.3-0.2,0.7-0.4,1.1-0.4c0,0,0.1,0,0.2,0c0.1,0,0.1,0.1,0.2,0.2c0,0,0,0.2,0,0.2c0.1,0,0.3,0,0.3,0l0.9-0.9
	C75.6,8.1,75.8,8.1,75.9,8z M65.5,59.7c-0.1,0-0.2-0.2-0.2-0.3c0-0.1-0.2-0.2-0.2-0.2c-0.2,0-0.4-0.1-0.5-0.3
	c-0.2-0.1-0.3-0.2-0.4-0.4c-0.1-0.2-0.1-0.4-0.2-0.5c0,0-0.2-0.1-0.3-0.1L63,57.3c0,0,0-0.2,0-0.2c-0.2-0.3-0.3-0.6-0.4-0.9
	c-0.3-0.5-0.5-1-0.8-1.4l0.1-0.1c0.1,0,0.2,0.1,0.3,0.1l0.9,0.9c0.2,0.2,0.3,0.4,0.4,0.6c0.1,0.3,0.1,0.7,0.3,1.1
	c0.1,0.1,0.1,0.1,0.2,0.1c0.2,0,0.1-0.2,0.2-0.3c0.1-0.1,0.3-0.2,0.3-0.2h0.6l0.4,0.3c0.1,0.1,0.3,0.1,0.4,0.2
	c0.1,0,0.2,0.3,0.2,0.3v0.7c-0.1,0.1-0.2,0.2-0.3,0.4c0,0-0.1,0-0.2,0c-0.1,0-0.2,0.1-0.2,0.2V59.7L65.5,59.7z M23.2,59.4h0.5
	c0.1,0,0.3,0.1,0.3,0.1c0.1,0,0.3,0.2,0.3,0.3v0.4l-0.3,0.4c-0.1,0.1,0.1,0.2,0.1,0.3c0,0.1,0.1,0.2,0.1,0.2h1.1
	c0.1,0.1,0.2,0.2,0.4,0.3c0,0,0,0.3,0,0.4l-0.4,0.4h-0.4c-0.2-0.2-0.4-0.2-0.6-0.4c0,0,0-0.1,0-0.2c0-0.1-0.1-0.2-0.2-0.2h-0.6
	c-0.1,0-0.2,0.2-0.3,0.2c-0.1,0-0.3-0.1-0.4-0.2l-0.4-0.4L21.1,61c-0.1-0.1-0.2-0.3-0.2-0.4c0.1-0.3,0.3-0.5,0.6-0.6
	c0.2,0.1,0.4,0.1,0.5,0.2c0.1,0.2,0.2,0.3,0.3,0.4c0,0,0.2,0,0.2,0c0.1-0.1,0.2-0.1,0.2-0.2c0.1-0.2,0-0.3,0-0.4
	c0-0.1,0.1-0.2,0.1-0.2C23,59.6,23.1,59.4,23.2,59.4z M38.5,59.5c0,0,0.2,0,0.2,0c0.1,0,0.3,0.2,0.3,0.3l-0.1,3.1c0,0-0.2,0-0.2,0
	c-0.1,0-0.2-0.1-0.2-0.2c0-0.2,0.1-0.4,0.1-0.7c-0.1,0-0.2,0-0.2,0.1c-0.1,0.1-0.1,0.2-0.1,0.2l-0.8,0.3c-0.2,0.1-0.2,0.3-0.4,0.5
	c0,0,0,0.3,0,0.3c-0.1,0.1-0.2,0.2-0.3,0.2c-0.1,0-0.3,0-0.3,0c-0.2-0.1-0.5-0.1-0.7-0.2c-0.1-0.1-0.1-0.2-0.2-0.4
	c-0.1-0.3,0.1-0.6,0.4-0.6l0.7,0c0.1,0,0.1-0.1,0.2-0.2l0.1-0.5l0.3-0.3c0.4-0.1,0.7-0.1,1,0c0.1-0.1,0.2-0.3,0.2-0.4
	c-0.1-0.3-0.1-0.6-0.2-0.9c0-0.2,0.1-0.3,0.2-0.5C38.3,59.6,38.4,59.5,38.5,59.5z M53,14.4h0.7c0.1,0.1,0.3,0.2,0.5,0.3
	c0,0,0.2,0,0.3,0c0.1,0,0.3,0.1,0.3,0.2c0.2,0.2,0.4,0.3,0.6,0.5v0.7c-0.1,0.1-0.2,0.3-0.4,0.3c-0.1,0.1-0.1,0.2-0.1,0.3
	c0,0,0.1,0.1,0.1,0.1c0,0-0.2,0.1-0.2,0.1l-0.5,0.5c-0.1,0.1-0.2,0.1-0.4,0.1c-0.1,0-0.3,0-0.3-0.1c-0.1-0.2-0.3-0.4-0.3-0.7
	c-0.1-0.3-0.1-0.6-0.1-1c0-0.1,0.1-0.2,0-0.3c0,0-0.2-0.2-0.2-0.2c-0.2,0-0.4-0.1-0.5-0.3c0-0.1-0.1-0.2,0-0.2L53,14.4z M40.6,31.5
	c-0.1,0-0.3,0.1-0.3,0.2c-0.1,0.2-0.1,0.5-0.2,0.8c-0.1,0.1-0.2,0.2-0.4,0.4c0,0-0.2,0-0.2,0v-0.2c0.1-0.1,0.3-0.1,0.3-0.2l0.1-0.4
	c-0.1-0.1-0.3-0.2-0.4-0.3c-0.1-0.1-0.2-0.1-0.4-0.1c-0.1,0-0.2,0.1-0.2,0.2c0,0,0,0.1,0,0.2c0.1,0.1,0.2,0.1,0.3,0.2
	c0,0,0,0.2,0,0.3c0,0.1-0.2,0.2-0.3,0.2c-0.3,0-0.6,0.1-0.8,0.3l-0.6,0.6c0,0,0,0.1,0,0.2c0.2,0.1,0.3,0.2,0.4,0.3
	c0.1,0.1,0.3,0.2,0.4,0.2c0.2,0,0.4,0,0.3-0.1c0-0.2-0.2-0.4-0.5-0.4c0-0.1,0-0.3,0-0.3c0.1-0.1,0.2-0.2,0.3-0.2h0.9
	c0,0,0,0.2,0,0.2c0,0-0.1,0.1-0.1,0.2c0,0,0,0.2,0,0.2c0.1,0.1,0.2,0.1,0.3,0.1c0.2,0.1,0.5,0,0.8,0.1c0-0.1,0-0.2,0-0.2
	c-0.1-0.1-0.1-0.3-0.2-0.4c0-0.1,0-0.2,0-0.2l0.4,0.4c0.2,0.1,0.5,0.2,0.8,0.2c0.1,0,0.2,0,0.2,0c-0.2-0.1-0.4-0.1-0.5-0.2
	c-0.1-0.1,0-0.3,0.1-0.4c0-0.1,0.2-0.3,0.3-0.3c0.1,0,0.3,0,0.3,0c0.1,0,0.2-0.1,0.1-0.2l-0.2-0.5c0-0.1,0-0.3,0-0.4
	c0-0.1-0.1-0.1-0.2-0.1C41.2,31.4,40.9,31.4,40.6,31.5z M35.1,39.5c-0.3,0.2-0.7,0.4-1,0.6c-0.1,0-0.1,0.2-0.2,0.2l-0.7,0.4l-1.2,0
	c0.1,0.1,0.3,0.3,0.3,0.3l0.6,0.4l0.4,0.4l0.5,0.2c0.1,0.1,0.2,0.2,0.3,0.3c0.1,0,0.3,0.2,0.3,0.1c0.2-0.1,0.3-0.1,0.6-0.1
	c0.1,0,0.2,0.2,0.4,0.2c0.1,0,0.2-0.1,0.3,0l0.7,0.3c0,0,0.1,0,0.1,0c0-0.1,0-0.3,0-0.3c-0.1-0.1-0.2-0.1-0.4-0.2
	c-0.1,0-0.2-0.2-0.3-0.3c-0.1,0-0.3-0.1-0.3-0.1l-0.4,0c-0.2,0-0.4-0.1-0.6-0.2c0.1,0,0.2-0.1,0.3-0.1c0.3,0,0.5-0.1,0.6-0.2
	c0,0,0-0.3,0-0.3h-0.8c0-0.1,0-0.1,0-0.2c0.1-0.2,0.3-0.2,0.5-0.3c0-0.3,0.1-0.5,0.3-0.7c0,0,0-0.2,0-0.2
	C35.5,39.5,35.2,39.4,35.1,39.5z M78.7,75.9c0,0-0.2,0-0.2,0l-0.6-0.6c0,0-0.1-0.2-0.1-0.2l-0.8-0.8c0,0-0.1-0.2-0.1-0.2l-0.8-0.8
	l-0.5-0.3c-0.1,0-0.2,0-0.3,0.1c-0.2,0.1-0.3,0.5-0.1,0.6l0.4,0.4c0,0,0.1,0.2,0.1,0.2l0.5,0.5c0,0,0.1,0.2,0.1,0.2l1,1
	c0.1,0.2,0.3,0.4,0.4,0.7l-0.1,0.1c-0.3-0.1-0.4-0.3-0.7-0.4l-1-1c0,0-0.2-0.1-0.2-0.1l-0.7-0.7l-0.3-0.5l-0.1-0.5v-0.7
	c0.2-0.1,0.4-0.2,0.5-0.4c0-0.2-0.1-0.4-0.1-0.7c0.5,0.1,0.9,0.4,1,0.8c0.2,0.4,0.4,0.7,0.6,0.9c0,0,0.2,0,0.2,0l0.4,0.4
	c0,0,0.2,0.1,0.2,0.1l0.5,0.5l0.6,0.8c0.1,0.1,0.2,0.3,0.2,0.4C78.7,75.7,78.7,75.9,78.7,75.9L78.7,75.9z M32,44.9
	c-0.2,0.1-0.3,0.2-0.5,0.2c-0.1,0-0.1,0.1-0.2,0.2c0,0,0,0.1,0,0.2c0,0.1-0.1,0.1-0.2,0.2c0,0-0.1,0-0.2,0c-0.1,0-0.1,0.1-0.1,0.2
	c0,0,0,0.2,0,0.3c0,0.1-0.2,0.2-0.3,0.2c-0.2,0-0.3,0.1-0.5,0.2c0,0.2,0.1,0.3,0.2,0.4c0,0,0,0.3,0,0.3c0,0,0.1,0.1,0.1,0.1
	c0.2,0,0.4-0.1,0.5-0.2c0.3,0,0.5,0.1,0.6,0.3c-0.1,0.2,0,0.4,0.2,0.4c0.1-0.2,0.2-0.5,0.3-0.6l0.5-0.5c0,0,0.1,0,0.2,0
	c0.1-0.1,0.2-0.2,0.3-0.4c0,0,0-0.1,0-0.2c0.1-0.1,0.2-0.3,0.3-0.5c0,0,0-0.2,0-0.2c-0.1-0.2-0.4-0.4-0.7-0.3L32,44.9z M21.3,13.5
	c0.1,0,0.3,0,0.3,0c0.3,0.1,0.7,0.2,0.9,0.3c0.1,0,0.3,0.2,0.3,0.3c0,0.1,0.1,0.3,0.1,0.4l0,0.4c0,0.3-0.2,0.4-0.4,0.4
	c-0.1,0-0.2,0.2-0.2,0.2c-0.1,0-0.3,0.1-0.3,0.1c-0.6,0.1-1.1-0.1-1.5-0.3c0,0-0.1-0.1-0.1-0.1l-0.1-1.4
	C20.6,13.8,21,13.6,21.3,13.5z M39.5,68.1c0,0.1,0.1,0.3,0.1,0.3c0,0.1,0,0.3,0,0.3l0.2,0.4c0,0,0,0.2,0,0.3l-0.2,0.7
	c0,0.1,0,0.3,0,0.5c-0.1-0.3-0.1-0.7-0.1-0.9h-0.2v0.5c0,0.1-0.1,0.3-0.2,0.3c-0.1,0.1-0.2,0-0.2-0.1c0,0,0-0.1,0-0.1
	c0-0.1-0.1-0.1-0.2-0.2c0,0-0.1,0-0.2,0c-0.1,0-0.2,0.2-0.3,0.2c-0.1,0-0.3,0.1-0.4,0.2c-0.1,0-0.2,0.2-0.3,0.2c0,0-0.1,0-0.2,0
	l-0.5-0.4c-0.3,0-0.3-0.3-0.4-0.6l0.1-0.5l0.3-0.6c0.1-0.1,0.2-0.2,0.3-0.1c0.3,0.1,0.6,0.1,0.7,0.2c0.1,0,0.3,0.2,0.3,0.3l0.2,0.7
	c0,0,0.1,0.1,0.2,0.2l0.1-1.4L39.5,68.1z M61.2,68.2c0.3,0,0.6,0.1,0.8,0.2c0.1,0,0.2,0.2,0.2,0.2c0,0,0,0.2,0,0.3L62,69.4v0.7
	c-0.2,0.1-0.2,0.3-0.3,0.5L61.3,71c-0.2,0-0.3,0-0.5,0.1c-0.1,0-0.2,0-0.4-0.1c-0.1,0-0.2-0.1-0.2-0.2c-0.1-0.2-0.2-0.4-0.3-0.5
	v-0.8c0-0.1,0.2-0.3,0.3-0.3c0.2,0,0.3-0.2,0.4-0.3c0,0,0-0.1,0-0.1c0.1-0.1,0.1-0.2,0.2-0.3c0,0,0.1,0,0.2,0
	C61,68.4,61.2,68.2,61.2,68.2z M18.3,31.7c0.1-0.1,0.3-0.1,0.4-0.1c0.3,0.1,0.6,0.4,0.6,0.8c0,0,0.1,0.1,0.2,0.1c0.1,0,0.2,0,0.3,0
	c0,0,0.2,0.2,0.2,0.2c0,0,0,0.2,0,0.2c0.1,0.2,0.1,0.4,0.3,0.5c0,0,0,0.3,0,0.4c-0.1,0.2-0.2,0.4-0.3,0.5c-0.2,0.1-0.4,0.2-0.5,0.3
	c-0.1,0-0.3,0-0.4,0c-0.1,0-0.3-0.1-0.3-0.1l-0.3-0.3c0,0-0.1-0.3-0.1-0.3c0-0.3,0.1-0.5,0.1-0.7c-0.1-0.2-0.2-0.4-0.3-0.5
	c0-0.2-0.1-0.4-0.1-0.5C18.1,31.9,18.2,31.8,18.3,31.7z M68.4,23l0.8-0.1c0.3,0.2,0.5,0.4,0.8,0.6c0,0.2-0.1,0.5-0.1,0.7
	c-0.2,0.4-0.5,0.7-1.1,0.8c0,0-0.2,0-0.2,0c-0.3-0.1-0.6-0.2-0.9-0.3c0,0-0.1-0.1-0.1-0.1c0-0.2-0.1-0.4-0.1-0.7l0.3-0.7
	C68.1,23.2,68.2,23,68.4,23z M82.7,1.4c0.1,0,0.2-0.1,0.3,0c0,0,0,0.2,0,0.2L82.6,2c-0.2,0.1-0.4,0.3-0.5,0.5l-1.4,1.4
	c0,0-0.2,0.1-0.2,0.1l-0.8,0.8c0,0-0.2,0.1-0.2,0.1l-0.6,0.6c-0.2,0.2-0.5,0.4-0.8,0.5c0,0-0.2,0-0.3,0c0-0.1,0-0.1,0-0.2L79,4.7
	c0-0.2,0.1-0.3,0.1-0.4l1.2-1.2l1.6-1.1C82.1,1.8,82.4,1.6,82.7,1.4z M20.4,48.2c0.1,0,0.3,0,0.4,0c0.4,0.1,0.6,0.4,0.9,0.8
	c0,0.1,0.1,0.3,0.1,0.6c0,0.1,0.2,0.2,0.2,0.2c0,0,0,0.1,0,0.2c-0.1,0.1-0.1,0.2-0.2,0.2c-0.5,0.1-0.9,0.1-1.4,0.1
	c-0.1-0.2-0.4-0.2-0.5-0.4c-0.1-0.2-0.2-0.5-0.2-0.7c0-0.1,0-0.3,0.1-0.3c0.1-0.1,0.3-0.3,0.4-0.5C20.1,48.3,20.4,48.2,20.4,48.2z
	 M49.4,32c0.1,0.2,0.3,0.3,0.5,0.4v0.3c-0.1,0-0.2,0-0.2,0c-0.2-0.1-0.4-0.1-0.5-0.3c0,0-0.2,0-0.2,0c-0.1,0-0.2,0.2-0.2,0.3
	c0.1,0,0.3,0,0.4,0c0.2,0.2,0.5,0.4,0.5,0.7c0,0.1,0.2,0.2,0.2,0.2c0.1-0.1,0.3-0.1,0.5-0.1v1.1c0,0,0.1,0.1,0.1,0.1
	c0.4,0,0.7-0.2,0.9-0.4c-0.1-0.3-0.2-0.6-0.1-1c0-0.1-0.2-0.2-0.3-0.2c0-0.1,0.1-0.3,0.1-0.4c0-0.3-0.1-0.6-0.4-0.6
	c0-0.2,0.1-0.3,0.1-0.5h-1.2C49.4,31.6,49.4,31.9,49.4,32z M14.3,28.6c0.3,0,0.5,0.2,0.6,0.4c0,0,0,0.1,0,0.1c0,0.1,0.1,0.1,0.2,0.2
	c0,0,0.1,0,0.2,0c0.1,0.1,0.2,0.1,0.3,0.2c0,0.1,0,0.3,0,0.4c0,0.1,0.1,0.3,0.1,0.3c-0.1,0.2-0.1,0.4-0.1,0.6
	c-0.2,0.2-0.5,0.3-0.9,0.2L14,30.6c0,0,0-0.1,0-0.2c0-0.1-0.2-0.2-0.2-0.2l-0.1-0.6c0-0.2,0.1-0.4,0.1-0.6c0,0,0.2-0.2,0.2-0.2
	C14.1,28.7,14.3,28.6,14.3,28.6z M10.1,11.9c0.5,0,1.1-0.1,1.5-0.1c0.2,0.2,0.5,0.3,0.6,0.5c0.1,0.1,0.1,0.2,0.1,0.3
	c0,0.1,0,0.3-0.1,0.4c-0.3,0.3-0.6,0.6-0.8,0.9c0,0-0.2,0-0.2,0c-0.1,0-0.2-0.2-0.2-0.2c0,0-0.1,0-0.2,0c-0.1,0-0.3-0.2-0.3-0.3
	c-0.1-0.3-0.3-0.7-0.5-0.9c0,0-0.1-0.1-0.1-0.2c0,0,0-0.2,0-0.2C10,12,10,11.9,10.1,11.9z M46,40.8c0,0-0.2,0.2-0.2,0.2
	c-0.1,0.1-0.1,0.3,0,0.4c0.1,0.1,0.2,0.2,0.3,0.3c0,0,0,0.3,0,0.3h-0.5c-0.1,0-0.1-0.1-0.1-0.2c0-0.2,0-0.5,0-0.6
	c-0.1,0.1-0.2,0.2-0.2,0.2c0,0.1,0,0.3,0,0.4L45,42.3c0,0.4-0.1,0.7-0.1,1.1c0,0.1,0.1,0.1,0.2,0.2c0,0,0.2,0,0.2,0
	c0.2-0.1,0.3-0.2,0.5-0.2c0.1,0,0.2-0.2,0.2-0.2c0.1-0.2,0.2-0.4,0.3-0.5c0,0,0-0.3,0-0.4c0.1,0,0.3,0,0.3,0c0.1,0.1,0.3,0,0.4,0
	l0.4-0.4c0-0.3-0.2-0.4-0.5-0.5l-0.6,0.6c0.1-0.3,0.1-0.5,0.1-0.7c0,0,0.2-0.2,0.2-0.2c0-0.1,0-0.3-0.1-0.4c0-0.1-0.2-0.3-0.3-0.3
	c0,0-0.2,0-0.2,0V40.8z M40.2,57.7c0,0,0.1-0.2,0.1-0.2c0,0,0.2,0,0.2,0c0.1,0.2,0.3,0.4,0.5,0.6c0,0,0.2,0.1,0.2,0.1l0.5,0.5
	c0,0,0.1,0.3,0.1,0.3c0,0,0,0.2,0,0.2c-0.2,0.2-0.5,0.4-0.9,0.3v1.1c0,0.1-0.1,0.3-0.1,0.3c0,0-0.2,0.2-0.2,0.2c-0.1,0-0.3,0-0.3,0
	c0-0.3,0.1-0.5,0.1-0.9c0.1-0.4,0.3-0.8,0.4-1.3c0,0,0.2-0.2,0.2-0.2c0,0,0-0.2,0-0.2c-0.1-0.2-0.1-0.3-0.2-0.4c0,0-0.2,0-0.2,0
	L40.1,59v0.4c0,0.1-0.2,0.2-0.2,0.2c-0.2,0-0.4,0-0.5-0.2c-0.1-0.2,0-0.4,0.1-0.5c0.2-0.1,0.3-0.2,0.5-0.3c0.1,0,0.1-0.2,0.1-0.4
	c0-0.1,0-0.2,0-0.3C40,58,40.2,57.8,40.2,57.7z M72.3,30l0.8,0.1l0.4,0.4c0.1,0.1,0.2,0.2,0.1,0.3c-0.1,0.2-0.1,0.4-0.1,0.7
	c0.1,0.1,0.2,0.2,0.4,0.2h0.7c0,0,0.1,0.1,0.1,0.1c0,0.1,0,0.2,0,0.2c-0.1,0-0.3,0.1-0.3,0.1c-0.2,0-0.4,0-0.6,0.1
	c-0.3,0-0.6-0.1-0.8-0.2l-0.4-0.3c-0.2,0-0.4-0.1-0.4-0.2c-0.1-0.2-0.4-0.4-0.4-0.7c0,0,0-0.2,0-0.2c0-0.1,0.1-0.3,0.1-0.3
	C72.1,30.3,72.3,30,72.3,30z M69.7,69.3h0.9c0.3,0.1,0.6,0.3,0.8,0.5c0.1,0.3,0,0.5,0,0.9l-0.6,0.4h-0.7c-0.4-0.1-0.7-0.5-0.7-1.1
	c0,0,0.2-0.2,0.2-0.2c0,0,0-0.2,0-0.2C69.5,69.5,69.6,69.3,69.7,69.3z M14.8,40.2c0.4,0,0.7-0.1,1.1-0.1c0.1,0,0.3,0.2,0.3,0.3
	c0,0.1,0.1,0.3,0.1,0.3c0,0,0,0.2,0,0.2c0,0.1-0.1,0.3-0.2,0.4c-0.1,0.1-0.1,0.1-0.2,0.2c0,0.1-0.1,0.2-0.1,0.3c0,0-0.2,0.2-0.2,0.2
	c0,0-0.2,0-0.3,0l-0.7-0.4l-0.5-0.1c-0.1,0-0.1-0.1-0.2-0.2c0-0.1,0-0.3,0-0.4c0.1-0.3,0.3-0.6,0.7-0.6
	C14.7,40.3,14.8,40.2,14.8,40.2z M65.9,9.6c0.1,0,0.2-0.1,0.3,0v0.6c0,0.1,0.1,0.3,0.1,0.4c-0.1,0.2-0.3,0.4-0.6,0.4
	c-0.2,0.3-0.5,0.5-0.6,0.8l-0.6,0.6c0,0-0.1,0.2-0.1,0.2l-0.5,0.5c0,0-0.2,0-0.2,0c0-0.1,0-0.2,0-0.3l0.2-0.4c0-0.1,0-0.3,0-0.3
	c0-0.1,0.1-0.3,0.1-0.3c0-0.1,0.3-0.2,0.3-0.3c0.2-0.5,0.6-0.9,1-1.2c0,0,0.1,0,0.1,0c0.1-0.1,0.1-0.2,0.2-0.3
	C65.7,9.7,65.9,9.6,65.9,9.6z M25.6,38.4c-0.3,0.2-0.6,0.3-1,0.4c0,0.1,0,0.3,0,0.3c-0.2,0.1-0.3,0.2-0.5,0.2c0,0-0.2,0-0.2,0
	c-0.2,0.2-0.5,0.3-0.7,0.4c0,0.1,0,0.2,0,0.3c0,0.1,0.1,0.1,0.2,0.2c0,0,0.2,0,0.2,0l0.5,0.4c0.2,0,0.3-0.1,0.4-0.1
	c0.2,0.1,0.5,0,0.6-0.2c0-0.1,0.1-0.2,0.1-0.3c0,0-0.1-0.1-0.1-0.1h-0.5c0,0-0.1-0.1-0.2-0.1c0.1,0,0.3-0.1,0.3-0.1
	c0.1,0,0.2,0.1,0.3,0.1c0.1,0,0.2-0.1,0.2-0.2c0,0,0-0.2,0-0.2c0-0.1,0.2-0.2,0.3-0.2c0.2,0,0.4-0.1,0.5-0.3
	c0.1-0.1,0.2-0.3,0.1-0.4C26,38.4,25.8,38.4,25.6,38.4z M41.8,46.3c0,0,0.1,0.1,0.2,0.1c0,0,0.2,0,0.2,0c0.1,0,0.2-0.1,0.2-0.2
	c0-0.2-0.1-0.3-0.3-0.4c0,0-0.3,0-0.3,0c-0.2-0.1-0.3-0.4-0.4-0.6c0,0,0-0.2,0-0.2c0-0.1-0.2-0.2-0.3-0.2c0,0-0.1,0-0.2,0
	c0,0-0.1,0.2-0.1,0.2c-0.1,0.1-0.2,0.1-0.2,0.2c0.1,0.3,0,0.5,0,0.8c0.1,0.1,0.3,0.2,0.4,0.4c0,0,0.2,0,0.2,0v0.5
	c0,0.1-0.2,0.2-0.2,0.3c0,0,0,0.2,0,0.2c0.1,0.3,0.2,0.5,0.3,0.8c0,0.1,0,0.3,0,0.4c0.1,0.1,0.2,0.3,0.3,0.2c0.1,0,0.2-0.2,0.2-0.2
	c0,0,0-0.2,0-0.3c-0.1-0.2-0.2-0.5-0.4-0.7c0,0,0-0.2,0-0.2l0.5-0.5C41.8,46.6,41.8,46.4,41.8,46.3L41.8,46.3z M90.4,27.7h0.4
	c0.3,0.2,0.6,0.3,0.9,0.5c0.1,0.2,0.1,0.3,0,0.5c0,0.1,0.1,0.2,0.1,0.4c0,0.1-0.2,0.3-0.3,0.3c-0.1,0.1-0.3,0.2-0.4,0.2
	c-0.3,0-0.5-0.1-0.7-0.2c-0.1,0-0.2-0.1-0.3-0.2L90,28.6c0,0,0.2-0.2,0.3-0.3c0-0.1-0.1-0.3-0.1-0.4C90.2,27.9,90.4,27.7,90.4,27.7z
	 M4,61.4h0.7l0.4,0.4c0,0,0.1,0.3,0.1,0.3c0,0.1,0,0.3,0,0.3c-0.1,0.3-0.2,0.5-0.5,0.6c-0.2,0.1-0.4,0.1-0.6,0.1
	c-0.1,0-0.3-0.1-0.3-0.1c-0.1,0-0.3-0.2-0.3-0.3v-0.8c0-0.1,0.1-0.3,0.2-0.4C3.8,61.5,4,61.4,4,61.4z M56.2,70.5h0.6
	c0.1,0,0.3,0.1,0.3,0.1l0.4,0.4v0.6c0,0.1-0.2,0.2-0.3,0.3c-0.1,0.1-0.2,0.2-0.3,0.1L56.2,72c-0.2-0.2-0.4-0.2-0.5-0.4
	c0-0.2,0.1-0.3,0.1-0.6c0-0.1,0.1-0.2,0.1-0.3C55.9,70.7,56.1,70.5,56.2,70.5z M80.3,28c0,0,0.2,0,0.2,0c0.2,0.1,0.4,0.2,0.5,0.3
	c0.1,0.2,0.2,0.3,0.2,0.4c0.1,0.1,0.2,0.1,0.2,0.2c0,0,0,0.2,0,0.2l-0.4,0.4c-0.2,0.1-0.5,0.2-0.7,0.2c-0.1,0-0.3-0.1-0.3-0.1
	c0,0-0.2-0.2-0.2-0.2c0-0.3-0.1-0.5-0.2-0.7c0-0.1,0.1-0.3,0.1-0.3C80,28.2,80.1,28.1,80.3,28z M50.5,57.9h0.8
	c0.1,0,0.1,0.1,0.2,0.2c0,0,0,0.1,0,0.2c0,0.1,0.3,0.2,0.3,0.3c0,0,0,0.2,0,0.3c0,0.1-0.1,0.3-0.2,0.4c-0.2,0.1-0.3,0.2-0.4,0.4
	h-0.6l-0.4-0.4c0,0,0-0.3,0-0.4L50.5,57.9z M81.5,36.6c0,0,0.3,0,0.4,0c0.1,0,0.3,0.1,0.3,0.1l0.4,0.4c0,0.2,0,0.3,0.1,0.5
	c0,0-0.1,0.3-0.1,0.3c0,0-0.2,0.2-0.2,0.2c-0.1,0-0.3,0.1-0.4,0.1h-0.5c-0.1-0.1-0.2-0.2-0.3-0.3l-0.1-0.5l0.1-0.5L81.5,36.6z
	 M22.8,56.8l0.7,0.2c0,0.1-0.1,0.2-0.2,0.3c-0.2,0.1-0.2,0.4-0.2,0.7l-0.6,0.7c-0.1,0.1-0.1,0.2-0.2,0.4c0,0.1,0.2,0.2,0.2,0.3
	c0,0,0,0.2,0,0.2c0,0-0.1,0.1-0.1,0.1l-1,0.1c-0.1-0.1-0.2-0.2-0.1-0.3c0,0,0.1-0.2,0.1-0.2l0.6-0.6c-0.1-0.1-0.1-0.3-0.1-0.4
	l0.4-0.4c0,0,0-0.1,0-0.2l0.4-0.4c0,0,0-0.2,0-0.3C22.7,56.9,22.7,56.9,22.8,56.8z M48.8,27.7c-0.2,0.1-0.4,0.2-0.5,0.3
	c0,0,0,0.3,0,0.3c0.3,0.3,0.6,0.4,1.1,0.5c0.1,0.2,0.3,0.2,0.5,0.3c0.2,0,0.4-0.1,0.6-0.1c0.1,0,0.1-0.1,0.1-0.2
	c0-0.2,0-0.3,0.1-0.5c0,0-0.1-0.2-0.1-0.2c-0.1-0.2-0.5-0.1-0.7,0c-0.1,0.1-0.3,0.1-0.4,0.1c-0.1,0-0.1-0.2-0.2-0.3c0,0-0.1,0-0.2,0
	c-0.1,0-0.2-0.2-0.2-0.2C48.9,27.6,48.8,27.7,48.8,27.7z M60.3,76c0.2,0,0.4-0.1,0.6-0.1l0.6,0.3H62c0,0,0.2,0.1,0.2,0.2
	c0,0.1,0.1,0.3,0.1,0.3c0,0,0,0.2,0,0.2c-0.1,0.1-0.2,0.2-0.3,0.3c0,0-0.2,0.1-0.2,0.1c-0.1,0-0.3,0-0.4,0c-0.2,0-0.3-0.1-0.4-0.3
	c0-0.1-0.2-0.2-0.2-0.2c-0.1,0-0.3-0.1-0.4-0.2c-0.1,0-0.2-0.2-0.3-0.3c0,0,0-0.1,0-0.2C60.2,76.1,60.3,76.1,60.3,76z M20.8,51.9
	c0.1,0,0.3,0,0.4,0l0.4,0.4c0,0,0.1,0.3,0.1,0.3v0.5c-0.2,0.3-0.9,0.5-1.4,0.2c-0.1,0-0.2-0.2-0.2-0.3v-0.6c0-0.1,0.2-0.2,0.3-0.3
	C20.5,52.1,20.7,52,20.8,51.9z M11.7,57.8c0.4-0.1,0.6,0.2,0.7,0.5c0,0,0,0.1,0,0.1c0,0.1,0.2,0.2,0.2,0.2c0,0.1,0,0.2,0,0.3
	c0,0.1-0.1,0.3-0.1,0.3c0,0.1-0.2,0.3-0.3,0.3c-0.2,0-0.3,0-0.5,0.1c0,0-0.3-0.1-0.3-0.1c0,0-0.2-0.2-0.2-0.2c0,0,0-0.2,0-0.3
	c0,0,0.1-0.1,0.1-0.2c0-0.2,0-0.3-0.1-0.4c0-0.1,0.1-0.3,0.2-0.3C11.4,58.1,11.6,57.9,11.7,57.8z M10.5,44.9c0.1,0,0.2-0.1,0.2,0
	c0.1,0.1,0.3,0.2,0.4,0.3V46c0.1,0,0.3,0,0.3,0c0.3,0.1,0.5,0.2,0.6,0.5c0,0.1-0.1,0.2-0.1,0.2c-0.3,0-0.6,0.1-0.9,0.1
	c-0.1,0-0.2-0.1-0.3-0.2c0-0.1,0-0.3,0-0.3c-0.3,0-0.5-0.1-0.7-0.4c0,0,0-0.3,0-0.4C10.1,45.2,10.2,45,10.5,44.9z M27.1,54.2h1.5
	c0.1,0,0.1,0.1,0.2,0.2c0,0.1,0,0.3,0,0.3c-0.1,0.1-0.2,0.3-0.3,0.4c0,0-0.1,0-0.2,0c0,0-0.1,0.1-0.1,0.1c0,0.1,0,0.3,0,0.4
	c-0.1,0.2-0.4,0.2-0.6,0.1c0-0.1,0.1-0.3,0.1-0.4c-0.1,0-0.3,0-0.3,0c-0.1,0-0.3-0.2-0.3-0.3c-0.1-0.1-0.1-0.2-0.1-0.4
	C26.9,54.4,27.1,54.2,27.1,54.2z M53.8,62.2c0,0,0.3,0,0.4,0c0.1,0.2,0.2,0.4,0.4,0.4c0,0,0.1,0.1,0.1,0.1c0,0.4-0.1,0.6-0.2,0.9
	c-0.1,0.1-0.2,0.2-0.2,0.2c-0.3-0.1-0.5-0.2-0.7-0.3c-0.1-0.3-0.3-0.5-0.4-0.7c0-0.1,0.1-0.3,0.2-0.3C53.4,62.4,53.6,62.3,53.8,62.2
	z M36.2,64.9c0,0,0.2-0.1,0.2-0.1c0.1,0,0.3,0,0.4,0c0.2,0.1,0.4,0.1,0.5,0.3c0,0.1,0.1,0.2,0.1,0.3c0,0.1,0,0.3,0,0.4
	c0,0.1-0.2,0.3-0.3,0.3c-0.1,0-0.3,0.1-0.3,0.1c-0.1,0-0.3,0-0.3,0c-0.2-0.1-0.4-0.1-0.5-0.3c0-0.1-0.1-0.2-0.1-0.3c0,0,0-0.2,0-0.2
	C36,65.2,36.1,65,36.2,64.9z M50.3,66.9H51c0.1,0.1,0.2,0.2,0.3,0.3l0.1,0.5c0,0.1-0.1,0.3-0.2,0.3c-0.1,0.2-0.3,0.3-0.6,0.4
	c-0.1,0-0.3-0.1-0.3-0.1c-0.1,0-0.3-0.2-0.3-0.3c0-0.2-0.1-0.5-0.1-0.7L50.3,66.9z M24.9,47.4l0.7,0.3c0.1,0,0.2,0.2,0.2,0.2
	c0,0,0,0.2,0,0.2c0,0.1-0.1,0.1-0.1,0.2c0,0-0.2,0-0.3,0c0,0-0.1,0.1-0.1,0.1c0,0.1,0,0.1,0,0.1c0.1,0.1,0.2,0.1,0.3,0.2
	c-0.2,0.1-0.4,0.2-0.5,0.2c-0.1,0-0.4-0.1-0.4-0.1c-0.1-0.1-0.2-0.1-0.2-0.2c-0.1-0.2-0.1-0.5-0.1-0.8c0-0.1,0.2-0.2,0.3-0.3
	C24.7,47.6,24.8,47.5,24.9,47.4z M17.9,25.7c0,0,0.1-0.1,0.1,0c0.5,0.2,1,0.4,1.5,0.6c0.1,0.2,0.3,0.3,0.4,0.3
	c0.1,0.2,0.2,0.3,0.3,0.5c0,0-0.1,0-0.1,0c-0.2,0-0.4-0.1-0.6-0.2l-1.3-0.2c-0.2-0.1-0.3-0.4-0.4-0.6c0,0,0-0.3,0-0.3
	C17.8,25.8,17.9,25.7,17.9,25.7z M24.6,57.1c0.1,0,0.2,0,0.3,0c0.1,0,0.3,0,0.4,0.1c0.1,0.1,0.2,0.1,0.3,0.2c0,0.1,0,0.3,0,0.4
	c0,0.1-0.2,0.3-0.3,0.3c-0.2,0.1-0.4,0.3-0.6,0.3c0,0-0.2,0-0.3,0L23.9,58v-0.5c0-0.1,0.2-0.2,0.3-0.2
	C24.3,57.3,24.5,57.2,24.6,57.1z M69,63.6c0,0,0-0.2,0-0.2c0,0,0.2,0,0.2,0c0.4,0.3,0.8,0.6,1.1,1c0,0,0.1,0.2,0.1,0.2l0.7,0.7
	c0.1,0.1,0.1,0.5,0,0.6c-0.1,0.1-0.5,0.1-0.7,0c-0.1-0.1-0.2-0.2-0.1-0.3c0-0.1,0.1-0.3,0.1-0.4c0,0-0.1-0.2-0.1-0.2L69.4,64
	C69.3,63.8,69.2,63.7,69,63.6z M47.5,65c0,0,0.2-0.1,0.2-0.1h0.5c0.1,0,0.3,0.1,0.3,0.2c0.1,0.2,0.2,0.3,0.2,0.4
	c0,0.1-0.1,0.3-0.1,0.3c0,0.1-0.2,0.2-0.3,0.3c-0.1,0.1-0.2,0.1-0.4,0.1c-0.1,0-0.3-0.1-0.3-0.2C47.4,65.9,47.2,65.4,47.5,65
	C47.4,65.1,47.5,65,47.5,65z M2.1,26.3c0,0,0.2-0.1,0.2-0.1c0.1,0,0.3,0.1,0.3,0.1c0.1,0.1,0.3,0.2,0.3,0.4l0.1,0.5c0,0,0,0.2,0,0.2
	c0,0.1-0.1,0.3-0.2,0.3c0,0-0.2,0.1-0.2,0.1c-0.1,0-0.3-0.1-0.4-0.2l-0.4-0.9C1.9,26.6,2,26.4,2.1,26.3z M41.4,38.4
	c-0.2,0.3-0.4,0.6-0.6,0.8c0,0,0,0.1,0,0.1c0.1,0.1,0.2,0.3,0.4,0.3l0.4,0.4c0,0,0.2,0,0.2,0c0.1-0.1,0.2-0.2,0.2-0.4V39
	c0.1-0.2,0.2-0.4,0.3-0.7h-0.7C41.5,38.3,41.4,38.4,41.4,38.4z M79,41.7c0.4,0,0.9-0.1,1.3-0.2c0.2,0,0.3,0.1,0.3,0.1
	c0.3-0.1,0.5,0,0.6,0.1c0.1,0.1,0.1,0.2,0,0.3c0,0.1-0.1,0.1-0.1,0.2c-0.1,0-0.3,0-0.4,0C80.5,42.1,80.3,42,80,42
	c-0.3,0.1-0.5,0.2-0.7,0.3c-0.1,0-0.2,0-0.3,0s-0.2-0.2-0.2-0.2c0,0-0.1,0-0.1,0c-0.1-0.1-0.3-0.2-0.3-0.4L79,41.7z M50.4,47.4
	c-0.1-0.1-0.1-0.2-0.1-0.3c0.3,0,0.6,0.2,0.7,0.4c0.2,0.1,0.3,0.2,0.5,0.4c0.4-0.1,0.9-0.1,1.2,0.1c0,0,0.1,0.1,0.1,0.1
	c-0.1,0.1-0.1,0.3-0.2,0.5c0.1,0.2,0.3,0.3,0.4,0.5c0,0,0,0.2,0,0.2c-0.1-0.1-0.3-0.1-0.4-0.2L52,48.5c-0.3-0.1-0.7-0.2-0.9-0.4
	C50.9,47.8,50.6,47.6,50.4,47.4z M82.3,5.7h0.6c0,0.1,0,0.1,0,0.2l-0.4,0.4c0,0-0.2,0.1-0.2,0.1l-0.4,0.4c-0.3,0.2-0.5,0.3-0.8,0.5
	c-0.1,0-0.2,0.1-0.3,0.1c0,0-0.1-0.1-0.1-0.1c0,0,0-0.2,0-0.2c0-0.1-0.2-0.2-0.3-0.2c0.1-0.1,0.2-0.2,0.3-0.2h0.6
	c0.1,0,0.3-0.1,0.3-0.2c0.1-0.3,0.3-0.4,0.5-0.5C82.2,5.8,82.3,5.7,82.3,5.7z M27.1,51c0.3,0,0.6,0.3,0.7,0.5c0.1,0.1,0.1,0.3,0,0.4
	l-0.4,0.4c0,0-0.3,0-0.4,0c-0.1,0-0.3-0.1-0.3-0.1c0,0-0.2-0.2-0.2-0.2v-0.6c0,0,0.1-0.2,0.2-0.2C26.8,51.1,27,51,27.1,51z
	 M29.5,49.4c0.1-0.1,0.2-0.1,0.3,0c0.1,0.2,0.1,0.4,0,0.6c-0.2,0.2-0.4,0.4-0.5,0.5c0,0.4-0.3,0.6-0.6,0.7c-0.1,0-0.3,0.1-0.5,0.1
	c-0.1-0.2,0.1-0.4,0-0.6c0,0,0.2-0.2,0.2-0.2c0,0,0-0.2,0-0.2H29c0.1-0.2,0.2-0.4,0.4-0.6C29.4,49.7,29.4,49.5,29.5,49.4z M36,57.9
	c0.1,0,0,0.1,0,0.1c-0.2,0.8-0.3,1.7-0.5,2.4c0,0.1,0.1,0.3,0,0.3l-0.4,0.4c0,0-0.2,0-0.2,0c0-0.2,0.1-0.4,0.1-0.6l0-1
	c0-0.1,0.1-0.2,0.2-0.3c0,0,0.1,0,0.2,0c0.1-0.2,0.3-0.3,0.2-0.6c0-0.1,0.1-0.3,0.1-0.4C35.8,58.1,35.9,58,36,57.9z M9,60.4
	c0,0,0.2-0.1,0.2-0.1h1.5c0,0,0.2,0.1,0.2,0.2c0,0,0,0.2,0,0.2c-0.1,0.2-0.3,0.2-0.5,0.3c-0.3,0.1-0.6,0.1-0.9,0.1
	C9.3,61,9.1,61,9,60.9C8.9,60.8,8.8,60.6,9,60.4C8.9,60.5,8.9,60.4,9,60.4z M76,14.4c0,0,0.1,0,0.2,0c0,0,0.1,0.1,0.1,0.1
	c0,0,0,0.2,0,0.2c-0.4,0.3-0.7,0.7-1.1,0.9c-0.2,0.1-0.4,0.2-0.7,0.3c-0.1,0-0.2,0-0.2,0c-0.1-0.2,0-0.3,0.1-0.4l1-0.8L76,14.4z
	 M69.9,33.4c0.5,0,1-0.1,1.5-0.1l0.5,0.2h0.4c0,0.1,0,0.1-0.1,0.2c-0.2,0.1-0.5,0.2-0.7,0.2C71,33.9,70.5,34,70,33.9
	C69.8,33.9,69.7,33.7,69.9,33.4C69.8,33.5,69.8,33.4,69.9,33.4z M26.1,42.6c-0.1,0.1-0.2,0.2-0.2,0.3c0.1,0.2,0.1,0.5,0.1,0.8
	c0.2,0,0.3-0.2,0.3-0.3H27c0.1,0,0.1-0.1,0.1-0.2c0-0.1,0-0.3,0-0.4c0-0.2-0.2-0.4-0.4-0.4c-0.1,0-0.3,0-0.4,0
	C26.3,42.5,26.1,42.6,26.1,42.6z M59.1,64c0,0,0.3,0,0.3,0l0.4,0.4c0.1,0.1,0.1,0.2,0.1,0.4c0,0-0.1,0.2-0.2,0.2c-0.1,0-0.3,0-0.4,0
	c-0.1,0-0.2,0.2-0.3,0.2c-0.1,0-0.3-0.1-0.4-0.2c0,0-0.2-0.2-0.2-0.2c0,0,0-0.1,0-0.1C58.7,64.4,58.9,64.2,59.1,64z M66,38.7
	c0,0,0.3,0,0.3,0c0.1,0,0.1,0.1,0.2,0.1c0,0,0,0.1,0,0.2l0.3,0.4c0,0.3-0.3,0.4-0.5,0.5c0,0-0.1,0.1-0.1,0.1c-0.1,0-0.3-0.1-0.3-0.1
	c0,0-0.2-0.2-0.2-0.2l-0.1-0.4L66,38.7z M45.1,32.8c0,0-0.1,0.1-0.1,0.1c-0.1,0.2-0.2,0.3-0.4,0.4c-0.1,0-0.1,0.1-0.1,0.2
	c0.1,0.1,0.1,0.2,0.2,0.3c0.2,0.1,0.5,0.2,0.7,0l0.4-0.4V33c0,0-0.1-0.2-0.2-0.2C45.4,32.7,45.2,32.8,45.1,32.8z M11.6,52.6
	c0,0,0.1-0.1,0.1-0.1c0,0,0.2,0,0.2,0c0.1,0.1,0.2,0.1,0.3,0.2l0.1,0.5c0,0.1-0.1,0.3-0.2,0.4c-0.2,0.1-0.3,0.2-0.4,0.2
	c-0.1,0-0.3-0.1-0.3-0.1c0,0-0.2-0.2-0.2-0.2c0,0,0-0.2,0-0.2c0.1-0.1,0.2-0.1,0.2-0.2C11.4,52.9,11.5,52.7,11.6,52.6z M49.2,25.7
	c0,0.1-0.2,0.2-0.2,0.2c0,0,0,0.1,0,0.2c0,0.1-0.3,0.3-0.3,0.3c0,0.2,0.1,0.3,0.2,0.4l0.6,0.6c0,0,0.1,0.1,0.2,0c0-0.1,0-0.3,0-0.3
	l-0.5-0.5c0,0,0-0.2,0-0.3c0-0.1,0.1-0.2,0.2-0.2c0.1,0,0.3,0.1,0.4,0c0.2-0.1,0.2-0.3,0.1-0.4c0,0-0.1-0.1-0.1-0.1
	C49.6,25.8,49.4,25.8,49.2,25.7z M58.5,15.1c0,0,0.2,0,0.2,0c0,0,0.1,0.1,0.1,0.1c0,0.1,0,0.3,0,0.4c-0.1,0.2-0.2,0.4-0.3,0.5
	c-0.1,0.1-0.2,0.1-0.3,0.1c-0.3-0.1-0.5-0.1-0.8-0.1c0-0.1,0-0.3,0-0.3c0.1-0.1,0.1-0.2,0.2-0.3c0,0,0.2,0,0.3,0
	C58.1,15.4,58.2,15.2,58.5,15.1z M55.6,62c0,0,0.2,0,0.2,0c0.2,0.1,0.3,0.2,0.5,0.3c0.1,0.2,0.1,0.4,0,0.6C56.1,63,56,63,55.9,63.1
	c-0.1,0-0.3,0-0.3,0c-0.1,0-0.3-0.1-0.3-0.2c0-0.1-0.1-0.3-0.1-0.3C55.3,62.4,55.4,62.2,55.6,62z M87,30.9c0,0,0.2-0.1,0.2-0.1h0.5
	l0.3,0.5c0,0,0,0.1,0,0.1c-0.1,0.1-0.2,0.3-0.3,0.4c0,0-0.3,0-0.4,0c-0.1,0-0.3-0.1-0.3-0.2c-0.1-0.1-0.2-0.2-0.1-0.3
	C86.9,31.1,86.9,31,87,30.9z M16.8,33.9c0.2,0,0.3,0.1,0.4,0.2c0.1,0.1,0.1,0.2,0.1,0.4c0,0.1-0.1,0.3-0.2,0.4
	C17.2,34.9,17,35,16.9,35c-0.1,0-0.2,0-0.3,0c-0.1-0.1-0.3-0.2-0.4-0.3c0,0,0-0.2,0-0.2c0-0.1,0.1-0.3,0.2-0.4
	C16.5,34.1,16.7,33.9,16.8,33.9z M70.3,15.7c0.4,0,0.6-0.1,0.9-0.1c0,0.1,0,0.2,0,0.2c0,0.1-0.2,0.3-0.3,0.3
	c-0.2,0.1-0.3,0.2-0.5,0.2c-0.4,0-0.6,0.1-0.9,0.1c0,0-0.1-0.1-0.1-0.1c-0.1-0.2,0.1-0.3,0.2-0.3C69.9,15.8,70.1,15.8,70.3,15.7z
	 M22.3,28.1c0.1,0,0.1-0.1,0.2-0.1c0.2,0.1,0.4,0.1,0.5,0.3c0,0,0.2,0,0.2,0l0.5,0.2c0,0,0.1,0.1,0.1,0.1c0,0.1,0,0.3,0,0.4
	c0.1,0.1,0.4,0.2,0.5,0.3c0,0,0.1,0.1,0.1,0.1l-0.1,0.1c-0.1-0.1-0.2,0-0.3-0.1L23.7,29c0,0-0.2,0-0.2,0c-0.1-0.1-0.2-0.2-0.3-0.3
	c-0.1-0.1-0.3-0.2-0.4-0.1C22.5,28.4,22.4,28.3,22.3,28.1C22.3,28.1,22.3,28.1,22.3,28.1z M43.2,64.6c0,0,0-0.2,0-0.3h0.5
	c0,0,0.2,0.1,0.2,0.2c0,0.1,0.1,0.3,0.1,0.3c0,0.1,0,0.3,0,0.3c-0.1,0.1-0.3,0.3-0.6,0.2c-0.2,0-0.3-0.1-0.4-0.2
	C43.1,64.9,43.2,64.7,43.2,64.6z M60.2,16c0,0,0.1-0.1,0.1,0l0.5,0.2c0.1,0,0.1,0.1,0.1,0.2c0,0.1-0.1,0.3-0.1,0.3
	c0,0-0.2,0.2-0.2,0.2c-0.2,0-0.5-0.1-0.7-0.1c-0.1,0-0.1-0.1-0.2-0.1c0,0,0-0.2,0-0.3c0-0.1,0.2-0.2,0.3-0.3
	C60,16.1,60.1,16,60.2,16z M47.6,31.2c0,0,0.1,0.1,0.1,0.1c0.1,0.3,0,0.5,0,1c0.1-0.1,0.2-0.2,0.2-0.2c0,0,0-0.2,0-0.3
	c0-0.1,0.1-0.2,0.2-0.2h0.5c0.1,0,0.3-0.1,0.3-0.1c0.1,0,0.1-0.1,0-0.1c0-0.2-0.2-0.3-0.3-0.4h-1.1C47.5,31.1,47.5,31.1,47.6,31.2z
	 M41.1,51.8c-0.2,0.1-0.4,0.1-0.5,0.3c0,0.3,0.1,0.4,0.2,0.7c0,0.1,0.1,0.2,0.2,0.2c0,0,0.1,0,0.2,0c0.1-0.1,0.2-0.2,0.2-0.3
	c0-0.2,0.1-0.5,0.1-0.7c0-0.1-0.1-0.2-0.2-0.2C41.2,51.7,41.1,51.7,41.1,51.8z M32.1,36.8c0,0-0.1,0.2-0.1,0.2
	c0,0.2,0.1,0.4,0.1,0.7c0,0.5-0.1,0.8-0.1,1.2c0.1,0,0.3,0,0.3,0c0.1-0.1,0.2-0.3,0.1-0.5c0-0.2,0.1-0.4,0.2-0.6
	c-0.1-0.3-0.2-0.6-0.2-0.9C32.4,36.8,32.3,36.7,32.1,36.8C32.2,36.7,32.1,36.8,32.1,36.8z M76.9,35.2l0.9-0.1c0.1,0,0.3,0.1,0.3,0.2
	c-0.1,0.1-0.1,0.1-0.2,0.1l-0.5,0.1H77c-0.1,0-0.3,0.1-0.4,0.1c-0.1,0-0.2,0.2-0.2,0.2c0,0-0.2,0-0.2,0c-0.1,0-0.3-0.1-0.3-0.1
	c0.1,0,0.2-0.2,0.3-0.2c0,0,0.1,0,0.2,0c0.1,0,0.2-0.2,0.2-0.2C76.6,35.3,76.9,35.2,76.9,35.2z M56.5,67c0,0,0.2-0.1,0.2-0.1
	C56.8,67,57,67,57.2,67c0.1,0,0.3,0.2,0.2,0.2c0,0.2-0.1,0.3-0.2,0.4c0,0.1-0.3,0.1-0.3,0.2c-0.1,0-0.2,0-0.3,0
	c-0.1-0.1-0.3-0.2-0.4-0.3C56.2,67.3,56.3,67.1,56.5,67z M70.8,7.2c0,0,0.2-0.1,0.2-0.1c0.1,0,0.2,0,0.3,0c0.1,0.1,0.3,0.2,0.3,0.3
	C71.7,7.8,71.6,8,71.3,8c-0.3,0.1-0.6-0.1-0.6-0.4C70.6,7.5,70.7,7.3,70.8,7.2z M20.8,54h0.4c0.1,0,0.2,0.1,0.3,0.2
	c0,0.1,0,0.3,0,0.3c-0.1,0.1-0.2,0.3-0.3,0.4c0,0-0.2,0-0.3,0c-0.1,0-0.3-0.1-0.3-0.2c0,0-0.1-0.2-0.1-0.2c0-0.1,0.1-0.3,0.1-0.3
	C20.7,54.2,20.8,54,20.8,54z M51.5,64.9c0,0,0.1-0.2,0.1-0.2H52c0.1,0,0.1,0.1,0.2,0.2c0,0.1,0.1,0.3,0,0.4c0,0.1-0.1,0.2-0.1,0.2
	c-0.2,0.1-0.3,0.2-0.4,0.2c-0.1,0-0.3-0.1-0.3-0.1c-0.1-0.1-0.2-0.3-0.1-0.4C51.2,65,51.4,64.9,51.5,64.9z M30,37.5
	c0,0.1,0,0.2,0,0.2c0.1,0.2,0.3,0.5,0.4,0.7c0.1,0.1,0.3,0.2,0.5,0.2c0.1,0,0.2-0.1,0.2-0.2l-0.1-0.5l-0.5-0.5
	C30.3,37.5,30.1,37.5,30,37.5z M34.8,38.2c0,0.1,0,0.1,0.1,0.2c0.2,0.2,0.3,0.4,0.5,0.6l1.3-0.1v-0.2c-0.3,0-0.6-0.2-0.9-0.2
	c-0.3-0.1-0.6-0.2-0.7-0.3c0,0-0.1,0-0.2,0C34.9,38.1,34.8,38.2,34.8,38.2z M21.7,30.8c0,0,0.1-0.1,0.1,0l0.7,0.3
	c0,0,0.2,0.2,0.2,0.2c0,0,0,0.2,0,0.2c-0.1,0.1-0.2,0.2-0.3,0.2c-0.1,0-0.3,0-0.3,0c-0.3-0.1-0.4-0.4-0.5-0.7
	C21.6,30.9,21.7,30.8,21.7,30.8z M54.9,26c0,0,0.2,0,0.3,0l0.5,0.2c0,0,0.2,0.2,0.2,0.2c0,0,0,0.1,0,0.2c0,0.1-0.1,0.2-0.2,0.2h-0.5
	c-0.1,0-0.3-0.1-0.4-0.1c0,0-0.2-0.1-0.2-0.2c0,0,0-0.2,0-0.2C54.7,26.3,54.8,26.1,54.9,26z M12,41.1h0.6c0.1,0,0.2,0.2,0.2,0.3
	c0,0.2-0.1,0.3-0.1,0.4c-0.4,0-0.6,0.1-1.1,0c0,0-0.1,0-0.1-0.1c0-0.1,0-0.2,0.1-0.3C11.6,41.2,11.8,41.2,12,41.1z M80.2,64.1
	c0,0,0.3,0,0.3,0c0.1,0.1,0.3,0.2,0.4,0.3c0,0.2-0.1,0.3-0.2,0.4c0,0.1-0.3,0.1-0.3,0.1c0,0-0.2,0-0.2,0c-0.2-0.1-0.3-0.3-0.4-0.6
	C79.9,64.4,80.1,64.3,80.2,64.1z M53.7,18c0-0.1,0.2-0.1,0.2-0.1c0,0.1,0,0.3,0,0.4c-0.1,0.2-0.1,0.5-0.2,0.7c0,0-0.1,0.1-0.1,0.2
	v0.4c0,0.1-0.1,0.1-0.2,0.2c0,0-0.1,0-0.2,0c-0.1,0-0.2-0.1-0.2-0.2c0.1-0.3,0.2-0.7,0.3-1C53.5,18.4,53.6,18.2,53.7,18z M74.1,65.3
	h0.4c0.1,0,0.2,0.1,0.3,0.2c0,0.1,0,0.2,0,0.3c0,0.1-0.1,0.3-0.2,0.3c0,0-0.2,0.1-0.2,0.1c-0.1,0-0.3-0.1-0.4-0.2
	c-0.1-0.1-0.1-0.3-0.1-0.3c0,0,0-0.2,0-0.2C73.8,65.5,74,65.3,74.1,65.3z M57.3,73.5c0.1-0.1,0.3,0,0.4,0c0.1,0,0.1,0.1,0.1,0.1
	c0.1,0.3,0.1,0.6,0.1,0.9c0,0-0.1,0.1-0.2,0.1c0,0-0.2,0-0.2,0c0,0-0.2-0.1-0.2-0.1c0,0,0-0.2,0-0.2l-0.2-0.4c0,0,0-0.2,0-0.3
	C57.1,73.6,57.2,73.5,57.3,73.5z M41.1,27.6c0,0,0.2,0,0.2,0c0,0,0.1,0.1,0.1,0.1v1.3c0,0.1-0.1,0.3-0.2,0.3c0,0-0.2,0-0.2,0
	c0-0.2,0-0.3-0.1-0.4c0.2-0.3,0.1-0.7,0-1c0-0.1,0-0.2,0-0.2C41,27.7,41.1,27.6,41.1,27.6z M55.3,50.9v-0.4c0,0,0.2,0,0.2,0
	c0.4,0.5,0.9,1,1.3,1.4c0,0,0.1,0.1,0,0.2c-0.2,0-0.3-0.1-0.5-0.2l-0.5-0.5C55.9,51.1,55.6,51,55.3,50.9z M16.9,52.5
	c0,0,0.1,0,0.2,0c0.1,0,0.2,0.2,0.3,0.3c0.1,0.1,0.1,0.5,0,0.6c-0.1,0-0.2,0.1-0.3,0.1c-0.3,0-0.5-0.3-0.4-0.6L16.9,52.5z M26.1,53
	c0,0,0.1,0,0.2,0c0.1,0.1,0.3,0.2,0.4,0.3c0,0.2-0.1,0.3-0.2,0.4c0,0-0.1,0.1-0.1,0.1H26c-0.1-0.1-0.2-0.3-0.2-0.6
	C25.8,53.1,26,53.1,26.1,53z M55.4,72.4c0,0,0.1,0,0.1,0c0.2,0,0.4,0.1,0.4,0.3c0,0.2-0.2,0.4-0.3,0.5c-0.2,0-0.4,0-0.6,0.1
	c0,0-0.1-0.2-0.1-0.2c0-0.2,0-0.3,0.1-0.4C55.1,72.5,55.3,72.4,55.4,72.4z M82.6,28.3l0.4-0.1c0,0,0.1,0.1,0.2,0.2c0,0,0,0.1,0,0.2
	c0,0-0.1,0.2-0.2,0.2c-0.2,0.1-0.5,0.2-0.7,0.3c-0.1,0-0.3,0-0.4,0c0,0-0.1-0.1-0.1-0.1C82,28.8,82.2,28.5,82.6,28.3z M42,40.9
	c0,0-0.1,0.1-0.1,0.1c0,0.1,0,0.3,0,0.4c0,0.2,0.2,0.4,0.5,0.4c0.1,0,0.3-0.1,0.4-0.2c0,0,0-0.2,0-0.3c0-0.1-0.2-0.3-0.3-0.3
	c-0.1,0-0.3-0.1-0.3-0.1C42.1,40.9,42,40.9,42,40.9z M44.1,70.9c0.1,0,0.3,0,0.4,0c0.1,0.1,0.2,0.3,0.3,0.5c0.1,0.1-0.1,0.2-0.1,0.3
	c-0.2,0-0.5,0-0.7,0c0,0-0.1-0.1-0.1-0.1v-0.4C43.8,71.1,44,70.9,44.1,70.9z M52.2,27.9c-0.1,0-0.3,0.1-0.3,0.1
	c-0.2,0-0.3-0.1-0.5-0.1l-0.5,0.3c0.1,0.1,0.2,0.2,0.3,0.2h0.5c0.2-0.2,0.5-0.2,0.7-0.5c0-0.1,0.1-0.1,0-0.2
	C52.4,27.8,52.3,27.9,52.2,27.9z M46.2,58.8c0.1,0,0.2,0.1,0.3,0.2l0.4,2.1c-0.2-0.3-0.3-0.7-0.4-1c-0.1-0.3-0.3-0.7-0.4-1.1
	c0,0,0-0.1,0-0.2C46.1,58.9,46.2,58.8,46.2,58.8z M15.7,62c0.1,0,0.4,0,0.6,0c0,0,0.2,0.1,0.2,0.2c0,0.3-0.1,0.5-0.3,0.5
	c0,0-0.1,0-0.1,0c-0.2-0.1-0.3-0.1-0.4-0.2c0-0.1,0-0.3,0-0.4C15.5,62.2,15.6,62.1,15.7,62z M11.1,47c0.2,0,0.6,0,0.9,0
	c0,0.1,0,0.3,0,0.3c-0.2,0.2-0.7,0.4-1.1,0.2c-0.1-0.1-0.1-0.2-0.1-0.3C10.9,47.1,11,47,11.1,47z M34.3,62.1
	c0.3-0.1,0.6,0.1,0.6,0.5c-0.1,0.1-0.3,0.4-0.6,0.3c-0.1,0-0.2-0.1-0.3-0.2c0-0.1,0-0.3,0-0.3C34.1,62.3,34.3,62.1,34.3,62.1z
	 M6.8,65c0,0,0.1,0,0.2,0c0.1,0.1,0.2,0.1,0.3,0.2c0,0,0,0.2,0,0.3c-0.1,0.1-0.1,0.3-0.2,0.3H6.6c-0.1,0-0.2-0.1-0.3-0.2
	c0,0,0-0.1,0-0.2c0-0.1,0.1-0.1,0.2-0.2c0,0,0.1,0,0.2,0C6.7,65.1,6.8,65,6.8,65z M23.8,40.7c-0.1,0-0.3,0.1-0.3,0.2
	c-0.1,0.1-0.3,0.2-0.4,0.3c0,0,0,0.2,0,0.2h0.8c0.1,0,0.3-0.2,0.3-0.3c0,0,0-0.2,0-0.2c0,0-0.2-0.2-0.2-0.2
	C24,40.7,23.9,40.7,23.8,40.7z M79,69.5c0.1-0.1,0.3,0,0.5,0c0.1,0,0.1,0.2,0.2,0.3c0,0.1,0,0.2,0,0.3c-0.1,0.1-0.1,0.2-0.2,0.2
	c-0.3,0-0.5-0.1-0.5-0.4C78.8,69.8,78.9,69.6,79,69.5z M75.5,16.9c0.1,0,0.2-0.1,0.3,0l-0.7,0.7c-0.1,0.1-0.2,0.2-0.3,0.2
	c0,0-0.3,0-0.3,0c0,0,0-0.2,0-0.2c0.2-0.1,0.3-0.4,0.4-0.5c0,0,0.3,0,0.3,0C75.3,17,75.4,16.9,75.5,16.9z M5.8,36.9
	c0.1,0,0.1-0.1,0.2,0c0.1,0.1,0.2,0.1,0.2,0.2c0.1,0.3-0.1,0.6-0.5,0.6c-0.1,0-0.2-0.2-0.3-0.4C5.5,37.2,5.6,37,5.8,36.9z
	 M66.4,60.1c0.3-0.1,0.5,0.1,0.5,0.3c0,0.1,0,0.3,0,0.4c0,0-0.1,0.1-0.1,0.1c-0.1,0-0.2,0-0.3-0.1l-0.4-0.4c0,0,0-0.1,0-0.2
	C66.1,60.2,66.3,60.1,66.4,60.1z M28.7,35.7c-0.1,0-0.3,0.1-0.3,0.1c0,0-0.2,0.2-0.2,0.2c0,0,0,0.2,0,0.2l0.5,0c0.2,0,0.5,0,0.7-0.1
	c-0.1-0.2-0.3-0.3-0.4-0.4C28.9,35.6,28.8,35.6,28.7,35.7z M24.9,49.2c0.1,0,0.3,0,0.3,0c0.1,0.1,0.2,0.2,0.2,0.3c0,0,0,0.2,0,0.2
	c-0.1,0.1-0.1,0.2-0.2,0.3c0,0-0.2,0-0.3,0c-0.1-0.1-0.2-0.1-0.3-0.2c0,0,0-0.2,0-0.3C24.7,49.4,24.9,49.2,24.9,49.2z M75.6,73.8
	c0,0,0-0.2,0-0.2c0,0,0.2,0,0.2,0l0.4,0.4c0.2,0.3,0.4,0.5,0.5,0.9c0,0-0.2,0-0.2,0l-0.4-0.4c0,0-0.1-0.2-0.1-0.2L75.6,73.8z
	 M38.5,72.3c0.1-0.1,0.3,0,0.5,0c0.1,0,0.2,0.1,0.2,0.2c0,0,0,0.2,0,0.3c0,0.1-0.1,0.1-0.1,0.2c-0.1,0-0.2,0-0.3,0
	c-0.2-0.1-0.3-0.1-0.4-0.3C38.3,72.6,38.4,72.5,38.5,72.3z M46.6,39.9v0.3c0.2,0.1,0.3,0.2,0.4,0.3c0,0,0.1,0,0.2,0
	c0.1-0.1,0.2-0.3,0.2-0.4c0,0,0-0.1,0-0.2c0-0.1-0.1-0.2-0.2-0.2C47.1,39.9,46.8,39.9,46.6,39.9z M24.2,27.9h0.4
	c0.1,0,0.1,0.1,0.2,0.2c0,0,0,0.2,0,0.3c-0.1,0.1-0.3,0.2-0.6,0.2c-0.1,0-0.2-0.1-0.3-0.2c0,0,0-0.1,0-0.2
	C24,28.1,24.1,27.9,24.2,27.9z M48.5,29.3l-0.2,0.5c0,0,0,0.2,0,0.2c0,0.1,0.1,0.1,0.2,0.2c0,0,0.1,0,0.2,0c0.1-0.1,0.2-0.2,0.3-0.4
	c0,0,0-0.1,0-0.2c0-0.1-0.1-0.3-0.2-0.3C48.7,29.2,48.6,29.2,48.5,29.3z M44.5,17c0-0.1,0.1-0.1,0.2-0.2c0,0.3,0,0.8,0,1.1
	c0,0.1,0,0.2-0.1,0.3c0,0-0.1,0-0.1,0c-0.1-0.1-0.2-0.1-0.2-0.2C44.4,17.6,44.4,17.3,44.5,17z M37.2,39.1c0,0-0.1,0.2-0.1,0.2
	c0,0.1,0,0.2,0,0.3c0.1,0.1,0.2,0.3,0.3,0.2c0.2,0,0.3-0.1,0.4-0.2c0,0,0.1-0.3,0-0.3c-0.1-0.1-0.2-0.2-0.3-0.3
	C37.4,39,37.3,39,37.2,39.1z M64.5,70.5c0.3-0.1,0.5,0.1,0.5,0.3c0,0.1-0.1,0.3-0.2,0.3h-0.5c0,0-0.1-0.1-0.1-0.2c0,0,0-0.2,0-0.2
	C64.2,70.6,64.3,70.5,64.5,70.5z M44.8,51.5c0,0-0.2,0.1-0.2,0.2c-0.1,0.1-0.1,0.3-0.1,0.4c0,0.1,0.1,0.2,0.2,0.2c0,0,0.1,0,0.2,0
	c0.1-0.1,0.2-0.2,0.2-0.3v-0.4c0-0.1-0.1-0.1-0.2-0.2C45,51.5,44.8,51.5,44.8,51.5z M39.9,64c0.1-0.1,0.2-0.1,0.3,0
	c0.1,0.1,0.2,0.2,0.2,0.5c0,0.1-0.2,0.2-0.3,0.3c0,0-0.1,0-0.2,0c-0.1-0.1-0.2-0.1-0.3-0.2c0-0.1,0-0.3,0-0.3
	C39.7,64.1,39.9,64,39.9,64z M57.8,12.4c0-0.1,0.1-0.1,0.2-0.1v0.7c-0.1,0.2-0.2,0.4-0.3,0.6c-0.1,0-0.3,0-0.2,0
	c0-0.2,0.1-0.3,0.1-0.4c0-0.1,0-0.3,0-0.4C57.7,12.7,57.8,12.5,57.8,12.4z M43.6,66.1c0.1-0.1,0.1-0.1,0.2-0.1
	c0.2,0.1,0.3,0.1,0.4,0.2c0,0,0,0.2,0,0.3c-0.1,0.1-0.2,0.2-0.2,0.4h-0.3C43.7,66.5,43.7,66.3,43.6,66.1z M48.9,49.7
	c0,0,0.1-0.1,0.1-0.1c0.1,0,0.3,0,0.3,0c0.1,0.2,0,0.5,0,0.8c0,0.1-0.1,0.2-0.2,0.2c-0.1,0-0.2-0.2-0.2-0.3c0-0.1,0.1-0.3,0.1-0.5
	C48.9,49.8,48.9,49.7,48.9,49.7z M40.5,34.3c0,0.1,0.2,0.2,0.2,0.2v0.4c0.1,0.1,0.2,0.3,0.4,0.4c0.1-0.3,0.1-0.5,0.1-0.8
	c0-0.1-0.1-0.2-0.2-0.2C40.8,34.2,40.5,34.2,40.5,34.3z M37.8,27.6c0-0.1,0.1,0,0.1,0c0.1,0,0.3,0.1,0.3,0.1c0,0.2,0.1,0.4,0.2,0.5
	c0,0.1,0,0.3,0,0.4c-0.1,0-0.1,0-0.2-0.1c-0.1-0.1-0.2-0.2-0.3-0.2c-0.1,0-0.1-0.1-0.1-0.2c0-0.1,0-0.3,0-0.4
	C37.9,27.7,37.8,27.6,37.8,27.6z M34.4,35.3c0,0,0-0.2,0-0.2c0.1,0,0.1,0,0.2,0.1c0.1,0.2,0.1,0.5,0.2,0.7c0,0.1,0.1,0.2,0,0.2
	c0,0-0.2,0-0.2,0l-0.4-0.4c0,0,0-0.1,0-0.2C34.2,35.5,34.4,35.4,34.4,35.3z M24.9,42.5c0,0-0.2,0.1-0.2,0.1c0,0,0,0.1,0,0.2
	c0.1,0.1,0.3,0.1,0.3,0.2c0,0,0.2,0,0.2,0c0.1,0,0.3-0.1,0.3-0.1c0.1,0,0-0.2,0-0.2c0,0-0.1-0.1-0.1-0.1c-0.1,0-0.3,0-0.3,0
	C25,42.4,25,42.4,24.9,42.5z M35.7,54.4c0,0.1,0.2,0.2,0.3,0.2c0,0,0.1,0,0.2,0c0.1,0,0.1-0.1,0.2-0.2c0,0,0-0.2,0-0.2
	c0-0.1-0.2-0.2-0.2-0.2c0,0,0-0.2,0-0.2h-0.4V54.4z M20.5,56.9c0,0,0.1-0.1,0.2-0.1c0,0.1,0,0.3,0,0.3c0,0.1-0.2,0.3-0.3,0.3
	c-0.1,0.1-0.2,0.2-0.3,0.2c0,0-0.2,0-0.2,0c0-0.2,0.1-0.3,0.2-0.5C20.1,57.1,20.3,57.1,20.5,56.9z M10.3,62.2c0.2,0,0.3,0.1,0.4,0.2
	c0,0,0,0.3,0,0.3c0,0.1-0.1,0.1-0.1,0.2c-0.1,0-0.3,0-0.3,0c-0.1,0-0.1-0.1-0.2-0.1c0,0,0-0.2,0-0.2C10,62.4,10.2,62.2,10.3,62.2z
	 M33.8,69.4c0.1,0,0.2-0.1,0.3-0.1c0.1,0,0.2,0.1,0.3,0.2c0,0,0,0.1,0,0.2c-0.1,0.1-0.1,0.2-0.2,0.3c0,0-0.2,0-0.3,0
	c0,0-0.2-0.2-0.2-0.2C33.6,69.6,33.7,69.4,33.8,69.4z M14.5,62.2c0.1-0.1,0.3,0,0.4,0c0.1,0,0.1,0.1,0.2,0.1c0,0,0,0.2,0,0.2
	c-0.1,0.1-0.2,0.3-0.2,0.2c-0.2,0-0.3-0.1-0.4-0.1c0,0,0-0.3,0-0.3C14.4,62.4,14.5,62.3,14.5,62.2z M56.8,32.1c0,0,0.2,0,0.3,0
	c0,0,0,0.2,0,0.2c-0.2,0.2-0.6,0.4-1,0.3c0-0.1,0-0.2,0.1-0.2L56.8,32.1z M71.6,72.3c0,0,0.1-0.1,0.1,0c0.1,0,0.3,0.1,0.3,0.1
	c0,0,0.2,0.2,0.2,0.2c0,0,0,0.1,0,0.2c0,0.1-0.1,0.1-0.2,0.2c0,0-0.1,0-0.2,0l-0.5-0.3c0,0,0-0.1,0-0.2
	C71.5,72.4,71.6,72.3,71.6,72.3z M67.4,60c0,0,0.2,0,0.2,0l0.6,0.6c0,0,0,0.2,0,0.3c-0.2-0.1-0.4-0.2-0.6-0.3
	C67.5,60.4,67.6,60.2,67.4,60z M43.7,69.5c0,0.1,0.1,0.3,0.1,0.3c0,0.3,0.1,0.5,0.1,0.7c0,0-0.1,0.1-0.1,0.1c-0.1,0-0.1,0-0.1,0
	c0-0.1-0.1-0.3-0.1-0.3v-0.7C43.5,69.6,43.6,69.5,43.7,69.5z M77.4,12.6c0-0.1,0.2-0.1,0.2,0l0.3,0.5c0,0.1-0.1,0.2-0.2,0.2
	c0,0-0.1,0-0.1,0c-0.1,0-0.2-0.1-0.2-0.2C77.5,13,77.4,12.8,77.4,12.6z M50.3,39.8c0,0.1,0.1,0.1,0.2,0.1c0.3,0,0.4,0.2,0.7,0.2
	c0-0.2-0.1-0.3-0.2-0.4c0,0-0.2-0.2-0.2-0.2h-0.5C50.3,39.6,50.3,39.7,50.3,39.8z M68.8,21c0.1,0,0.2-0.1,0.3,0c0,0.1,0,0.1,0,0.2
	c-0.1,0.2-0.4,0.3-0.7,0.4c-0.1,0-0.2-0.1-0.2-0.2c0,0,0-0.2,0-0.2c0.1,0,0.3,0,0.3,0C68.6,21.1,68.8,21,68.8,21z M30.1,39.8
	c0,0,0,0.2,0,0.2c0.1,0.1,0.2,0.3,0.4,0.3c0,0,0.1-0.1,0.2-0.1c0,0,0-0.2,0-0.2l-0.4-0.4c0,0-0.1-0.1-0.2,0
	C30.1,39.7,30.1,39.8,30.1,39.8z M29.7,36.6l-0.2,0.5c0,0.1,0.1,0.2,0.2,0.2c0,0,0.2,0,0.3,0c0-0.3-0.1-0.5-0.1-0.8
	C29.9,36.5,29.7,36.5,29.7,36.6z M49.7,54.6c0-0.1,0-0.3,0-0.4c0,0,0.2,0,0.2,0c0.1,0.1,0.2,0.2,0.3,0.3c0,0,0,0.1,0,0.2
	c0,0.1-0.1,0.1-0.2,0.2c0,0-0.1,0-0.2,0C49.9,54.8,49.7,54.7,49.7,54.6z M52.9,22.2c0.1,0,0.1-0.1,0.2,0c0,0.5-0.1,0.9-0.4,1.1
	c-0.1-0.1-0.1-0.3,0-0.4c0,0,0.2-0.2,0.2-0.2c0,0,0-0.2,0-0.3C52.9,22.3,52.9,22.2,52.9,22.2z M47.7,71.8c0,0,0.2,0,0.2,0
	c0,0,0.2,0.2,0.2,0.2c0,0,0,0.2,0,0.2c0,0.1-0.1,0.1-0.1,0.2c0,0-0.1,0-0.2,0c-0.1-0.1-0.2-0.1-0.3-0.2c0,0,0-0.1,0-0.2
	C47.6,72,47.7,71.8,47.7,71.8z M78.7,64.4c0,0,0.1-0.1,0.1,0c0.1,0.1,0.3,0.1,0.4,0.2c0,0,0,0.2,0,0.2c-0.1,0.1-0.2,0.2-0.2,0.2
	c-0.2,0-0.3-0.1-0.4-0.2c0,0,0-0.2,0-0.3C78.7,64.5,78.7,64.4,78.7,64.4z M27,58.5c0.1,0,0.1-0.1,0.2-0.1c0,0,0.2,0.1,0.2,0.2
	c0,0,0,0.2,0,0.2c-0.1,0.1-0.2,0.2-0.2,0.2c-0.2,0-0.3-0.1-0.4-0.2c0,0,0-0.2,0-0.2C26.8,58.5,26.9,58.5,27,58.5z M7.9,58.3
	c0.1,0,0.2-0.1,0.3-0.1c0.1,0,0.2,0.2,0.2,0.2c0,0,0,0.1,0,0.2c0,0-0.1,0.2-0.2,0.2c-0.2,0.1-0.4-0.1-0.4-0.2
	C7.7,58.5,7.8,58.4,7.9,58.3z M17.8,48.4c0.1,0,0.1-0.1,0.2,0c0.1,0,0.1,0.1,0.2,0.2c0,0,0,0.2,0,0.2c-0.1,0.1-0.2,0.2-0.4,0.2
	c0,0-0.2-0.2-0.2-0.2c0,0,0-0.2,0-0.2C17.7,48.5,17.8,48.4,17.8,48.4z M44.3,25.4c0,0-0.1,0.1-0.1,0.1c0,0,0,0.2,0,0.2
	c0,0,0.1,0.1,0.1,0.1c0,0,0.2,0,0.2,0c0.1,0,0.3-0.1,0.3-0.1c0.1-0.1,0.2-0.2,0.3-0.4C44.9,25.3,44.6,25.4,44.3,25.4z M36.8,34.2
	c0.1,0.1,0.2,0.2,0.3,0.2c0.3,0,0.4-0.1,0.6-0.2c-0.3-0.1-0.5-0.2-0.9-0.2C36.8,34,36.7,34.1,36.8,34.2z M20.9,25.7
	c0,0,0.1-0.2,0.1-0.2c0.1,0,0.3,0,0.3,0c0,0,0.1,0.1,0.1,0.2c0,0,0,0.2,0,0.2c0,0-0.1,0.1-0.1,0.1C21.1,26,21,25.9,20.9,25.7
	C20.9,25.7,20.9,25.7,20.9,25.7z M78.1,32.9h0.6c0,0.1-0.1,0.3-0.2,0.3L78,33.3c0,0-0.1,0.1-0.2,0.1c0,0,0-0.2,0-0.2
	C77.9,33.1,78.1,32.9,78.1,32.9z M38.4,20.3c0.1-0.1,0.2,0,0.2,0c0.1,0.1,0.1,0.2,0.2,0.3c0,0.1,0,0.3,0,0.3c0,0-0.2,0-0.2,0
	c-0.1-0.1-0.2-0.3-0.2-0.4C38.3,20.4,38.3,20.3,38.4,20.3z M43.2,33.5c-0.2,0-0.3,0.2-0.4,0.3c0,0,0,0.1,0,0.1c0,0,0.2,0.1,0.2,0.1
	c0.2,0,0.3-0.1,0.4-0.2c0,0,0-0.2,0-0.2C43.4,33.6,43.3,33.5,43.2,33.5z M31.9,41.8c0,0,0.1,0.1,0.1,0.1c0,0,0.2,0,0.2,0
	c0,0,0.1-0.1,0.1-0.1c0,0,0-0.2,0-0.3c0,0-0.1-0.1-0.1-0.2c0,0,0-0.2,0-0.2c0-0.1-0.1-0.1-0.2-0.1V41.8z M0.9,63.9
	c0.1-0.1,0.2-0.1,0.3-0.1c0,0,0.1,0.1,0.1,0.1c0,0,0,0.2,0,0.2c0,0.1-0.2,0.2-0.2,0.2c0,0-0.2,0-0.2,0c0,0-0.1-0.1-0.1-0.1
	C0.7,64.1,0.8,64,0.9,63.9z M73,73.1c0.1-0.1,0.2-0.1,0.2,0c0,0,0.2,0.1,0.2,0.2c0,0.2-0.1,0.3-0.2,0.4c0,0-0.1,0-0.1,0
	c-0.1,0-0.1-0.1-0.2-0.2c0,0,0-0.2,0-0.3C73,73.2,73,73.2,73,73.1z M27.3,37.3c-0.1,0-0.3,0.1-0.2,0.2c0,0.1,0.2,0.2,0.2,0.2
	c0.1,0,0.3,0,0.4,0c0-0.1,0-0.3,0-0.3C27.6,37.4,27.5,37.3,27.3,37.3z M42.4,31.5c0.1,0.1,0.2,0.1,0.3,0.2c0,0,0.1,0,0.2,0
	c0,0,0.1-0.1,0.1-0.1c0,0,0-0.2,0-0.2c0,0-0.1-0.1-0.1-0.1h-0.6C42.3,31.4,42.3,31.4,42.4,31.5z M75.4,59.2c0.1,0,0.3,0,0.4,0
	c0,0.1,0,0.3,0,0.3c-0.1,0.1-0.2,0.1-0.3,0.2c-0.1,0-0.3-0.2-0.2-0.3C75.2,59.3,75.3,59.2,75.4,59.2z M17.8,14.9
	c0.1,0,0.2,0.1,0.3,0.1c0,0,0,0.2,0,0.2c0,0.1-0.1,0.1-0.2,0.2c0,0-0.1,0-0.2,0c0,0-0.2-0.1-0.2-0.2C17.5,15,17.7,14.9,17.8,14.9z
	 M84.5,0.2c0,0.1,0,0.2,0,0.3c0,0.2-0.2,0.2-0.4,0.3c-0.1,0-0.2,0-0.2,0C83.9,0.4,84.1,0.2,84.5,0.2L84.5,0.2z M48.9,19
	c0-0.1,0.1-0.1,0.2-0.1c0,0.2,0.1,0.5,0.1,0.7c0,0-0.1,0.1-0.1,0.1c-0.1,0-0.1,0-0.1,0c-0.1-0.1-0.1-0.3-0.1-0.4
	C48.8,19.2,48.8,19,48.9,19z M29.6,38.8c0,0-0.1,0.1-0.1,0.1l0.1,0.6c0,0.1,0.2,0.2,0.3,0.2c0-0.3-0.2-0.5-0.1-0.8
	C29.8,38.8,29.7,38.7,29.6,38.8z M56.9,27.2c0,0,0.2,0,0.2,0c0,0,0.1,0.1,0.1,0.1c0,0.2-0.1,0.3-0.2,0.3c0,0-0.1,0-0.2,0
	c0,0-0.1-0.1-0.1-0.1c0,0,0-0.2,0-0.2C56.7,27.3,56.8,27.2,56.9,27.2z M33.4,36v-0.5c0.1,0,0.3,0,0.4,0c0,0,0.1,0.1,0.1,0.1
	c0,0.2-0.1,0.3-0.2,0.4C33.7,36.1,33.5,36,33.4,36z M44.9,54.4v-0.8c0.1,0.1,0.2,0.2,0.3,0.3c0,0.1,0,0.3,0,0.4
	c0,0.1-0.1,0.3-0.1,0.3C45.1,54.6,44.9,54.5,44.9,54.4z M42.5,30.4c-0.1,0-0.2,0.2-0.3,0.3c0,0,0,0.2,0,0.2c0.1,0,0.3,0,0.3,0
	c0.1,0,0.2-0.2,0.2-0.3c0,0,0-0.2,0-0.2C42.8,30.4,42.6,30.4,42.5,30.4z M54.1,10.3c0.1-0.1,0.2,0,0.2,0c-0.1,0.2-0.1,0.5-0.2,0.6
	C54,11,53.9,11,53.8,11c0-0.1,0-0.3,0-0.4C53.8,10.5,54,10.4,54.1,10.3z M76.7,58c0.1,0,0.1-0.1,0.2,0S77,58,77,58.1
	c0,0,0,0.2,0,0.2c-0.1,0-0.3,0.1-0.5,0c0,0-0.1-0.1-0.1-0.1c0,0,0-0.1,0-0.2C76.5,58.1,76.6,58,76.7,58z M46.1,24.9
	c0,0-0.1,0.1-0.1,0.2c0,0.1,0.1,0.2,0.2,0.3c0,0,0.1,0,0.1,0c0,0,0.1-0.1,0.1-0.1c0,0,0-0.2,0-0.2C46.4,25,46.3,24.8,46.1,24.9z
	 M3.3,47.3c0,0,0.2,0,0.2,0c0,0,0.1,0.1,0.1,0.2c0,0.1-0.1,0.2-0.2,0.3c0,0-0.1,0-0.1,0c-0.1,0-0.1-0.1-0.2-0.2c0,0,0-0.1,0-0.2
	C3.2,47.4,3.3,47.3,3.3,47.3z M39.9,39c0,0.2,0.1,0.3,0.2,0.4c0,0,0.2,0,0.2,0c0,0,0.1-0.1,0.1-0.1c0-0.1,0-0.2,0-0.2
	c-0.1,0-0.2,0-0.3,0C40.1,39,40.1,39,40,38.9C40,38.9,39.9,39,39.9,39z M7,12.4c0.1-0.1,0.3-0.1,0.3,0c0.1,0.1,0,0.2,0,0.2
	c0,0-0.1,0.1-0.2,0.1c0,0-0.2,0-0.2,0c0,0-0.1-0.1-0.1-0.1c0,0,0-0.1,0-0.2C6.9,12.5,6.9,12.4,7,12.4z M41.7,53.9
	c0,0.2,0.1,0.3,0.2,0.4c0,0,0.3,0,0.3,0c0-0.1-0.1-0.1-0.1-0.2c0,0,0-0.1,0-0.2c0-0.1-0.1-0.1-0.2-0.2c0,0-0.1,0-0.2,0
	C41.7,53.8,41.7,53.8,41.7,53.9z M11.9,42c0,0,0.1-0.1,0.1-0.1h0.5c0,0.1,0,0.2-0.1,0.2c-0.1,0.1-0.2,0.1-0.4,0.1
	C12,42.3,11.9,42.2,11.9,42C11.9,42.1,11.9,42.1,11.9,42z M39.2,26.1c-0.1,0.1-0.2,0.2-0.1,0.4c0,0,0.1,0,0.2,0c0,0,0.2-0.1,0.2-0.2
	c0,0,0-0.1,0-0.2c0,0-0.1-0.1-0.1-0.1C39.4,26.1,39.3,26.1,39.2,26.1z M60.1,18.9c0,0,0.1-0.1,0.1-0.1c0,0,0.2,0,0.2,0
	c0,0.2-0.1,0.5-0.3,0.5c0,0-0.1,0-0.1,0C60,19.1,60.1,19,60.1,18.9z M24.8,29.8c-0.1-0.1-0.1-0.1-0.1-0.2c0,0,0.2,0,0.2,0
	c0.1,0,0.3,0.1,0.3,0.2c0.1,0.1,0.1,0.1,0.1,0.2c0,0-0.2,0-0.2,0C25,29.9,24.9,29.9,24.8,29.8z M0.2,26.8c0.1-0.1,0.2,0.1,0.2,0.2
	c0,0,0,0.1,0,0.2c0,0-0.1,0.1-0.1,0.1c-0.1,0-0.3,0-0.3,0c0-0.1,0-0.3,0-0.3C0,26.8,0.2,26.8,0.2,26.8z M56.1,31.6
	c0.2-0.1,0.1,0.2,0.1,0.2C56.1,32,55.9,32,55.6,32c0-0.1,0-0.1,0-0.2C55.8,31.7,55.9,31.6,56.1,31.6z M23.4,54
	c0.1,0,0.2,0.1,0.3,0.1c0,0,0,0.1,0,0.1c0,0.1-0.1,0.1-0.2,0.2c0,0-0.1,0-0.2,0c-0.1,0-0.1-0.1-0.2-0.2c0,0,0-0.1,0-0.2
	C23.3,54.1,23.4,54,23.4,54z M23.1,48.6c0,0,0.2,0,0.2,0c0,0,0.1,0.1,0.1,0.1c0,0,0,0.1,0,0.2c0,0.1-0.1,0.1-0.2,0.2
	c0,0-0.1,0-0.2,0c0-0.1-0.2-0.2-0.1-0.3C23,48.7,23.1,48.6,23.1,48.6z M57.3,35.6c0.1-0.1,0.3,0,0.4,0c0.1,0,0.1,0.1,0.2,0.1
	c0,0,0,0.2,0,0.2h-0.3C57.5,35.8,57.4,35.7,57.3,35.6z M77.6,7.1C77.7,7,77.9,7,77.9,7.1c0,0,0,0.1,0,0.2c0,0-0.1,0.1-0.2,0.1
	c-0.1,0-0.2-0.1-0.3-0.1c0,0,0-0.1,0-0.2C77.5,7.1,77.6,7.1,77.6,7.1z M20,31c0,0,0.1-0.2,0.1-0.2c0,0,0.1,0,0.2,0
	c0.1,0,0.1,0.1,0.2,0.2c0,0,0,0.1,0,0.2c0,0-0.1,0.1-0.1,0.1c0,0-0.2,0-0.2,0C20.1,31.2,20,31.1,20,31C20,31.1,20,31,20,31z
	 M49.3,53.3v-0.5c0.1,0,0.1,0.1,0.1,0.2c0.1,0.2,0.2,0.4,0.2,0.6c-0.1,0-0.2,0-0.2,0c0,0-0.1-0.1-0.1-0.1
	C49.3,53.4,49.3,53.3,49.3,53.3z M29.7,35.7c0.1,0.1,0.2,0.3,0.4,0.4l0.1-0.1l-0.3-0.5h-0.2C29.7,35.5,29.7,35.7,29.7,35.7z
	 M36.5,54.7c0,0-0.1,0.1-0.1,0.1c0,0,0,0.2,0,0.2c0,0.1,0.2,0,0.2,0c0,0,0.1-0.1,0.1-0.1c0,0,0-0.2,0-0.2
	C36.7,54.6,36.6,54.6,36.5,54.7z M81.9,43.7c0-0.1-0.1-0.1,0-0.2c0.1,0,0.3,0,0.3,0c0.1,0.1,0.3,0.2,0.3,0.4
	C82.3,43.9,82.1,43.8,81.9,43.7C82,43.7,81.9,43.7,81.9,43.7z M87,29.4c0,0,0-0.2,0-0.2c0.1,0,0.3,0,0.3,0c0,0,0.1,0.1,0.1,0.1
	c0,0,0,0.2,0,0.2c0,0-0.1,0.1-0.1,0.1c0,0-0.1,0-0.2,0C87.1,29.5,87.1,29.5,87,29.4z M55.9,65.8c0,0,0.1-0.1,0.1-0.1
	c0,0,0.1,0,0.2,0c0,0,0.1,0.1,0.1,0.1c0,0,0,0.2,0,0.2c0,0-0.1,0.1-0.1,0.1c0,0-0.1,0-0.2,0c0,0-0.1-0.1-0.1-0.1
	C55.9,66,55.9,65.9,55.9,65.8z M39.2,62.6c0,0,0.2,0,0.2,0c0,0,0.1,0.1,0.1,0.1c0,0,0,0.1,0,0.2c0,0-0.1,0.1-0.1,0.1
	c0,0-0.2,0-0.2,0c0,0-0.1-0.1-0.1-0.1c0,0,0-0.1,0-0.2C39.2,62.6,39.2,62.6,39.2,62.6z M56.6,6c0.1,0,0.3,0.1,0.2,0.2
	c0,0-0.1,0.1-0.2,0.1c-0.1,0-0.2-0.1-0.3-0.1c0,0,0-0.1,0-0.2C56.4,6.1,56.5,6,56.6,6z M36.9,43c0,0,0.2,0.1,0.2,0.1
	c0.1,0,0.2,0,0.3-0.1c0-0.1-0.1-0.1-0.1-0.2c0,0-0.2,0-0.3,0C36.9,42.8,36.8,43,36.9,43z M69.4,29.6v-0.4c0,0,0.2,0,0.2,0
	c0.1,0,0.1,0.1,0.2,0.2c0,0,0,0.2,0,0.2H69.4z M38.7,53.7c0,0,0.1,0.1,0.1,0.1c0,0,0.2,0,0.2,0c0.1,0,0.2-0.1,0.1-0.2
	c0,0-0.1-0.1-0.1-0.1c-0.1,0-0.3,0-0.4,0C38.7,53.5,38.7,53.6,38.7,53.7z M33.6,71.6c0.1-0.1,0.2,0,0.3,0v0.4h-0.4c0,0,0-0.2,0-0.2
	C33.5,71.7,33.6,71.6,33.6,71.6z M40.8,25.3c0,0.1,0.1,0.2,0.1,0.3c0,0,0,0.2,0,0.3h0.2v-0.6C41,25.3,40.8,25.2,40.8,25.3z
	 M71.8,66.4c0-0.1-0.1-0.1,0-0.2c0,0,0.2,0,0.2,0c0.1,0.1,0.2,0.3,0.2,0.5C72,66.6,71.8,66.5,71.8,66.4z M17.9,18.7c0,0,0-0.2,0-0.2
	h0.4c0,0,0,0.2,0,0.2c0,0-0.1,0.1-0.1,0.1c0,0-0.2,0-0.2,0C18,18.8,17.9,18.8,17.9,18.7z M73.1,64.8c0,0,0.2,0,0.2,0
	c0,0,0.1,0.1,0.1,0.1c0,0,0,0.2,0,0.2H73c0,0,0-0.2,0-0.2C73,64.9,73.1,64.9,73.1,64.8z M39,35.8c0,0,0.1,0.1,0.1,0.1
	c0,0,0.2,0,0.2,0c0,0,0.1-0.1,0.1-0.1c0,0,0-0.2,0-0.2H39C39,35.6,38.9,35.7,39,35.8z M11.6,10.4c0.1-0.1,0.2,0,0.3,0
	c0,0,0,0.2,0,0.2c0,0.1-0.1,0.1-0.2,0.2c0,0-0.2,0-0.2,0c0,0,0-0.2,0-0.2C11.5,10.5,11.6,10.4,11.6,10.4z M50.2,37.1
	c0.1,0,0.3,0,0.3,0.1c-0.1,0.1-0.2,0.2-0.4,0.2c0-0.1,0-0.1,0-0.2C50.1,37.2,50.2,37.1,50.2,37.1z M64.5,28.9c0-0.1,0.2,0,0.2,0
	c0,0,0.1,0.1,0.1,0.1c0,0,0,0.2,0,0.2c0,0-0.2,0-0.2,0c0,0-0.1-0.1-0.1-0.1C64.5,29.1,64.5,28.9,64.5,28.9z M69.6,8.1
	c0.1,0,0.1-0.1,0.2,0c0,0,0,0.2,0,0.2c-0.1,0.1-0.2,0.2-0.4,0.2c0,0,0-0.2,0-0.2C69.4,8.3,69.6,8.1,69.6,8.1z M48.3,52.6
	c0-0.1,0.2,0,0.2,0c0,0,0.1,0.1,0.1,0.1c0,0,0,0.2,0,0.2c0,0-0.2,0-0.2,0c0,0-0.1-0.1-0.1-0.1C48.3,52.8,48.3,52.6,48.3,52.6z
	 M24.1,51.9c0.1-0.1,0.2,0,0.3,0v0.2c-0.1,0.1-0.2,0.2-0.4,0.2c0-0.1,0-0.2,0-0.2C24,52,24.1,51.9,24.1,51.9z M30.7,44.4
	c0,0,0.2,0.2,0.2,0.2c0,0,0.2,0,0.2,0c-0.1-0.1-0.1-0.3-0.2-0.4c0,0-0.2,0-0.2,0C30.7,44.3,30.7,44.4,30.7,44.4z M76.4,32.2l0.6-0.1
	c0,0.1,0,0.2-0.1,0.2c0,0-0.2,0.1-0.2,0.1c0,0-0.2,0-0.3,0V32.2z M76.9,10.7c0,0,0-0.2,0-0.2h0.4v0.2c-0.1,0-0.2,0.2-0.3,0.1
	C77,10.7,76.9,10.7,76.9,10.7z M46.5,72.3c0-0.1,0.2-0.1,0.3,0c0,0.1,0.1,0.2,0,0.2c-0.1,0-0.2,0.1-0.2,0
	C46.5,72.5,46.5,72.3,46.5,72.3z M35.4,35.9c0.1,0,0.3,0,0.4,0c0,0,0.1-0.1,0.1-0.1c0,0,0,0.2,0,0.2c0,0-0.1,0.1-0.1,0.1
	c-0.1,0-0.3,0-0.4,0V35.9z M43.9,41.4h0.3V41h-0.3V41.4z M25.6,40.7c0,0,0,0.2,0,0.2c0,0.1,0.2,0,0.2,0c0.1,0,0-0.1,0-0.2
	C25.8,40.6,25.6,40.6,25.6,40.7z M88.7,3.7L88.7,3.7c0.1,0.1,0.1,0.2,0,0.2c-0.1,0-0.2,0.1-0.3,0.1L88.4,4c0-0.1,0-0.1,0.1-0.1
	C88.5,3.8,88.7,3.7,88.7,3.7z M39,71.1c0-0.1,0.1-0.2,0.1-0.2c0,0,0.1,0.1,0.1,0.2c0,0.1,0,0.3,0,0.4H39C39.1,71.3,39,71.2,39,71.1z
	 M45,51.1c0,0.1,0.1,0.2,0.2,0.1c0,0,0.1-0.1,0.1-0.1c0-0.1,0.1-0.1,0-0.2H45C45,50.9,45,51.1,45,51.1z M46.9,37.5
	C47,37.5,47,37.6,46.9,37.5c0.2,0.1,0.3,0.1,0.3,0.1c0-0.1-0.1-0.2-0.1-0.3h-0.2C46.9,37.3,46.9,37.5,46.9,37.5z M67.8,39.5
	c-0.1,0-0.2,0-0.3,0v-0.2l0.6,0.1c0,0.1-0.1,0.1-0.1,0.1C68,39.5,67.8,39.5,67.8,39.5z M26.5,41.6c0,0,0.1,0.1,0.1,0.1
	c0.1,0,0.3-0.1,0.2-0.2c0,0-0.1-0.1-0.1-0.1c0,0-0.2,0-0.2,0C26.5,41.4,26.5,41.6,26.5,41.6z M82.8,31.9c0.1-0.1,0.2-0.2,0.4-0.1
	c0.1,0,0,0.1-0.1,0.2C83,32,82.9,32.1,82.8,32C82.7,32,82.8,31.9,82.8,31.9z M76.6,14c0,0,0.1-0.1,0.1-0.1c0.1,0,0.3,0,0.3,0
	c-0.1,0.1-0.2,0.2-0.3,0.3c0,0-0.2,0-0.2,0C76.5,14.1,76.6,14,76.6,14z M31.1,21.7v-0.3h0.4c0,0.1,0,0.1-0.1,0.2
	C31.3,21.6,31.3,21.7,31.1,21.7z M2.8,41.5c0,0,0.1-0.1,0.1-0.1c0,0,0.2,0,0.2,0v0.3c0,0-0.2,0-0.2,0C2.9,41.7,2.8,41.6,2.8,41.5
	C2.8,41.5,2.8,41.5,2.8,41.5z M41.9,64.9v-0.3c0,0,0.2,0,0.2,0c0,0,0.1,0.1,0.1,0.1c0.1,0.1,0,0.2-0.1,0.2
	C42.1,64.9,41.9,64.9,41.9,64.9z M57.7,76.8c0,0,0.1-0.1,0.1-0.1c0,0,0.2,0,0.2,0V77c0,0-0.2,0-0.2,0C57.7,77,57.7,76.9,57.7,76.8
	C57.7,76.9,57.7,76.8,57.7,76.8z M2.8,31.8v-0.4c0.1,0,0.2,0,0.2,0.1C3,31.6,3,31.7,2.8,31.8C2.8,31.8,2.8,31.8,2.8,31.8z M72.8,21
	c0,0,0.1-0.1,0.1-0.1c0,0,0.2,0,0.2,0v0.3c0,0-0.2,0-0.2,0C72.9,21.2,72.8,21.1,72.8,21C72.8,21.1,72.8,21,72.8,21z M69.4,53.1
	c0.1-0.1,0.2,0,0.2,0.1c0,0,0,0.2,0,0.2h-0.3c0,0,0-0.2,0-0.2C69.3,53.2,69.4,53.1,69.4,53.1z M50.3,33.2c0,0,0.1-0.1,0.1-0.1
	c0,0,0.2,0,0.2,0c0,0.1,0,0.2-0.1,0.2c-0.1,0-0.2,0.1-0.2,0C50.3,33.3,50.3,33.2,50.3,33.2z M18.4,48.2c0.1-0.1,0.2-0.1,0.3,0
	c0.1,0.1,0,0.2-0.1,0.2c0,0-0.2,0-0.2,0C18.4,48.4,18.4,48.3,18.4,48.2z M30.9,37l0.3,0.2c0-0.1,0-0.2,0-0.2c0-0.1-0.2-0.2-0.3-0.2
	V37z M54.1,50.8c0-0.1-0.1-0.1,0-0.2c0,0,0.2,0,0.2,0c0,0,0.1,0.1,0.1,0.1c0,0.1,0,0.1,0,0.1C54.3,50.8,54.2,50.9,54.1,50.8z
	 M78.5,36.9c0.1-0.1,0.1-0.1,0.2-0.1v0.3h-0.3C78.5,37,78.5,37,78.5,36.9z M32.2,56.2c0-0.1,0.2-0.1,0.2,0c0,0.1,0,0.2,0,0.2
	c-0.1,0-0.1,0-0.2,0C32.2,56.4,32.2,56.3,32.2,56.2z M38.9,41.7c0,0,0,0.1,0,0.2c0,0.1,0.1,0.1,0.2,0c0.1,0,0-0.1,0-0.2
	C39.1,41.6,38.9,41.6,38.9,41.7z M37.3,24.2c0.1,0.1,0.1,0.1,0.2,0.1V24h-0.3C37.2,24.1,37.2,24.2,37.3,24.2z M38.9,38.9
	c0,0.1-0.1,0.1,0,0.2h0.3v-0.3C39.1,38.8,39,38.8,38.9,38.9z M6.5,61.6c0-0.1,0.2-0.1,0.2,0c0,0.1,0,0.2,0,0.2c-0.1,0-0.1,0-0.2,0
	C6.5,61.7,6.5,61.6,6.5,61.6z M17.6,43.8v-0.3c0.1,0,0.2,0,0.2,0.1c0,0,0,0.1,0,0.1S17.7,43.9,17.6,43.8z M28.5,61.5
	c0-0.1-0.1-0.1,0-0.2h0.3c0,0.1,0,0.2-0.1,0.2C28.6,61.5,28.6,61.5,28.5,61.5z M67.4,72.2c0-0.1,0.2-0.1,0.2,0c0,0.1,0.1,0.1,0,0.2
	h-0.3C67.3,72.3,67.3,72.3,67.4,72.2z M66.7,58.2c0,0,0.2,0,0.2,0c0,0,0.2,0.2,0.2,0.2c0,0-0.2,0-0.2,0
	C66.8,58.3,66.7,58.2,66.7,58.2z M47.4,62.8c0-0.1,0-0.3,0-0.3c0.2,0,0.1,0.2,0.1,0.3c0,0,0,0.2,0,0.2C47.5,63,47.4,62.9,47.4,62.8z
	 M12.4,64.5c-0.1-0.1,0-0.2,0.1-0.2c0,0,0.1,0,0.1,0.1c0,0.1,0,0.1,0,0.1C12.5,64.6,12.5,64.6,12.4,64.5z M48.4,23.6h0.2v-0.3h-0.2
	V23.6z M53.9,30.6c-0.1,0-0.2,0.1-0.2,0.2c0.1,0,0.2,0,0.2,0c0.1,0,0.2-0.1,0.2-0.2C54,30.6,53.9,30.6,53.9,30.6z M2.7,34.2V34
	c0.1,0,0.2,0,0.2,0.1C2.9,34.1,2.8,34.2,2.7,34.2C2.7,34.2,2.7,34.2,2.7,34.2z M31.2,48.1c0.1,0.1,0.3,0.1,0.4,0.1
	c0,0-0.1-0.1-0.1-0.1C31.4,48,31.2,48,31.2,48.1z M32.5,64.4v-0.3c0.1,0,0.2,0,0.2,0.1C32.7,64.3,32.6,64.4,32.5,64.4
	C32.5,64.4,32.5,64.4,32.5,64.4z M51.7,17.9c0-0.1,0.2-0.1,0.2,0c0,0,0,0.1,0,0.1C51.8,18,51.7,18,51.7,17.9
	C51.7,17.9,51.7,17.9,51.7,17.9z M32.5,44.3C32.5,44.3,32.5,44.4,32.5,44.3c0,0.1,0.1,0.1,0.1,0.1c0.1,0,0.1-0.1,0-0.1
	C32.7,44.3,32.6,44.3,32.5,44.3z M40.5,23c0-0.1,0.1,0,0.2,0c-0.1,0.1-0.1,0.2-0.1,0.2C40.6,23.1,40.5,23.1,40.5,23z M78.1,56.6
	c-0.1-0.1,0-0.2,0.1-0.2c0.1,0,0,0.2,0,0.3C78.2,56.7,78.2,56.6,78.1,56.6z M79.1,78L79.1,78v-0.2V78L79.1,78z M45.3,73.5L45.3,73.5
	v-0.2V73.5L45.3,73.5z M36.9,24.6L36.9,24.6v-0.2V24.6L36.9,24.6z M16.5,31.9L16.5,31.9v-0.2V31.9L16.5,31.9z M3.7,68.2L3.7,68.2V68
	V68.2L3.7,68.2z M10.3,34.8L10.3,34.8v-0.2V34.8L10.3,34.8z M12.4,35.9L12.4,35.9v-0.2V35.9L12.4,35.9z M21.1,51L21.1,51v-0.2V51
	L21.1,51z M47.6,25.9L47.6,25.9v-0.2V25.9L47.6,25.9z M75.5,16c0,0,0.2,0,0.2,0C75.7,16,75.6,16.1,75.5,16
	C75.6,16.1,75.5,16.1,75.5,16C75.4,16.1,75.5,16,75.5,16z M67.6,36.2L67.6,36.2V36V36.2L67.6,36.2z M84.5,0.2c0-0.1,0-0.1,0.1-0.1
	c0,0,0.2,0,0.2,0C84.7,0.1,84.6,0.1,84.5,0.2L84.5,0.2z M51.8,68.5L51.8,68.5v-0.2V68.5L51.8,68.5z M43.9,52L43.9,52v-0.2V52
	L43.9,52z M46,31L46,31v-0.2V31L46,31z M26,51.5L26,51.5v-0.2V51.5L26,51.5z M3.2,57.3L3.2,57.3v-0.2V57.3L3.2,57.3z M43.1,26.9
	L43.1,26.9v-0.2V26.9L43.1,26.9z M13.9,42.1L13.9,42.1v-0.2V42.1L13.9,42.1z M39.8,33.2c0.1-0.1,0.2,0,0.2,0.1
	C40,33.5,39.9,33.3,39.8,33.2z M44.7,32.7L44.7,32.7C44.7,32.6,44.6,32.4,44.7,32.7C44.6,32.6,44.6,32.7,44.7,32.7z M81.7,68.3
	c0.1-0.1,0.2,0,0.2,0.1C81.9,68.5,81.7,68.3,81.7,68.3z M56.7,16.4c-0.1-0.1,0-0.2,0.1-0.2C57,16.2,56.7,16.4,56.7,16.4z M41.5,39.1
	c0.1,0.1,0,0.2-0.1,0.2C41.2,39.3,41.5,39.1,41.5,39.1z M42.7,22.7v-0.3C42.8,22.4,42.7,22.6,42.7,22.7L42.7,22.7z M17.8,12.6
	C17.8,12.6,17.7,12.5,17.8,12.6C17.7,12.3,17.9,12.6,17.8,12.6L17.8,12.6z M41.8,46.3l0-0.2L41.8,46.3L41.8,46.3z M47.1,61.9l0,0.2
	L47.1,61.9L47.1,61.9z M47.1,61.9l0-0.2L47.1,61.9L47.1,61.9z M77.1,6.8L77.1,6.8L77.1,6.8z M65.6,59.7L65.6,59.7L65.6,59.7z
	 M65.5,59.7L65.5,59.7L65.5,59.7z M55.6,47.2l0.1,0.1L55.6,47.2z M55.7,47.3L55.7,47.3L55.7,47.3z"/>
</svg>
