<?xml version="1.0" encoding="utf-8"?>
<!-- Generator: Adobe Illustrator 13.0.2, SVG Export Plug-In  -->
<!DOCTYPE svg PUBLIC "-//W3C//DTD SVG 1.1 Tiny//EN" "http://www.w3.org/Graphics/SVG/1.1/DTD/svg11-tiny.dtd" [
	<!ENTITY ns_flows "http://ns.adobe.com/Flows/1.0/">
]>
<svg version="1.1" baseProfile="tiny"
	 xmlns="http://www.w3.org/2000/svg" xmlns:xlink="http://www.w3.org/1999/xlink" xmlns:a="http://ns.adobe.com/AdobeSVGViewerExtensions/3.0/"
	 x="0px" y="0px" width="260px" height="411px" viewBox="-0.73 -0.65 260 411" xml:space="preserve">
<defs>
</defs>
<path d="M79.075,17.604c0,0,1.907,1.382-1.29,7.862c-1.786,4.526-2.472,5.814-2.472,5.814l2.197,1.784c0,0,8.688-7.23,12.941-10.653
	c4.596-4.596,14.468-8.24,14.468-8.24s-8.64,1.909-14.288,5.456l-8.749,6.73C83.516,17.583,79.075,17.604,79.075,17.604z"/>
<path d="M160.772,389.139c-22.197-25.635,60.92-99.4,60.92-99.4s-16.384,27.446-10.133,33.694
	c28.859-22.372,44.672-63.404,44.672-63.404c-20.21,62.679-66.089,86.887-66.089,86.887c9.501-9.497,9.872-26.312,9.872-26.312
	S152.933,358.829,160.772,389.139z"/>
<path d="M177.448,110.164c4.7-22.774,20.313-27.937,20.313-27.937s-14.756,10.289-18.099,27.526
	c-2.163,14.104,4.033,38.177,10.931,59.614c2.295,15.44,5.404,29.846-8.675,74.318c14.78-9.417,28.665-38.478,28.665-38.478
	s-7.899,30.414-40.077,60.329c-5.734,6.123-7.248,6.897-18.014,19.269c0,0,38.854-53.238,34.702-107.514
	C186.257,165.654,175.73,137.374,177.448,110.164z"/>
<path d="M238.156,163.575c-0.948,34.761-18.564,67.754-29.706,81.799c-22.963,26.374-60.617,54.986-60.617,54.986
	s34.018-21.41,65.182-55.431c22.451-24.663,32.969-69.268,30.255-101.335c-3.097-23.732-3.447-42.275-12.337-66.154
	c-1.097-5.807-0.364-9.323-0.364-9.323s-2.142,3.35-6.082,7.352c-7.89,8.009-20.65,20.949-21.497,31.112
	c-2.454,10.57-3.082,29.756,0.545,43.564c3.222,11.368,0.364,24.84,0.364,24.84s9.436-31.755,10.338-31.755
	c5.512,19.338-3.263,54.436-3.263,54.436s13.877-29.759,10.368-74.367c0.08-4.183,0.972-9.441,0.972-14.086
	c-11.521,27.124-13.521,23.857-13.521,23.857s-8.525-23.768,17.419-45.723C234.938,101.478,241.665,132.34,238.156,163.575z"/>
<path d="M160.374,70.088c-1.996-1.996-5.287-5.964-5.287-5.964s3.77,7.3,4.721,19.595c-1.815,11.976-2.541,20.686,0,27.579
	s5.172,8.979,10.16,25.038c-3.086-20.411-13.155-27.624-6.529-38.51c13.423-27.218,68.584-38.825,68.584-38.825
	s-30.116-2.517-30.484-6.491c0-5.169,23.587-7.349,35.993-1.632c23.601,12.031,20.255,44.452,20.255,44.452
	s4.599-26.874-10.164-41.637c-0.236-0.239-7.755-9.285-27.395-10.028c-12.757,0.438-17.689-0.136-30.561,3.023
	c-27.36,9.685-28.047,13.805-28.047,13.805s28.533-11.719,48.628-0.923c0,0-2.867,1.961-11.799,5.869
	c-9.102,4.378-21.983,10.733-33.198,20.095C165.25,85.535,161.439,82.72,160.374,70.088z"/>
<path d="M130.231,196.166c0,0,27.185-16.312,18.869-47.652c4.175,3.433,6.636,9.323,9.208,18.012
	c5.036,18.12,8.06,34.812,8.06,41.793c0,10.557-4.797,25.587-4.797,29.426c0,3.836,0.848,8.519,0.848,8.519
	s-2.201-2.423-3.083-8.199c3.513-19.418,5.37-28.651,1.927-42.71c-1.261-6.241-3.014-12.499-6.725-18.376
	C144.524,195.627,130.231,196.166,130.231,196.166z"/>
<path d="M118.71,180.698c0,0,16.873-9.16,16.873-35.107c0-9.254-10.886-12.246-10.886-12.246s11.023,1.496,18.234-4.083
	c-8.437-45.996,8.164-59.878,8.164-59.878s-13.334,17.964,2.994,51.439c4.828,12.604,11.292,33.536,12.833,36.802
	c5.401,20.432,4.585,26.34,4.585,26.34s-5.793-28.87-22.409-48.309c-2.132-2.132-4.262-1.042-4.262,0.681
	C138.397,180.882,118.71,180.698,118.71,180.698z"/>
<path d="M134.646,86.625c-6.902,28.759-2.99,35.17-2.99,35.17s-6.867-3.738-0.595-42.127c-3.61-6.085,2.852-7.224,2.852-7.224
	s3.705,3.708,4.94,4.939C138.169,82.075,135.643,81.758,134.646,86.625z"/>
<path d="M121.431,126.811c0,0-0.842-11.473-1.293-24.045c0-9.64,2.927-21.678,2.927-21.678l-16.33,12.518
	c0,0,2.45-32.657,16.603-46.81c3.537,11.156-3.657,30.48-3.657,30.48s4.376-11.708,18.248-23.757
	c4.624-3.731,10.36-7.144,16.766-10.285c6.272-3.127,14.836-6.38,23.212-8.275c11.524-2.61,24.201-2.794,38.51-3.134
	c0,0-2.992-1.94-12.531-2.235c-19.265-1.073-22.306-5.11-22.306-5.11c7.713-5.665,21.82-6.366,32.417-4.942
	c17.665,3.148,28.273,11.746,28.273,11.746s-24.764-26.128-84.437-11.795c-3.107,0.17-7.222,0.924-9.093,1.632
	c19.322,2.089,19.822,8.303,19.822,8.303s-27.761,15.693-37.061,24.992c-3.525-6.539-0.304-16.703,2.682-21.573
	c1.63-3.207,7.289-6.869,7.289-6.869s-8.229,2.305-16.88,10.028c-11.245,10.038-24.408,29.751-25.477,72.301
	c10.069-13.332,15.441-17.89,16.328-18.778C115.444,102.474,121.431,126.811,121.431,126.811z"/>
<path d="M109.326,31.159c0,0-18.63,25.746-20.086,37.909c-3.202,17.109,3.202,28.46,3.202,28.46l-2.329,10.479
	c0,0-7.963-14.843-3.202-41.335C94.488,45.422,109.326,31.159,109.326,31.159z"/>
<path d="M82.15,103.675c0,0-5.06-6.508-5.75-12.642s-3.322-14.208-3.322-14.208s-0.5,9.841-5.442,17.779L65.82,66.663
	c0,0,3.305,2.214,3.305,4.221c0.793,0.979,0.234,2.447,2.138,2.447c0,0,3.222-21.907,22.327-38.621
	c18.277-14.405,27.388-12.318,27.388-12.318s3.396,3.582,0,9.778c0,0,2.839,0.135,4.694-2.906
	c2.429-5.057,31.081-24.648,48.409-26.388c20.425-2.856,33.966-0.101,33.966-0.101s-5.377-2.655-10.819-2.655
	c-8.429-0.493-23.618,0.58-30.547,2.423c-19.528,3.839-40.984,18.397-40.984,18.397c-1.452-1.451-2.541-8.709-2.541-8.709
	s-22.136,9.524-30.173,18.73c-11.314,8.771-22.08,29.172-22.08,29.172s-4.789-9.81-4.789-19.734c0-7.505,7.69-25.628,7.69-25.628
	S60.467,34.412,59.092,65.093c-2.662,20.577,4.551,45.841,4.551,45.841s7.621-17.055,9.435-17.055
	C74.892,98.097,82.15,103.675,82.15,103.675z"/>
<path d="M61.285,26.112c-28.304,38.919-7.621,75.116-7.621,75.116S40.6,62.035,61.285,26.112z"/>
<path d="M57.251,138.974c0,0,5.682-3.541,7.6-6.98c1.918-3.437,3.173-8.765,3.173-8.765s1.38,2.082,1.179,8.063
	c-0.203,3.104-0.646,9.872-0.646,9.872s5.206-2.979,9.566-8.452c0.811-0.81,9.868-6.248,9.513-5.895
	c-16.609,13.194-18.509,24.587-18.509,24.587s1.139-7.085-5.8-15.068C61.863,138.332,57.251,138.974,57.251,138.974z"/>
<path d="M83.679,173.7c11.012,1.299,15.546,10.341,15.546,10.341s-1.939-11.431-13.098-14.152L83.679,173.7z"/>
<path d="M132.667,210.075c0,0,7.397,3.013,13.478,0.549c6.93-2.465,5.21-12.084,5.21-12.084s4.843,4.937,3.697,14.541
	c-0.417,3.642-1.66,8.97-7.62,26.523c0,5.366-1.749,11.583,0,18.224c1.439,7.376-0.789,14.534-0.789,14.534
	s-0.859-10.16-1.973-15.735c-0.344-4.804-4.479-12.94-6.778-17.55c-5.645-5.645-8.916-19.313-8.916-19.313
	s8.491,16.609,12.228,16.609c0,0,9.39-6.29,10.151-22.146C138.897,218.839,132.667,210.075,132.667,210.075z"/>
<path d="M98.958,233.78c0,0,2.588-13.934-5.771-30.651c1.392-2.783-2.597-3.395-6.774-3.395
	c-17.316,10.149-22.881-2.972-22.881-2.972s-0.597,7.363,14.329,9.751l1.991,1.989l-3.979,9.754c0,0,6.567-8.56,6.567-10.948
	C99.056,208.204,98.958,233.78,98.958,233.78z"/>
<path d="M39.171,203.635l-11.788-3.495c0,0,5.094,2.184,0.436,6.112c-3.477,2.954-11.571,5.752-11.571,5.752
	s14.919,0.799,17.248-7.352C37.133,204.653,39.171,203.635,39.171,203.635z"/>
<path d="M38.444,213.241c0,0,4.513-4.659,3.789-9.317c17.752,5.68,11.201,19.359,11.201,19.359s-0.186-11.41-6.548-13.826
	C45.649,208.217,38.444,213.241,38.444,213.241z"/>
<path d="M63.598,173.759c0,0-10.305,3.52-19.86,2.062c2.652-3.711,8.097-12.014,10.334-20.546c1.385-3.564,3.725-6.147,3.725-6.147
	s-4.269,0.545-6.582,7.894c-6.396,14.787-13.572,16.009-19.105,16.055c-1.711-2.393-4.464-7.096-3.834-11.914
	c0.636-2.586,2.936-4.686,2.936-4.686s-4.348,0.215-5.171,3.537c-0.697,4.908,2.313,12.451,2.313,12.451s-1.271-0.111-4.762-1.021
	c-4.854,2.271-6.712,3.128-6.712,3.128l2.563,3.853c0,0,2.13-3.825,6.189-2.898c0.925,0,2.839,0.229,3.719,0.549
	c-0.501,0.871,0.774,3.689,2.583,5.543c-2.858,2.132-5.962,2.277-5.962,2.277s5.17,0.545,7.009,3.471
	c4.082,2.111,5.985,3.132,5.985,3.132s-1.083-4.152-2.345-8.891c0.522-0.461,1.217-0.84,2.277-0.84
	C59.856,180.767,63.598,173.759,63.598,173.759z"/>
<path d="M47.469,233.079c-3.856,0-6.261-0.962-10.16,0.541c-4.148,2.322-4.729-1.146-4.729-1.146s2.11,1.059,4.153-0.982
	c6.049-1.36,6.672-2.537,11.377-2.537c8.586-0.562,13.35,2.235,18.453,2.235c2.435,0,5.479-2.541,5.479-2.541
	s-1.28,5.942-10.351,7.914C54.427,236.563,56.241,233.457,47.469,233.079z"/>
<path d="M127.703,244.939c-1.236-3.276-7.476-11.732-7.476-11.732s5.153,3.419,8.408,8.99c5.624,8.224,8.603,31.695,8.141,37.757
	c0,12.458-5.385,31.077-7.006,34.726c-3.653,8.72-3.737,14.923-3.737,14.923c6.673-5.238,12.815-13.413,14.025-22.035l3.106-0.899
	c-3.363,12.767-9.643,20.348-14.075,26.85c-4.551,6.668-7.237,12.174-9.306,18.686c-6.762,35.364,16.122,58.118,16.122,58.118
	s-20.435-15.898-20.903-47.906c1.161-21.198,6.703-40.058,13.914-59.815C139.276,275.701,129.733,249.132,127.703,244.939z"/>
<path d="M38.423,51.83C45.5,33.595,51.487,28.562,51.487,28.562S34.656,53.153,40.056,80.814c-0.36,6.748,1.967,16.7,8.585,21.512
	c3.016,3.609,2.846,10.976,2.846,10.976s-1.55-8.817-13.354-13.104c-4.982-7.047-10.053-7.953-10.053-7.953
	s-0.554,3.825,2.664,11.931c2.797,5.728,3.324,8.456,3.324,12.565c1.338,20.019-20.617,25.174-20.617,39.871
	c0,14.693,4.859,19.16,8.69,23.222c3.83,4.062,1.039,7.127-4.947,13.111c-14.01,12.1-15.422,18.186-13.539,20.07
	c1.883,1.881,5.401,0,5.401,0s-2.498,10.496,0,16.373c2.665,6.266,10.124,19.4,14.625,20.751c6.763-2.402,4.808,5.567,8.551,7.65
	c1.237,1.239,4.95,1.576,4.95,1.576s-9.754-5.772,2.25-17.776c5.399-5.401,14.055-8.254,14.055-8.254s10.471,12.079,16.771,13.655
	c3.945,1.576-0.939,8.789-5.851,17.776c-3.15,2.207-11.024-0.678-11.024-0.678s1.572,7.138,7.425,8.775
	c3.471,1.639-2.813,2.812-2.813,2.812l1.012,10.688c0,0,2.973-5.624,5.401-5.624c1.097,0,4.783,10.935,8.496,15.715
	c4.507,5.807,8.067,5.661,8.067,5.661s0.783-3.985,0.854-8.32c-0.451-2.718,1.172-3.59,1.027-7.342c0-4.585,2.709-3.912,2.709-3.912
	s1.165,7.963,3.981,11.81c3.157,4.811,8.322,8.82,8.322,8.82s-2.94-4.443-2.94-11.185c0-5.599-1.491-6.974-1.491-6.974
	s4.877,2.291,7.264,5.314c3.065,2.343,6.784,3.405,6.784,3.405s-0.705-13.791,0.491-22.795c1.899-16.113,7.061-20.8,7.061-20.8
	s-0.024,9.352-0.024,16.835c0,7.48,2.951,14.659,2.951,14.659s2.253-8.116,4.789-11.473c4.363-7.105,5.111-15.294,5.111-15.294
	s4.069,6.797,4.069,11.216c0,4.422-1.145,10.16-1.145,10.16l-1.281-7.696c0,0-3.747,1.354-6.359,7.835
	c-3.702,7.994-3.61,17.353-3.61,17.353l-8.307-23.087c0,0-1.498,6.064-1.498,14.152c0,6.623,1.948,11.934,1.948,11.934
	s-1.396,1.735-6.564-0.302c-5.17-2.041-6.465-3.95-6.465-3.95s1.366,5.782,1.774,8.258c0.408,2.472,4.712,11.277,4.712,11.277
	s-7.532-2.79-11.722-6.983c-3.251-3.249-8.303-11.015-8.303-11.015s-1.197-0.402-1.536,4.027c-0.34,4.433,4.686,7.445,4.686,7.445
	s-10.225,1.219-16.509-5.068c-4.52-4.516-8.24-13.155-8.24-13.155s-0.358,2.187-1.324,4.46c-1.017,2.788-1.376,6.339-1.376,6.339
	s-2.854-4.641-4.212-9.396s-0.213-9.893-1.29-13.101c-1.729-2.197-2.78-4.571-3.725-6.588c-4.346-6.248-2.699-12.538-2.699-12.538
	s3.706,7.085,9.341,7.085c4.896,0,6.05-6.318,8.081-9.657c-0.739-7.397-11.143-15.676-14.067-15.676
	c-12.396,3.971-15.481,11.406-15.481,14.575c-0.429,6.484,5.478,8.623,5.478,8.623s-7.991,3.294-15.405-6.294
	c-1.85-3.551-9.721-6.779-16.084-15.196c-1.477-2.149-2.966-3.485-6.195-12.386c-0.815-3.804-3.672-6.175-4.042-11.125
	c-3.839-14.284,15.3-22.5,17.325-28.349c5.471-5.85-2.262-7.189-6.301-22.053c-1.954-12.736-1.954-14.773-0.451-17.551
	c3.15-8.324,18.201-14.142,17.776-28.575c1.104-13.971-5.399-23.173-6.75-34.649c-0.649-5.509-0.885-13.135-1.869-18.668
	c-1.065-5.994-2.856-9.681-2.856-9.681s1.572,0.246,5.989,11.389c1.358,5.638,6.61,15.61,6.61,15.61S33.661,62.174,38.423,51.83z"/>
<path d="M139.859,374.175c0,0-5.636-35.351,35.368-67.452c28.977-23.129,49.575-47.746,54.812-56.015
	c10.172-14.298,19.338-36.357,20.908-44.178c8.188-44.365-3.232-51.707-3.232-51.707s8.227,26.155-2.423,54.536
	c-5.647,14.526-11.357,28.221-24.642,43.626c-20.813,24.027-53.395,51.987-60.027,58.621
	C125.068,345.354,139.859,374.175,139.859,374.175z"/>
</svg>
