<?xml version="1.0" encoding="utf-8"?>
<!-- Generator: Adobe Illustrator 15.0.0, SVG Export Plug-In  -->
<!DOCTYPE svg PUBLIC "-//W3C//DTD SVG 1.1 Tiny//EN" "http://www.w3.org/Graphics/SVG/1.1/DTD/svg11-tiny.dtd" [
	<!ENTITY ns_flows "http://ns.adobe.com/Flows/1.0/">
]>
<svg version="1.1" baseProfile="tiny"
	 xmlns="http://www.w3.org/2000/svg" xmlns:xlink="http://www.w3.org/1999/xlink" xmlns:a="http://ns.adobe.com/AdobeSVGViewerExtensions/3.0/"
	 x="0px" y="0px" width="101px" height="108px" viewBox="-0.58 -0.35 101 108" overflow="visible" xml:space="preserve">
<defs>
</defs>
<path fill="#6FBE4B" d="M100,66.33c-0.02-0.04-0.04-0.09-0.07-0.13c-1.3-0.17-2.77,0.1-3.95,0.32c-2.35,0.43-4.23-0.32-6.25,0.5
	c0.02-0.25,0.01-0.14,0.13-0.39c-0.36-0.53-3.91,0.11-5.16,0.13c0.17-0.21-0.04-0.11,0.19-0.32c-1.25-0.3-2.79,0.39-3.83,0.5
	c-0.07-0.24-0.06-0.12,0-0.32c-1.49-0.09-2.42,0.95-4.21,0.7c0.13-0.02,0.26-0.04,0.39-0.06c-0.94-0.38-2.32,0.63-3,0.89
	c-2.03-0.82-3.85,0.99-5.23,1.66c-1.25,0.6-2.49,0.52-3.83,1.08c-0.75,0.31-1.57,1.06-2.3,1.41c-0.41,0.06-0.8,0.13-1.21,0.19
	c-3.26,1.9-6.52,2.98-10.52,4.14c-0.18-0.15-0.12-0.11-0.32-0.13c0.23-0.71,0.85-0.76,1.08-1.28c0.04-0.02,0.11-0.06,0.14-0.09
	c0.92-1.43,5.78-3.8,8.97-4.18c0-0.34,0.01-0.49-0.13-0.63c0.45-0.4,3.23-1.16,3.89-1.21c0.07-0.25-0.05-0.47-0.13-0.57
	c0.92-0.75,2.69-0.57,3.88-1.02h0.13c-0.09-0.11-0.17-0.21-0.26-0.32c0.21-0.04,0.43-0.09,0.63-0.13v-0.07
	c-0.17-0.04-0.34-0.09-0.52-0.13c-0.05-0.17-0.02-0.03,0.13-0.13V66.7c-0.13-0.02-0.26-0.04-0.39-0.07c0.15-0.02,0.3-0.04,0.45-0.06
	V66.5h-0.26c0.42-0.35,2.66-1.14,3.32-1.21c0.06-0.17,0.13-0.34,0.19-0.52c-0.3-0.26-0.13-0.39-0.51-0.45v-0.06
	c1.17-0.47,2.34-0.93,3.51-1.41c-0.06-0.29-0.15-0.18,0.13-0.39c-0.23-0.13-0.03-0.08-0.26,0c0.02-0.06,0.04-0.13,0.06-0.19
	c-0.12-0.09,0.01-0.06-0.13-0.06c-0.04-0.04-0.09-0.09-0.13-0.13c0.27-0.29,2.37-1.78,2.99-1.91c-0.17-0.13-0.11-0.08-0.32-0.07
	c0.09-0.19,0-0.08,0.13-0.19c-0.25-0.33-0.44-0.35-0.7-0.32c-0.03-0.16,0.05-0.13-0.13-0.13c0.61-0.88,3.12-1.3,3.45-2.17
	c0.17-0.13-0.05-0.15,0.06-0.5c-0.35-0.25-0.49-0.34-0.76-0.26c-0.02-0.06-0.04-0.13-0.07-0.19c0.17-0.02,0.34-0.04,0.5-0.07
	c0.15-0.27,0.25-0.39,0.19-0.63c0.63-0.37,1.28-0.72,1.91-1.08c0.18-0.24,0.31-0.29,0.32-0.58c-0.43-0.21-0.85-0.43-1.28-0.63
	c0.21,0.08,0.79-0.41,1.34-0.57c0.1-0.21,0.1-0.31,0.06-0.57c0.76-0.2,1.03-0.79,1.59-1.08c-0.06-0.33-0.14-0.37,0.13-0.58
	c-0.48-0.14-0.57-0.27-1.15-0.26c0.43-0.47,2.38-2.19,3.06-2.49c-0.16-0.24-0.18-0.23-0.32-0.58c-0.32-0.06-0.63-0.13-0.95-0.19
	v-0.06c0.32-0.11,0.63-0.21,0.95-0.32v-0.59c0.74-0.4,1.15-0.85,1.6-1.53v-0.06c-0.31-0.21-0.9-0.27-1.28-0.26
	c0.39-0.19,0.76-0.39,1.15-0.57c0.47-0.55,1-1.41,1.66-2.1v-0.19c-0.21-0.29-0.3-0.34-0.76-0.39c-0.02-0.02-0.04-0.04-0.06-0.06
	c0.9-0.83,1.71-1.52,2.36-2.68c-0.24-0.35-0.79-0.3-1.08-0.26v-0.06c0.28-0.24,0.56-0.47,0.83-0.7c0.18-0.2,0.07-0.2,0-0.45
	c0.74-0.21,1.13-1.27,1.47-1.91v-0.06c-0.32-0.04-0.63-0.09-0.96-0.13c0.52-0.83,1.19-1.79,1.78-2.62
	c-0.11-0.06-0.21-0.13-0.32-0.19c0.26-0.39,0.51-0.76,0.76-1.15c1.08-2.32,2.37-4.26,3.64-6.44c0.36-0.64,0.96-1.37,1.08-2.23v-0.06
	c-0.11-0.02-0.21-0.04-0.32-0.06c-0.88,1.4-2.24,2.45-3.25,3.7c-0.66,0.76-1.32,1.54-1.98,2.3c-0.87,0.67-1.88,1.5-2.49,2.43
	c-0.31-0.09-0.26-0.14-0.45-0.32c-0.74,0.42-1.15,1.1-1.47,1.6c0,0-1.31,0.79-1.41,0.89c-0.28-0.05-0.27-0.07-0.45-0.19
	c-0.9,0.42-1.4,1.92-1.98,2.17c-0.29,0.13-0.44-0.13-0.7,0.13c-0.31,0.31-0.19,0.67-0.7,0.83c0.03-0.29-0.06-0.29-0.13-0.63h-0.06
	c-0.71,0.43-0.73,1.11-1.28,1.65c-0.19,0.19-0.75,0.35-0.95,0.52c-0.26-0.06-0.52-0.13-0.76-0.19c-0.69,0.53-1.55,1.55-1.84,2.1
	c-0.47,0.09-1.08-0.13-1.08-0.13c-1.12,0.38-1.71,2.39-2.3,2.8c-0.02,0.15-0.38-0.25-0.63-0.39c-0.04-0.04-0.09-0.09-0.13-0.13
	c-0.56,0.49-1.3,1.6-1.47,2.43c-0.65,0.05-0.92,0.52-1.72,0c-0.21,0.69-1.99,2.79-1.72,3.77H68.1c-0.17-0.3-0.34-0.59-0.51-0.89
	c-1.16,0.28-0.92,2.55-2.49,2.99c-0.27,0.01-1.27,3.47-2.68,3.06c-0.41,1.11-0.8,2.21-1.21,3.32c-0.21,0.32-0.84,0.41-1.15,0.76
	c-0.29,0.32-0.26,0.69-0.63,0.76c0.39,0.78-1.07,2.15-1.34,2.68c-0.21,0.72-0.43,1.45-0.63,2.17c-0.29,0.46-0.55,0.23-0.63,0.58
	l-0.19-0.19c-0.46,0.62-0.44,1.3-0.83,2.04c0.15,0.05,0.06-0.06,0.19,0.13c-0.13,0.08-0.42,0.92-0.26,1.34
	c-0.18,0.14-0.29,0.18-0.63,0.19c-0.26,2.16-3.79,7.86-5.04,8.67h-0.26V73.7c0.1,0.13,0.09,0.09,0.13,0.32
	c0.29-0.49,0.1-0.78,0.06-1.28c0.02,0.09,0.04,0.17,0.06,0.26c0.89-1.71,1.06-4.17,2.62-5.29c-0.38-0.2,0.94-1.49,1.15-1.6
	c-0.04-0.48-0.1-0.32,0-0.76c-0.13,0.02-0.26,0.04-0.39,0.06c-0.04-0.02-0.08-0.04-0.13-0.06c0.15-0.68,0.91-1.52,1.21-1.98
	c0.04,0.06,0.09,0.13,0.13,0.19c0.19-0.54,0.33-1.58,1.02-1.85c-0.17-0.2-0.15-0.1-0.19-0.32c-0.15,0.04-0.3,0.09-0.45,0.13
	c0.04-0.04,0.09-0.09,0.13-0.13h0.13c-0.13-0.04-0.26-0.09-0.39-0.13c0.72-1.31,1.48-2.8,2.04-4.01c-0.21-0.29-0.35-0.32-0.7-0.32
	c0.25-0.28,0.1-0.34,0.26-0.57c0.16-0.09,0.02-0.05,0.26,0.06c-0.11-0.21-0.21-0.43-0.32-0.63c0.05,0,1.03-1.47,0.7-2.43
	c-0.06-0.18-0.34-0.34-0.26-0.7c0.16-0.67,0.57-1.88,0.83-2.62c-0.25-0.11-0.19-0.11-0.45,0c0.03-0.21,0.02-0.08-0.06-0.26
	c0.11,0.02,0.22,0.04,0.32,0.06c-0.14-0.11-0.17-0.12-0.45-0.13c0.05-0.38,1.07-2.93,1.08-2.93c-0.16-0.47-0.55-0.55-0.96-0.45
	c-0.32-0.63,0.31-2.26,0.76-2.8c-0.05-0.28-0.03-0.24-0.19-0.39c-0.19-0.17-0.48-0.05-0.83,0c0.56-1.36,0.99-1.75,0.96-3.32
	c-0.28,0.02-0.56,0.04-0.83,0.06c-0.12-0.38,0.65-2.34,0.89-3.19c-0.23-0.38-0.44-0.39-0.83-0.32c0.09-0.44,0.37-0.5,0.26-0.89
	c-0.13-0.13-0.11-0.11-0.39-0.13c0.15-0.54,0.91-2.26,0.52-2.75c-0.15-0.13-0.15-0.06-0.32-0.13c-0.26,0.1-0.33,0.1-0.63,0.06
	c0.11-0.28,0.21-0.56,0.32-0.83c-0.06-0.04-0.13-0.09-0.19-0.13c0.05-0.85,0.65-1.62,0.63-2.87c-0.04-0.02-0.09-0.04-0.13-0.06
	c-0.32,0.06-0.63,0.13-0.96,0.19c0.06-0.41,0.29-0.56,0.39-0.83c0.13-0.35-0.13-0.46-0.19-0.57c0.09-0.7,0.17-1.41,0.26-2.1
	c-0.26-0.24-0.55-0.2-0.89-0.06c-0.06-0.02-0.13-0.04-0.19-0.06c0.16-0.49,0.46-0.58,0.51-1.21c-0.14-0.17-0.13-0.18-0.39-0.26
	c0.31-0.82,0.22-1.65,0.06-2.43c-0.02-0.04-0.04-0.09-0.06-0.13c-0.26,0.06-0.51,0.13-0.76,0.19c0.04-0.69,0.43-3,0.13-3.19v-0.19
	c-0.3,0.06-0.6,0.13-0.89,0.19h-0.06c-0.25-0.73,0.4-2.11-0.06-3.38c-0.26,0.11-0.51,0.21-0.76,0.32c-0.13-0.92-0.46-2.17-0.52-3.38
	c-0.24,0.06-0.47,0.13-0.7,0.19h-0.06c0-0.98-0.16-1.67-0.39-2.55c-0.2-0.11-0.12-0.08-0.39-0.06c-0.14-3.03-1.06-5.5-1.02-9.12
	c-0.14-0.14-0.1-0.17-0.35-0.25v0.13c-1.12,1.75-0.37,4.56-0.76,6.76c-0.16,0.87-0.59,2.22-0.32,3.19c-0.17-0.04-0.34-0.09-0.5-0.13
	c-0.18,1.16-0.09,2.26,0.06,3.19c-0.21-0.06-0.43-0.13-0.63-0.19c-0.61,0.81-0.3,2.84-0.26,3.95c-0.34-0.17-0.68-0.34-1.02-0.52
	c-0.46,1.19-0.13,2.23,0.06,3.57c-0.28-0.06-0.56-0.13-0.83-0.19c-0.06,0.02-0.13,0.04-0.19,0.06c-0.17,1.1-0.04,2.64,0.32,3.57
	c-0.32-0.06-0.63-0.13-0.96-0.19c-0.53,0.92-0.13,2.3,0.19,3.19v0.06c-0.28-0.04-0.55-0.09-0.83-0.13
	c-0.25,0.99-0.04,1.69,0.19,2.43c-0.09,0.06-0.17,0.13-0.26,0.19c0.03,0.55,0.3,1.37,0.63,1.65v0.19c-0.43-0.3-0.85-0.59-1.28-0.89
	c-0.19,0.09-0.07,0-0.19,0.13c-0.29,0.43,0.15,3.45,0.32,3.83l-0.06,0.06c-0.34-0.06-0.68-0.13-1.02-0.19
	c-0.38,1.56,0.49,3.37,0.83,4.72c-0.41-0.21-0.8-0.43-1.21-0.63c-0.64,0.36,0.15,2.19,0.26,2.55c-0.17,0.02-0.01-0.02-0.19,0.06
	c0.11,0.26,0.21,0.52,0.32,0.76c-0.24-0.02-0.47-0.04-0.7-0.06c-0.35,0.85-0.04,1.93,0.26,2.87c-0.13,0.24-0.1,0.18-0.45,0.19
	c-0.56,0.98-0.15,2.74,0.19,3.76c-0.34-0.04-0.68-0.09-1.02-0.13c-0.14,0.75,0.75,3.67,1.15,4.08c-0.21,0.02-0.43,0.04-0.63,0.06
	c-0.37,1.55,1.01,3.04,1.66,4.08c-0.3-0.06-0.6-0.13-0.89-0.19c0.07,1.28,0.87,2.04,1.34,2.93c-0.15,0.09-0.3,0.17-0.45,0.26
	c0.12,0.74,1.5,3.45,2.1,3.76c0.02,0.09,0.04,0.17,0.06,0.26c-0.3,0.04-0.59,0.09-0.89,0.13c-0.17,0.11-0.09,0.02-0.19,0.19
	c0.69,0.99,1.65,1.74,2.17,2.94c-0.11,0.02-0.21,0.04-0.32,0.06c0.09,1.03,0.81,1.16,1.15,1.85c0.58,1.19,0.72,3.08,1.15,4.14
	c0.24,0.59-0.29,0.71-0.06,1.21c0.12,0.26-0.04,0.17,0.13,0.26c-0.13,0.28-0.11,0.26-0.39,0.39c0.02,0.06,0.04,0.13,0.06,0.19v0.13
	c0.2-0.09,0.13-0.06,0.26-0.19c0.02,0.06,0.04,0.13,0.06,0.19h-0.13c0.04,0.29,0.01,0.28-0.26,0.51h-0.26
	c-0.64-0.87-1.64-2.13-2.36-2.74c0.14-0.02-0.3-1.17-0.39-1.28c-0.1,0.11-0.1-0.02-0.13-0.06c-0.71-1.15-0.68-2.32-1.15-3.57
	c-0.23-0.61-0.73-1.17-0.76-1.91c-0.11-0.09-0.21-0.17-0.32-0.26c-0.11,0.17-0.21,0.34-0.32,0.5c-0.57-0.71-0.63-2.44-0.63-3.45
	c-0.36-0.05-0.46-0.15-0.63-0.39c-0.33-0.31-0.64-2.58-0.45-2.62c-0.04-0.13-0.09-0.26-0.13-0.39c-0.11,0.06-0.21,0.13-0.32,0.19
	c0.04-0.09,0.09-0.17,0.13-0.26c-0.45-0.04-0.46-0.11-0.63-0.45c0.06,0.02,0.13,0.04,0.19,0.06c-0.1-0.37-0.7-1.18-0.26-1.34
	c-0.15-0.19-0.56-1.77-1.08-1.91c-0.12,0.42-0.27,0.55-0.63,0.63c0.01-1.34-0.85-3.36-1.28-3.64c-0.23-0.24-0.62-0.11-0.96-0.39
	c-0.65-0.54-0.53-2-1.28-2.49c-0.18-0.12-0.42-0.04-0.63,0c-0.57-0.88-0.83-2.52-1.91-2.87v0.13c-0.08,0.1-0.06-0.01-0.06,0.19
	c-0.11-0.02-0.21-0.04-0.32-0.06c-0.64-0.75-0.74-3.21-2.23-2.43c-0.01-0.74-1.35-2.52-1.85-2.87c-0.15,0.28-0.3,0.56-0.45,0.83
	c0.02,0.04,0.04,0.09,0.06,0.13c-0.41-0.34-0.16-1.02-0.58-1.6c-0.45-0.62-1.45-1.08-1.59-1.85c-0.17-0.04-0.34-0.09-0.52-0.13
	c-0.14,0.17-0.04,0.01-0.06,0.26c-0.19,0.03-0.24,0.11-0.45,0.26c-0.17-0.3-0.34-0.59-0.52-0.89v-0.13
	c-0.52,0.03-1.34-1.08-1.6-1.54c-0.13-0.06-0.26-0.13-0.39-0.19c-0.09,0.17-0.17,0.34-0.26,0.52c-0.02,0.06-0.26-0.07-0.5-0.06
	c-0.16-0.23,0-0.35-0.26-0.76c-0.17,0.24-1.44-1.18-1.6-1.6h-0.13c-0.09,0.13-0.17,0.26-0.26,0.39c-0.17,0.02-0.34,0.04-0.52,0.06
	c0.1-0.31-1.84-2.08-2.62-2.3c-0.04-0.04-0.09-0.09-0.13-0.13c-0.06,0.19-0.13,0.39-0.19,0.58c-0.85-0.78-1.7-1.58-2.55-2.36H11.9
	c-0.02,0.17-0.04,0.34-0.06,0.52c-1.9-1.23-3.77-2.57-5.68-3.83c-0.74-0.48-1.38-1.21-2.3-1.52c-0.2-0.14-0.18-0.04-0.45-0.06
	c0.24,1.36,3.85,3.97,4.92,5.16c0.52,0.58,0.85,1.45,1.6,1.78c-0.09,0.25-0.12,0.21-0.26,0.39c0.47,0.55,0.93,1.1,1.41,1.65
	c0.13,0.24,0.06,0.13-0.06,0.39c0.26,0.45,0.47,0.47,0.76,0.76c-0.26,0.09-0.52,0.17-0.76,0.26c0.05,0.7,1.02,1.76,1.66,2.1
	c-0.11,0.06-0.21,0.13-0.32,0.19v0.19c0.42,0.57,1.21,0.63,1.65,1.15h-1.08c0,0.84,0.68,1.51,1.34,1.72
	c0.09,0.47,0.06,0.83,0.96,0.96c-0.2,0.19-0.42,0.11-0.57,0.39c-0.14,0.16-0.09,0.03-0.06,0.26c-0.12,0.36,1.11,1.34,1.47,1.72v0.06
	c-0.87,0.34,0.9,1.03,1.21,1.28c-0.34,0.06-0.68,0.13-1.02,0.19c0.08,1.08,1.31,1.84,1.85,2.36h0.13c-0.27,0.15-0.53,0.17-0.57,0.39
	c-0.17,0.14-0.04,0.07-0.13,0.26c0.87,0.54,1.45,1.94,2.36,2.23c-0.23,0.21-0.73,0.17-0.96,0.39c-0.04,0.02-0.09,0.04-0.13,0.06
	c0.18,0.81,1.13,1.38,1.85,1.65c0,0.25,0.02,0.11-0.06,0.32c0.29,0.23,0.87,0.4,1.08,0.7c-0.27-0.01-0.87,0.06-1.08,0.32
	c0.16,1.08,1.77,1.78,2.55,2.3c-0.04,0.02-0.09,0.04-0.13,0.06c0.09,0.12,0.01,0.05-0.19,0.06c-0.06,0.15-0.13,0.3-0.19,0.45
	c0.49,0.86,2.25,1.94,3.32,2.17c-0.24,0.11-0.47,0.1-0.63,0.26c-0.16,0.07,0.04,0.07-0.13,0.13c0.28,1.06,2.59,2.06,3.7,2.3
	c-0.15,0.17,0.05,0.15-0.32,0.19c-0.04,0.19-0.09,0.39-0.13,0.57c0.78,0.82,2.16,1.31,3.38,1.66c-0.2,0.18-0.33,0.21-0.45,0.5
	c1.11,0.47,2.21,0.94,3.32,1.41c-0.12,0.13-0.21,0.18-0.32,0.32h0.19c-0.12,0.18-0.12,0.16-0.32,0.26v0.06
	c0.69,0.36,2.88,0.79,2.99,1.47c0.17-0.07,0.05,0.03,0.13-0.13c0.13,0.18,0.06,0.28-0.06,0.5c0.97,0.43,2.25,0.36,2.99,1.02
	c2.03,1.8,5.84,3.2,6.63,5.74c-0.83-0.13-1.65-0.26-2.49-0.39c-1.23-0.42-2.47-0.85-3.7-1.28c-1.22-0.56-2.06-1.51-3.16-2.17
	c-0.55-0.15-1.11-0.3-1.65-0.44c-0.7-0.35-1.51-1.12-1.97-1.34c-0.45-0.22-1.38-0.08-1.85-0.45c-0.53-0.41-0.62-0.68-1.28-0.89
	c-0.34,0.06-0.68,0.13-1.02,0.19c-1.05-0.35-1.95-0.92-3.12-1.08c0.04,0.11,0.09,0.21,0.13,0.32c-1.49,0.37-2.57-0.88-3.77-1.02
	c0.04,0.06,0.09,0.13,0.13,0.19v0.06c-1.34,0.01-1.93-0.39-2.87-0.83c-0.21,0.04-0.43,0.09-0.63,0.13c0.01,0.26,0.06,0.31,0.19,0.57
	c-0.9-0.47-3.21-0.78-3.82-0.7c0.05,0.24,0.23,0.54,0.32,0.58v0.07c-0.53-0.24-3.34-0.81-4.14-0.76v0.07
	c0.09,0.15,0.17,0.3,0.26,0.45c-0.47,0.29-2.76-0.62-3.83-0.63c-0.06,0.06-0.13,0.13-0.19,0.19c0.06,0.15,0.13,0.3,0.19,0.45
	c-1.86-0.45-6.79-1.56-8.54-0.89c-0.05,0-0.07,0.04-0.1,0.09c2.32,0.54,5.3,1.64,7.52,2.93c0.66,0.8,2.07,1.66,3.7,1.66v0.06
	c-0.29,0.1-0.5,0.27-0.63,0.52c-0.13,0.12-0.04,0-0.13,0.19c0.94,0.34,2.12,0.75,3.25,0.76c-0.04,0.07-0.09,0.13-0.13,0.19
	c-0.11,0.13-0.21,0.26-0.32,0.39v0.06c0.6,0.48,1.38,0.31,2.23,0.63c0.11,0.12,0.03,0.22,0.06,0.45c1.06,0.21,2.12,0.42,3.19,0.63
	c-0.15-0.02-0.3-0.04-0.45-0.07c0.06,0.07,0.13,0.13,0.19,0.19c-0.35,0.13-0.34,0.33-0.52,0.57c0.96,0.74,2.54,0.08,3.89,0.57h-0.26
	c-0.06,0.07-0.13,0.13-0.19,0.19c0.1,0.17,0.12,0.14,0.26,0.26c-0.06,0.04-0.13,0.09-0.19,0.13c-0.04,0.06-0.09,0.13-0.13,0.19
	c0.88,0.44,2.85,0.31,3.82,0c-0.11,0.4-0.03,0.32-0.13,0.83c1.1,0.03,1.86-0.29,2.8-0.39c0.41-0.04,0.4,0.22,0.63,0.19
	c-0.09,0.15-0.17,0.3-0.26,0.45v0.07c1.3,0.26,2.57-0.24,3.57-0.51c-0.11,0.17-0.21,0.34-0.32,0.51c0.96,0.38,2.81-0.34,3.57-0.63
	c0.11,0.06,0.21,0.13,0.32,0.19c-0.06,0.09-0.13,0.17-0.19,0.26c0.59-0.15,1.19-0.3,1.78-0.44c1.08-0.25,1.72,0.14,2.75-0.07
	c1.53-0.3,3.77-0.43,4.79-0.26c-1.72,0.86-5.03,1.49-7.27,2.36c-0.59,0.11-1.19,0.21-1.78,0.32h0.19c-0.09,0.04-0.17,0.09-0.26,0.13
	c0.11,0.17,0.14,0.21,0.32,0.32c-0.41,0.33-3,1.28-3.64,1.28c0.02,0.33-0.03,0.39,0.32,0.45c-1.04,0.39-2.08,0.76-3.12,1.15
	c0.04,0.26,0,0.19,0.13,0.32c0.06,0.09,0.13,0.17,0.19,0.26c-1.32,0.26-2.59,1.34-3.57,2.04c0.06,0.3,0.01,0.2,0.26,0.32
	c-2.21,1.15-4.11,3.34-5.55,5.49c-0.32,0.48-1.38,1.63-0.96,2.36c0.09,0.13,0.07,0.11,0.19,0.19c0.87-0.96,1.74-1.91,2.62-2.87
	c1.38-1.31,4.04-2.44,6.12-2.93c-0.02,0.18,0.03,0.34,0.19,0.51c1.22-0.64,2.83-1.83,4.27-2.04c0.16,0.32,0.19,0.52,0.52,0.7
	c0.82-0.54,1.85-1.28,2.43-2.04h0.32v0.32c0.06,0.06,0.13,0.13,0.19,0.19c0.75-0.26,0.93-0.96,1.47-1.41
	c0.83-0.57,1.65-1.15,2.49-1.72h0.06c-0.04,0.34-0.12,0.34,0,0.52c-0.11,0.27-0.06,0.06-0.26,0.26h0.13c0.08,0.1,0.01,0.05,0.13,0
	c0.02,0.24,0.04,0.47,0.06,0.7h0.26c0.13-0.27,0.75-0.82,0.89-0.83c0.13-0.32,0.26-0.63,0.39-0.96c0.85-1.35,2.22-2.32,3.19-3.51
	c0.28-0.34,1.89-1.27,1.91-1.08c0.11-0.09,0.12-0.14,0.19-0.26c0.81,1.41-0.5,6.69-0.58,8.54h-0.06c-0.02-0.11-0.04-0.21-0.06-0.32
	c-0.04,0.04-0.09,0.09-0.13,0.13c0.09,0.35,0.01,0.22,0.26,0.26c-0.02,0.19-0.04,0.39-0.06,0.57c-0.02-0.07-0.04-0.13-0.06-0.19
	h-0.06c0,0.25-0.02,0.67-0.03,1.02h0.03c-0.01,0.02-0.02,0.05-0.04,0.08c-0.01,0.31-0.03,0.56-0.03,0.56
	c0.04,0.06,0.09,0.13,0.13,0.19c-0.17,0.18-0.41,1.41-0.39,1.72c0.09-0.04,0.17-0.09,0.26-0.13c-0.11,0.31-0.01,0.19-0.26,0.26
	c0.08,0.43,0.15,5.09-0.32,5.48c0.26,0.28-0.25,5.16-0.19,6.31c0.05,1.12-0.69,2.18-0.39,3.25v0.06c0.23,0.32,0.48,0.04,0.83,0.13
	c0.09,0.02,0.43,0.57,0.63,0.71c0.19-0.17,0.39-0.34,0.57-0.51c0.46-1.57,0.32-4.1,0.32-6.12c0.02,0.74,0.04,1.49,0.06,2.23
	c0.02-0.83,0.04-1.65,0.06-2.49c0.02,0.17,0.04,0.34,0.06,0.52c0.21-0.56-0.24-0.85-0.13-1.53c0.09-0.51,0.17-1.02,0.26-1.54
	c-0.02,0.06-0.04,0.13-0.06,0.19h-0.04c0-0.38,0.03-0.69,0.06-0.96V96.4h0.05c0.04-0.24,0.1-0.45,0.13-0.63
	c0.33-1.55-0.23-4.48,0.26-5.87c0.14-0.41-0.05-1.3-0.13-1.52l0.32-3.7c0.06,0.18,0.16,0.06,0.19-0.06c0.13-0.62-0.16-1.78,0-2.43
	c0.11-0.45,0.38-1.38,0.32-2.17c0.02,0.06,0.04,0.13,0.06,0.19c0.12-0.29,0.12-0.72,0.26-0.96c0.19,0.1,0.21,0.11,0.45,0.07
	c0.13,0.43,0.2,0.1,0.19,0.45c0.12-0.09,0.04-0.01,0.13-0.13c0.8,0.89,2.17,3.24,3.51,4.34h0.06c0.07-0.15,0.13-0.3,0.19-0.45
	c1.3,0.64,2.25,2.05,3.32,2.99c0.11-0.02,0.21-0.04,0.32-0.06c0-0.34-0.03-0.18,0-0.63h0.13c-0.02,0.06-0.04,0.13-0.06,0.19
	c0.15-0.03,0.08-0.01,0.26-0.13c0.02,0.04,0.04,0.09,0.06,0.13c-0.06,0.04-0.13,0.09-0.19,0.13v0.07c0.98,0.17,2.43,2.07,3.25,2.04
	h0.32c-0.02-0.13-0.04-0.26-0.06-0.39c-0.02-0.04-0.04-0.08-0.06-0.13c0.68,0.13,2.46,2.35,2.99,1.97c0.31,0.11,0.15-0.32,0.19-0.45
	c-0.04-0.02-0.09-0.04-0.13-0.07c1.35,0.09,1.66,1.34,2.99,1.54c0.27-0.25,0.28-0.32,0.19-0.63c1.13,0.22,2.5,1.11,3.7,1.28
	c0.01-0.14-0.01-0.05-0.06-0.26c2.53,0.71,8.26,3.84,9.06,5.29c0.13-0.04,0.26-0.09,0.39-0.13c-0.1-0.19-0.14-0.41-0.13-0.76
	c-0.02,0.06-0.04,0.13-0.06,0.19c-0.21-0.21-0.09-0.25-0.19-0.52c0.15-0.16,0.13-0.01,0.26-0.19h0.13c-0.23-0.14-0.1-0.09-0.32,0
	h-0.06c0.07-0.29,0.12-0.26,0.26-0.45c-0.27-0.03-0.3-0.11-0.32,0.13c-0.24-0.27-0.42-1.08-0.57-1.21
	c-1.59-1.31-3.55-3.13-5.55-4.53c-0.72-0.5-1.5-1.53-2.42-1.6c0.13-0.24,0-0.14,0.32-0.19c-0.02-0.13-0.04-0.26-0.06-0.39
	c-1.45-0.52-2.89-1.92-4.46-1.97v-0.07c0.44-0.12,0.35-0.31,0.63-0.32c-0.04-0.15-0.09-0.3-0.13-0.45
	c-1.21-0.38-2.62-1.04-3.96-1.02c0.04-0.13,0.25-0.3,0.39-0.51c0.04-0.04,0.09-0.09,0.13-0.13c-0.64-0.64-2.43-0.96-3.57-1.02
	c0.01-0.31,0.11-0.23-0.26-0.32h0.45c0.02-0.04,0.04-0.09,0.06-0.13c-1.11-0.33-2.42-0.54-3.82-0.5c0.09-0.62-5.66-2.06-5.74-2.04
	c-0.12-0.15-0.09-0.02,0-0.19c-0.17-0.02-0.34-0.04-0.52-0.07c1.63-0.82,6.52,1.19,6.95,0.96c0.39,0.32,0.74,0.1,0.89,0.58
	c0.19-0.17-0.01-0.06,0.26-0.06c0.12-0.26,0.12-0.18,0.13-0.45c1.28,0.39,2.55,0.76,3.83,1.15c0.08-0.24,0.02-0.32,0-0.76
	c1.4,0.35,2.68,0.78,4.27,0.95c-0.06-0.17-0.13-0.34-0.19-0.51c0.24,0.09,0.1,0.1,0.32,0c0.05-0.15,0.01-0.05-0.13-0.32
	c0.89,0.13,1.78,0.26,2.68,0.39h1.02c-0.08-0.28-0.13-0.25-0.26-0.45c0.28-0.06,0.55-0.13,0.83-0.19c0.02-0.04,0.04-0.08,0.07-0.13
	h3.64c-0.09-0.23-0.14-0.23-0.26-0.39c0.06,0.02,0.13,0.04,0.19,0.06c-0.04-0.16,0.03-0.03-0.13-0.19c0.08-0.02,0.17-0.04,0.26-0.06
	c0.12,0.04,0.54-0.08,0.26-0.13c0.3-0.27,2.52-0.05,3.06-0.06c0.02-0.06,0.04-0.13,0.06-0.19c-0.18-0.38-0.3-0.85-0.63-1.08
	c-0.04-0.06-0.09-0.13-0.13-0.19v-0.05c0.27,0.02,2.46,0.26,3.25-0.06c0.53-0.21,0.2-0.38,0.89-0.39c-0.02-0.17-0.04-0.34-0.07-0.5
	h0.45v-0.06c-0.13-0.02-0.26-0.04-0.39-0.07c-0.04-0.15-0.09-0.3-0.13-0.44c0.13-0.02,0.26-0.04,0.39-0.06V75.2
	c-0.13-0.02-0.26-0.04-0.39-0.07c0.85-0.46,1.91-0.64,2.99-0.63c0.01-0.55,0.29-0.87-0.26-1.15h0.26c0.1-0.15,0.04-0.06-0.13-0.13
	c1.04-0.43,3.53-0.31,3.51-1.54c0.19-0.06-0.24-0.18-0.39-0.19c0.61-0.96,2.64-0.77,3.32-1.53c0.15-0.2,0.01-0.2-0.13-0.44
	c2.83-1.28,5.88-1.62,8.54-2.99C99.96,66.45,99.98,66.38,100,66.33z M85.65,47.52h0.06c-0.04,0.04-0.09,0.09-0.13,0.13
	C85.61,47.6,85.63,47.56,85.65,47.52z M69.83,44.01v0.13h-0.07C69.79,44.09,69.81,44.05,69.83,44.01z M53.44,65.81
	c0.04-0.02,0.09-0.04,0.13-0.06c-0.02,0.03,0.04,0.05-0.13,0.13V65.81z M53.18,14.98h0.06c-0.02,0.06-0.04,0.13-0.06,0.19V14.98z
	 M49.88,73.34h0.06c-0.02,0.06-0.04,0.13-0.06,0.19V73.34z M28.51,78.19c0.02-0.04,0.04-0.09,0.06-0.13h0.06
	C28.59,78.1,28.55,78.15,28.51,78.19z M46.56,90.37c0.13,0.14,0.05,0.12,0.13,0.32C46.55,90.56,46.59,90.62,46.56,90.37z
	 M47.96,98.02v-0.26c0.02,0.09,0.04,0.17,0.06,0.26H47.96z M48.21,73.6c0.02-0.07,0.04-0.13,0.06-0.19
	C48.33,73.56,48.3,73.46,48.21,73.6z M50.64,76.72v-0.06c0.06-0.02,0.13-0.04,0.19-0.07h0.13C50.83,76.7,50.86,76.68,50.64,76.72z
	 M52.06,75.17c0,0.01-0.01,0.01-0.01,0.02C52.09,75.15,52.09,75.15,52.06,75.17z M88.97,41.14c-0.02-0.04-0.04-0.09-0.06-0.13
	c-0.02,0.04-0.04,0.09-0.07,0.13H88.97z M56.56,56.63h0.06c-0.02-0.06-0.04-0.13-0.06-0.19V56.63z M77.17,59.31h-0.13
	c-0.02,0.04-0.04,0.09-0.06,0.13C77.04,59.4,77.11,59.35,77.17,59.31z M43.68,67.41v0.13c0.12-0.09,0.04,0,0.13-0.13H43.68z
	 M85.39,73.4h-0.13v0.19C85.31,73.53,85.35,73.47,85.39,73.4z M51.72,75.89c-0.04-0.04-0.09-0.09-0.13-0.13
	C51.68,75.88,51.6,75.8,51.72,75.89z M28.25,78.32c0.09,0.12,0,0.04,0.13,0.13C28.33,78.39,28.29,78.36,28.25,78.32z M63.45,79.47
	h-0.13C63.44,79.52,63.35,79.52,63.45,79.47z M47.13,82.2v0.32c0.02,0.02,0.04,0.04,0.06,0.06c0.04-0.02,0.09-0.04,0.13-0.06
	C47.26,82.28,47.3,82.33,47.13,82.2z M46.81,85.26v0.26c0.04-0.09,0.09-0.17,0.13-0.26H46.81z M46.62,88.32v0.26
	c0.03-0.07,0.06-0.12,0.09-0.18c0-0.02,0-0.05,0-0.07H46.62z M48.54,90.37h0.06c-0.02-0.06-0.04-0.13-0.06-0.19V90.37z M46.11,92.41
	v0.26h0.06c0.02-0.09,0.04-0.17,0.06-0.26H46.11z M46.17,95.08c0.16-0.19,0.19-0.87,0.06-1.15c0,0.5-0.02,0.85-0.13,1.08
	C46.13,95.04,46.15,95.06,46.17,95.08z M80.74,95.66c-0.02-0.06-0.04-0.13-0.07-0.19v0.19H80.74z M48.34,96.68
	c0.02-0.11,0.04-0.21,0.06-0.32h-0.19c-0.02,0.12-0.04,0.25-0.05,0.39C48.21,96.73,48.28,96.7,48.34,96.68z M45.15,105.68
	c0.04,0.04,0.09,0.09,0.13,0.13h0.06C45.23,105.68,45.35,105.75,45.15,105.68z"/>
</svg>
