<?xml version="1.0" encoding="utf-8"?>
<!-- Generator: Adobe Illustrator 13.0.2, SVG Export Plug-In  -->
<!DOCTYPE svg PUBLIC "-//W3C//DTD SVG 1.1 Tiny//EN" "http://www.w3.org/Graphics/SVG/1.1/DTD/svg11-tiny.dtd" [
	<!ENTITY ns_flows "http://ns.adobe.com/Flows/1.0/">
]>
<svg version="1.1" baseProfile="tiny"
	 xmlns="http://www.w3.org/2000/svg" xmlns:xlink="http://www.w3.org/1999/xlink" xmlns:a="http://ns.adobe.com/AdobeSVGViewerExtensions/3.0/"
	 x="0px" y="0px" width="60px" height="96px" viewBox="-0.751 -0.162 60 96" xml:space="preserve">
<defs>
</defs>
<path fill="#010101" d="M38.577,20.143c2.051,1.913-1.791,0.996-2.918,1.225c-1.51-0.299-3.947,1.88-5.014,0.229
	C31.68,19.11,36.018,20.234,38.577,20.143z M49.614,36.613c1.576-2.056-0.248-4.417-1.721-5.816
	C47.667,32.749,49.823,34.352,49.614,36.613z M30.158,40.863c-3.104-0.287-3.16,1.053-0.759,2.086
	c0.499,0.213,8.298-0.462,11.566-1.468c2.826-0.868,5.92-0.926,8.881-1.45c-1.645-1.016-5.758-0.535-8.137-0.232
	C38.049,40.269,33.997,41.22,30.158,40.863z M48.856,50.327L49,50.487c3.371-0.286,2.723-5.04,1.9-7.336
	C48.737,43.756,51.135,48.804,48.856,50.327z M58.356,48.085c-0.23-2.08-1.219-3.531-1.859-4.421c0.471-3.69-0.316-7.435-1.965-10.1
	c-1.137-1.838-3.449-4.1-5.725-4.156c1.949,1.227,3.744,3.021,4.691,4.797c1.307,2.444,2.332,5.37,2.047,8.162
	c-0.857-0.824-1.84-1.549-3.93-1.895c3.51,2.097,4.998,3.288,5.572,7.54c0.445,3.273-0.123,6.711-2.041,8.688
	c-0.723-1.114-2.58-3.11-3.902-3.632c2.051,1.691,3.076,5.821,2.615,8.255c-0.223,1.165-1.152,2.856-1.535,3.352
	c-1.186-0.542-0.953,0.618-0.207,1.183c2.068,1.664,1.953,3.694,0.662,5.586c-1.324,1.943-6.184,3.544-8.443,4.165
	c0.656-0.605,1.07-1.51,1.244-2.386c-1.332,0.788-1.736,1.09-3.811,1.824c-1.834,0.649-4.316,1.287-6.564,1.522
	c-1.023,0.109-2.947,0.393-5.182,0.257c2.85,1.005,7.172,0.785,10.286,0.39c-1.438,1.46-2.943,2.498-4.535,3.524
	c-2.684,1.729-9.665,1.155-11.125,0.682c0.136,1.256,4.618,0.807,2.6,2.12c-1.792,1.166-2.907,3.505-4.197,5.098
	c-1.378,2.836-4.761,3.125-7.702,2.914c-2.753-0.197-9.596-6.293-10.927-8.01c-1.949-2.521-2.869-5.86-2.938-7.941
	c-0.088-2.624,1.829-7.693,6.591-7.453c2.285,0.116,4.536-1.879,6.021-3.735c1.532-1.92,5.588-6.314,6.535-8.5
	c0.333,0.309,0.399,1.066-0.398,3.168c-1.293,3.391-1.742,3.667,0.889,6.067c0.976,0.892-1.018,4.288,1.494,4.803
	c-0.86-1.438,0.634-3.314-0.129-4.783c-1.321-2.546-2.935-2.552-2.006-4.712c0.895-2.084,1.927-5.066,0.559-6.858
	c-1.256-1.64-4.281-3.496-2.508-5.84c1.321-1.745,3.992-4.314,1.739-6.513c-1.689-1.648-1.193-3.233,0.091-4.682
	c1.428-1.61,3.772-2.411,5.801-3.251c2.643-0.855,5.277-1.859,7.96-2.632c3.604-1.037,6.701-2.005,10.801-1.661
	c-1.252-0.774-2.627-0.935-4.016-0.816c-1.754,0.146-3.527,0.73-5.109,1.066c-2.084,0.443-5.716,1.963-6.79,1.483
	c0.261-2.69,0.132-6.096-0.176-8.636c-0.478-3.939-1.494-7.134-2.354-10.44c-0.618-2.386-1.221-6.907,0.672-8.916
	c2.084-2.343,4.646-1.526,6.539-0.778c2.312,0.91,4.74,2.828,5.795,4.244c1.641,2.203,3.766,4.995,3.48,8.535
	c-0.311,3.769-3.846,10.027-2.223,12.793c-0.674-3.399,2.641-8.094,3.416-13.023c0.473-3.032-2.037-6.613-3.699-8.958
	c-1.652-2.339-3.951-3.608-6.852-4.96c-2.389-1.111-6.167-0.797-7.825,1.592c-1.773,2.559-1.225,6.711-0.556,9.785
	c0.603,2.779,1.732,5.398,2.128,8.264c0.386,2.809,1.249,7.968,0.543,10.499c-2.146,2.003-4.328,2.031-6.736,3.357
	c-0.282,0.155-0.546,0.335-0.794,0.536c-1.484,1.204-2.319,3.153-2.263,5.059c0.01,0.317,0.044,0.634,0.104,0.945
	c0.342,1.764,2.27,2.948,0.794,4.773c-1.761,2.177-2.834,5.462-0.6,7.401c2.703,2.347,0.314,4.515-1.133,6.565
	c-1.331,1.885-2.112,2.591-3.924,4.646c-1.388,1.574-2.794,3.696-5.261,3.5C3.221,67.154,0.214,71.914,0,75.574
	c0.01,2.776,0.349,6.336,2.637,9.704c2.009,2.955,9.019,8.825,12.405,9.19c3.534,0.382,6.435,1.734,9.193-0.163
	c4.382-3.015,1.491-8.187,5.983-10.371c2.338-1.138,4.268-0.563,6.61-2.226c1.256-0.944,4.494-3.066,5.525-4.52
	c2.861-0.198,5.719-1.089,6.959-1.572c2.25-0.879,3.662-1.752,4.695-3.459c1.805-2.979,1.184-5.377-0.418-6.703
	c1.779-1.775,2.637-4.679,1.996-6.847C58.116,56.819,58.803,52.201,58.356,48.085z M20.18,78.22
	c0.663,2.873-1.758,4.556-3.383,6.293c1.268,0.685,2.862-1.342,3.662-2.177c2.703-1.318,1.432-3.757,0.723-5.918
	C21.605,72.164,19.549,76.272,20.18,78.22z M50.192,60.707c0.326,0.706,0.881-0.264,0.984-0.528
	c1.975-1.783-0.637-3.847-1.258-5.834C48.659,54.967,50.999,58.672,50.192,60.707z M47.629,52.627
	c-2.213-2.003-7.633-0.873-10.293-0.245c-1.186,0.282-5.275,0.07-6.934-0.333c-1.559-0.38-2.241,0.142,0.387,2.207
	c1.287,1.011,5.596-0.157,7.213-0.421C40.903,53.362,45.303,52.243,47.629,52.627z M23.768,72.117
	c-0.665,1.701,2.267,3.462,3.65,3.705C27.798,73.857,24.326,73.259,23.768,72.117z M41.532,64.855
	c-2.74,0.716-5.525-0.636-8.053-1.329c-1.713,0.308,1.717,2.943,2.963,3.191c2.176,0.436,4.539-0.177,6.621-0.564
	c2.576-0.48,4.4-1.126,7.068-1.488C47.604,63.542,44.268,64.14,41.532,64.855z"/>
</svg>
