<?xml version="1.0" encoding="utf-8"?>
<!-- Generator: Adobe Illustrator 15.0.2, SVG Export Plug-In  -->
<!DOCTYPE svg PUBLIC "-//W3C//DTD SVG 1.1 Tiny//EN" "http://www.w3.org/Graphics/SVG/1.1/DTD/svg11-tiny.dtd" [
	<!ENTITY ns_flows "http://ns.adobe.com/Flows/1.0/">
]>
<svg version="1.1" baseProfile="tiny"
	 xmlns="http://www.w3.org/2000/svg" xmlns:xlink="http://www.w3.org/1999/xlink" xmlns:a="http://ns.adobe.com/AdobeSVGViewerExtensions/3.0/"
	 x="0px" y="0px" width="396px" height="383px" viewBox="1.91 -1.14 396 383" overflow="visible" xml:space="preserve">
<defs>
</defs>
<path fill-rule="evenodd" fill="#231F20" d="M84.92,143.32c-8.7,15.58-15.27,30.07-19.46,47.77l-17.1-31.26l-17.1,17.69
	c8.26,8.06,16.51,16.12,24.77,24.18L11.8,179.89L0,208.19c18.28,2.95,36.56,5.9,54.85,8.85c-10.22,2.55-20.44,5.11-30.67,7.67
	c2.16,6.09,4.32,12.19,6.49,18.28c8.06-5.11,16.12-10.22,24.18-15.33c-1.58,13-2.84,23.1-0.59,35.97
	c4.14,23.7,8.93,34.94,22.41,55.44c19.43,24.29,39.54,36.65,67.82,46.59c39.93,14.04,74.3,20.25,115.59,15.92
	c38.02-3.98,78.31-18.63,103.21-50.13c30.06-38.03,36.16-75.66,30.08-122.08c-4.32-32.96-19.46-59.84-40.69-84.92
	c-17.89-21.14-38.49-40.46-64.87-50.72c-10.21-24.08-28.26-44.49-49.54-59.56C224.08,5.66,217.49-0.3,201.1,0.01
	c-21.29,0.4-33.14,20.09-20.12,37.46c-9.44-1.11-18.25-2.41-27.73-1.77c-11.75,0.8-44.73,6.29-36.12,26.98
	c5.81,13.97,21.3,13.44,33.76,14.36C125.34,92.54,99.56,117.13,84.92,143.32L84.92,143.32z M198.75,75.5
	c-12.61-0.96-54.37,2.31-67.68-10.41c-7.08-6.77-4.75-13.4,2.4-17.85c11.19-6.97,23.31-6.24,36.7-5.99
	c4.68,0.08,6.43,0.77,10.65,2.89c26.13,13.18,43.66,22.48,73.96,29.01c-7.86-3.34-15.73-6.68-23.59-10.03
	c-12.72-6.12-24.81-11.26-35.39-20.64c-9.68-8.59-18.93-19.84-6.49-28.31c27.14-18.46,59.53,12.85,78.44,35.97
	c8.69,10.63,13.79,22.9,19.46,35.38c31.75,14.82,56.58,39.71,76.67,68.41c12.97,22.45,21.02,37.14,23,63.1
	c3.38,44.28-3.01,78.79-33.03,110.28c-27.38,28.73-69.2,43.24-109.69,44.82c-37.46,1.46-66.79-7.83-102.03-20.64
	c-34.31-15.1-61.26-30.98-74.9-67.82c-13.63-36.82-4.01-75.33,14.15-110.87c12.34-24.15,22.54-44.23,41.87-63.69
	C144.74,87.49,169.62,78.41,198.75,75.5z"/>
<path fill-rule="evenodd" fill="#ED1651" d="M75.14,299.86c14.92,25.56,38.62,39,67.34,51.63c35.23,12.81,64.57,22.1,102.03,20.64
	c38.35-1.49,77.96-14.65,105.3-40.45c1.48-1.4,2.99-2.9,4.39-4.38c30.01-31.5,36.41-66,33.03-110.28
	c-1.98-25.96-10.03-40.65-23-63.1c-20.09-28.7-44.92-53.6-76.67-68.41c-5.67-12.48-10.77-24.76-19.46-35.38
	c-18.91-23.12-51.29-54.44-78.44-35.97c-12.44,8.47-3.19,19.72,6.49,28.31c10.58,9.38,22.66,14.52,35.38,20.64l23.59,10.03
	c-30.3-6.53-47.83-15.83-73.96-29.01c-4.22-2.13-5.97-2.81-10.65-2.89c-13.39-0.25-25.51-0.98-36.7,5.99
	c-7.15,4.45-9.49,11.08-2.4,17.85c13.31,12.72,55.07,9.45,67.68,10.41c-29.12,2.91-54.01,11.99-75.49,33.62
	c-19.33,19.46-29.53,39.54-41.87,63.69c-18.16,35.54-27.78,74.05-14.15,110.87C69.72,289.48,72.35,295.01,75.14,299.86z"/>
<path fill-rule="evenodd" fill="#E2C4A8" d="M349.8,331.69C328.46,289.68,266.09,255,198.98,255c-52.66,0-95.94,16.59-123.84,44.86
	c14.92,25.56,38.62,39,67.34,51.63c35.23,12.81,64.57,22.1,102.03,20.64C282.85,370.64,322.46,357.48,349.8,331.69z"/>
<path fill-rule="evenodd" fill="#231F20" d="M257.01,288.48c11.7,7.92,25.34,15.81,37.13,18.02c6.82,1.27,14.76-0.03,21.66-0.5
	c4.4-0.29,8.81-0.35,13.18,0.33l9.66,1.5l-70.18,48.24l-2.28-2.57c-8.72-9.82-17.07-20.23-24.05-31.37
	c-8.14-12.99-15.85-29.36-14.87-45.05c0.45-7.23,3.5-11.03,7.73-16.51c11.95-15.49,33.13-29.42,52.21-33.61
	c16.25-3.57,35.4,13.66,46.76,23.62c12.52,10.98,26.85,26.05,29.88,43l0.87,4.87l-4.94-0.31c-8.57-0.54-17.61-2.88-25.95-4.95
	c-7.9-1.96-16.58-4.3-24.69-4.94c-10.95-0.86-21.58-0.3-32.52,0.14C269.98,288.66,263.5,288.77,257.01,288.48z"/>
<path fill-rule="evenodd" fill="#F4B32E" d="M242,282.56l2.09,0.77c23.71,3.59,41.62-0.83,65.36,1.04
	c14.9,1.17,35.58,8.94,50.58,9.88c-2.83-15.85-16.74-30.35-28.61-40.76c-10.69-9.37-29.08-25.87-43.37-22.74
	c-17.06,3.74-37.87,16.5-49.97,32.18c-4.23,5.48-6.55,8.41-6.93,14.38c-1.61,25.66,22.21,55.88,37.94,73.6l59.29-40.76
	c-11.74-1.83-24.01,2.19-34.96,0.15C277.3,307.3,257.94,294.31,242,282.56z"/>
<path fill-rule="evenodd" fill="#231F20" stroke="#231F20" stroke-width="0.5" stroke-miterlimit="2.6131" d="M230.41,183.38
	c20.14,6.69,40.28,13.37,60.42,20.06l2.97,0.99l-0.33,3.12c-2.58,24.06-28.38,38.29-50.78,31.04c-11.27-3.65-21.17-11.42-24.43-23.2
	c-3.04-11.02,0.85-22.19,7.92-30.78l1.69-2.06L230.41,183.38z"/>
<path fill-rule="evenodd" fill="#FFFFFF" stroke="#231F20" stroke-width="0.5" stroke-miterlimit="2.6131" d="M229.19,187.07
	c-15.23,18.52-8.18,40.42,14.7,47.82c20.55,6.65,43.46-6.62,45.72-27.76C269.47,200.44,249.33,193.76,229.19,187.07z"/>
<path fill-rule="evenodd" fill="#231F20" stroke="#231F20" stroke-width="0.5" stroke-miterlimit="2.6131" d="M358.52,184.78
	c7.07,8.6,10.96,19.76,7.92,30.78c-3.25,11.79-13.16,19.56-24.43,23.2c-22.41,7.25-48.21-6.98-50.78-31.04l-0.33-3.12l2.97-0.99
	c20.14-6.69,40.28-13.37,60.42-20.06l2.53-0.84L358.52,184.78z"/>
<path fill-rule="evenodd" fill="#FFFFFF" stroke="#231F20" stroke-width="0.5" stroke-miterlimit="2.6131" d="M355.52,187.25
	c15.23,18.52,8.18,40.42-14.7,47.82c-20.55,6.65-43.46-6.62-45.72-27.76C315.23,200.62,335.37,193.94,355.52,187.25z"/>
<path fill-rule="evenodd" fill="#231F20" d="M307.89,220.31c5.05,0,9.17-4.12,9.17-9.17c0-5.05-4.12-9.17-9.17-9.17
	c-5.05,0-9.17,4.12-9.17,9.17C298.72,216.19,302.84,220.31,307.89,220.31z"/>
<path fill-rule="evenodd" fill="#231F20" d="M271.82,224.52c7.05,0,12.79-5.75,12.79-12.79c0-7.05-5.75-12.79-12.79-12.79
	s-12.79,5.75-12.79,12.79C259.02,218.77,264.77,224.52,271.82,224.52z"/>
<polygon fill-rule="evenodd" fill="#231F20" points="292.12,205.36 196.84,173.76 205.69,141.86 295.95,186.46 365.57,153.38 
	379.44,179.07 "/>
<path fill-rule="evenodd" fill="none" stroke="#231F20" stroke-width="0.5" stroke-miterlimit="2.6131" d="M321.91,297.77
	c0,1.22,0.16,3.83-0.35,4.67c-0.51,0.84-0.88,3.38-0.89,3.35"/>
<path fill-rule="evenodd" fill="#806B64" stroke="#231F20" stroke-width="0.5" stroke-miterlimit="2.6131" d="M321.91,297.77
	c-3.92-3.31-8.1-6.48-12.51-9.5c-0.08-0.01-0.17-0.01-0.25-0.02c-10.95-0.86-21.58-0.3-32.52,0.14c-6.65,0.27-13.12,0.38-19.61,0.08
	c11.7,7.92,25.34,15.81,37.13,18.02c6.82,1.27,14.76-0.03,21.66-0.5c1.62-0.11,3.24-0.18,4.86-0.2c2.78-0.03,5.56,0.1,8.32,0.53
	l2.55,0.4C328.54,303.65,325.33,300.66,321.91,297.77z"/>
</svg>
