<?xml version="1.0" encoding="utf-8"?>
<!-- Generator: Adobe Illustrator 15.0.0, SVG Export Plug-In  -->
<!DOCTYPE svg PUBLIC "-//W3C//DTD SVG 1.1 Tiny//EN" "http://www.w3.org/Graphics/SVG/1.1/DTD/svg11-tiny.dtd" [
	<!ENTITY ns_flows "http://ns.adobe.com/Flows/1.0/">
]>
<svg version="1.1" baseProfile="tiny"
	 xmlns="http://www.w3.org/2000/svg" xmlns:xlink="http://www.w3.org/1999/xlink" xmlns:a="http://ns.adobe.com/AdobeSVGViewerExtensions/3.0/"
	 x="0px" y="0px" width="101px" height="74px" viewBox="-0.98 -0.72 101 74" overflow="visible" xml:space="preserve">
<defs>
</defs>
<path fill-rule="evenodd" fill="#E20613" d="M25.9,21.43c4.12,0,7.95,1.52,11.98-0.23c3.26-1.41,4.97-4.46,6.45-8.78
	c1.94-5.69,5.71-7.41,10.57-5.17c4.34,2,9.04,1.58,6.29-6.18c4.25,4.16,4.42,11.77-0.4,13.56c-4.19,1.55-6.03-3.1-9.74,0.1
	c-3.13,2.7-2.84,7,1.08,9.58c3.91,2.57,9.49,1.95,13.43-3.48c3.48-4.79,3.84-10.96,8.69-16.11c6.95-7.38,20.02-5.77,25.74,2.4
	c-5.73-4.64-14.93-4.7-18.55,0.45c-6.98,9.91,3.05,22.84,11.73,15.5c2.35-1.99,2.99-5.8,1.69-9.89c6.59,7.71,4.11,19.66-7.05,22.79
	c-3.88,1.09-7.72,0.87-11.52-0.21c-4.45-1.27-7.61-3.49-11.8,0.48c-4,3.79-2.72,10.69,1.21,11.79c3.49,0.97,6.1-2.75,8.8-4.29
	c7.02-4,12.64-0.8,12.72,10.5c-2.21-8.48-6.5-9.02-10.62-4.8c-4.66,4.72-8.37,9.73-16.44,5.26c-4.03-2.24-6.45-1.84-8.29-0.17
	c-1.77,1.6-2.34,3.67-3.49,5.67c-4.47,7.79-12.86,13.03-22.48,13.03C11.6,73.23,0,61.63,0,47.33C0,33.03,11.6,21.43,25.9,21.43z"/>
<path fill-rule="evenodd" fill="#FFCB00" d="M25.9,65.89c10.22,0,18.56-8.34,18.56-18.56c0-10.22-8.34-18.56-18.56-18.56
	c-10.22,0-18.56,8.34-18.56,18.56C7.34,57.55,15.68,65.89,25.9,65.89z"/>
<path fill-rule="evenodd" fill="#FFEC00" d="M25.9,56.25c4.91,0,8.92-4,8.92-8.92c0-4.91-4-8.92-8.92-8.92
	c-4.91,0-8.92,4.01-8.92,8.92C16.98,52.24,20.99,56.25,25.9,56.25z"/>
</svg>
